G04 EAGLE Gerber X2 export*
G04 #@! %TF.Part,Single*
G04 #@! %TF.FileFunction,Soldermask,Top*
G04 #@! %TF.FilePolarity,Negative*
G04 #@! %TF.GenerationSoftware,Autodesk,EAGLE,9.0.1*
G04 #@! %TF.CreationDate,2018-06-02T08:45:53Z*
G75*
%MOMM*%
%FSLAX44Y44*%
%LPD*%
%AMOC8*
5,1,8,0,0,1.08239X$1,22.5*%
G01*
%ADD10C,3.403200*%
%ADD11C,2.032000*%
%ADD12C,2.032000*%
%ADD13C,2.082800*%
%ADD14C,2.703200*%
%ADD15C,1.879600*%
%ADD16C,1.816000*%


D10*
X-24260Y676440D03*
X-396040Y654050D03*
X-469400Y253700D03*
X-469520Y23570D03*
D11*
X-34544Y25400D02*
X-16256Y25400D01*
X-16256Y50800D02*
X-34544Y50800D01*
X-34544Y76200D02*
X-16256Y76200D01*
X-16256Y101600D02*
X-34544Y101600D01*
X-34544Y127000D02*
X-16256Y127000D01*
X-16256Y152400D02*
X-34544Y152400D01*
X-34544Y177800D02*
X-16256Y177800D01*
X-16256Y203200D02*
X-34544Y203200D01*
X-34544Y228600D02*
X-16256Y228600D01*
X-16256Y254000D02*
X-34544Y254000D01*
X-34544Y279400D02*
X-16256Y279400D01*
X-16256Y304800D02*
X-34544Y304800D01*
D12*
X-139700Y25400D03*
X-139700Y50800D03*
X-139700Y76200D03*
X-139700Y101600D03*
X-139700Y127000D03*
X-139700Y152400D03*
X-139700Y177800D03*
X-139700Y203200D03*
X-139700Y228600D03*
X-139700Y254000D03*
X-139700Y279400D03*
X-139700Y304800D03*
X-139700Y330200D03*
X-139700Y355600D03*
X-139700Y381000D03*
X-317500Y25400D03*
X-317500Y50800D03*
X-317500Y76200D03*
X-317500Y101600D03*
X-317500Y127000D03*
X-317500Y152400D03*
X-317500Y177800D03*
X-317500Y203200D03*
X-317500Y228600D03*
X-317500Y254000D03*
X-317500Y279400D03*
X-317500Y304800D03*
X-317500Y330200D03*
X-317500Y355600D03*
X-317500Y381000D03*
D13*
X-116332Y334264D03*
X-51308Y334264D03*
X-116332Y379476D03*
X-51308Y379476D03*
D14*
X-25400Y595600D03*
X-25400Y419100D03*
D15*
X-128270Y406400D03*
X-153670Y406400D03*
X-179070Y406400D03*
X-204470Y406400D03*
X-229870Y406400D03*
X-255270Y406400D03*
X-280670Y406400D03*
X-306070Y406400D03*
D13*
X-259588Y594106D03*
X-324612Y594106D03*
X-259588Y548894D03*
X-324612Y548894D03*
X-101600Y584200D03*
X-114300Y603250D03*
X-127000Y584200D03*
X-127000Y546100D03*
X-114300Y527050D03*
X-101600Y546100D03*
D12*
X-165100Y25400D03*
X-165100Y50800D03*
X-165100Y76200D03*
X-165100Y101600D03*
X-165100Y127000D03*
X-165100Y152400D03*
X-165100Y177800D03*
X-165100Y203200D03*
X-165100Y228600D03*
X-165100Y254000D03*
X-165100Y279400D03*
X-165100Y304800D03*
X-165100Y330200D03*
X-165100Y355600D03*
X-165100Y381000D03*
X-342900Y25400D03*
X-342900Y50800D03*
X-342900Y76200D03*
X-342900Y101600D03*
X-342900Y127000D03*
X-342900Y152400D03*
X-342900Y177800D03*
X-342900Y203200D03*
X-342900Y228600D03*
X-342900Y254000D03*
X-342900Y279400D03*
X-342900Y304800D03*
X-342900Y330200D03*
X-342900Y355600D03*
X-342900Y381000D03*
D16*
X-165100Y508000D03*
X-304800Y520700D03*
X-240030Y504190D03*
X0Y342900D03*
M02*
