M48
;GenerationSoftware,Autodesk,EAGLE,9.0.1*%
;CreationDate,2018-06-02T08:45:52Z*%
FMAT,2
ICI,OFF
METRIC,TZ,0000.0000
T5C0.8000
T4C0.8128
T3C1.0160
T2C2.5000
T1C3.2000
%
G90
M71
T1
X-24260Y676440
X-396040Y654050
X-469400Y253700
X-469520Y23570
T2
X-25400Y595600
X-25400Y419100
T3
X-25400Y101600
X-342900Y304800
X-342900Y330200
X-342900Y355600
X-25400Y25400
X-25400Y50800
X-25400Y76200
X-139700Y127000
X-25400Y127000
X-25400Y152400
X-25400Y177800
X-25400Y203200
X-25400Y228600
X-25400Y254000
X-25400Y279400
X-25400Y304800
X-139700Y25400
X-139700Y50800
X-139700Y76200
X-139700Y101600
X-342900Y381000
X-139700Y152400
X-139700Y177800
X-139700Y203200
X-139700Y228600
X-139700Y254000
X-139700Y279400
X-139700Y304800
X-139700Y330200
X-139700Y355600
X-139700Y381000
X-317500Y25400
X-317500Y50800
X-317500Y76200
X-317500Y101600
X-317500Y127000
X-317500Y152400
X-317500Y177800
X-317500Y203200
X-317500Y228600
X-317500Y254000
X-317500Y279400
X-317500Y304800
X-317500Y330200
X-317500Y355600
X-317500Y381000
X-116332Y334264
X-51308Y334264
X-116332Y379476
X-51308Y379476
X-259588Y594106
X-324612Y594106
X-259588Y548894
X-324612Y548894
X-165100Y25400
X-165100Y50800
X-165100Y76200
X-165100Y101600
X-165100Y127000
X-165100Y152400
X-165100Y177800
X-165100Y203200
X-165100Y228600
X-165100Y254000
X-165100Y279400
X-165100Y304800
X-165100Y330200
X-165100Y355600
X-165100Y381000
X-342900Y25400
X-342900Y50800
X-342900Y76200
X-342900Y101600
X-342900Y127000
X-342900Y152400
X-342900Y177800
X-342900Y203200
X-342900Y228600
X-342900Y254000
X-342900Y279400
T4
X-101600Y584200
X-114300Y603250
X-127000Y584200
X-127000Y546100
X-114300Y527050
X-101600Y546100
T5
X-304800Y520700
X-240030Y504190
X0Y342900
X-165100Y508000
X-280670Y406400
X-306070Y406400
X-128270Y406400
X-153670Y406400
X-179070Y406400
X-204470Y406400
X-229870Y406400
X-255270Y406400
M30