G04 EAGLE Gerber X2 export*
G04 #@! %TF.Part,Single*
G04 #@! %TF.FileFunction,Soldermask,Top*
G04 #@! %TF.FilePolarity,Negative*
G04 #@! %TF.GenerationSoftware,Autodesk,EAGLE,9.0.1*
G04 #@! %TF.CreationDate,2018-06-09T17:57:24Z*
G75*
%MOMM*%
%FSLAX44Y44*%
%LPD*%
%AMOC8*
5,1,8,0,0,1.08239X$1,22.5*%
G01*
%ADD10C,3.403200*%
%ADD11P,1.979475X8X202.500000*%
%ADD12P,1.979475X8X22.500000*%
%ADD13R,1.303200X1.203200*%
%ADD14R,1.203200X1.303200*%
%ADD15C,2.082800*%
%ADD16C,2.133600*%
%ADD17C,3.203200*%
%ADD18P,2.199416X8X202.500000*%
%ADD19C,1.816000*%
%ADD20C,2.016000*%
%ADD21P,2.182098X8X22.500000*%
%ADD22R,0.838200X1.473200*%
%ADD23C,1.828800*%
%ADD24P,2.556822X8X112.500000*%
%ADD25R,1.816000X1.816000*%


D10*
X27000Y673000D03*
X673000Y673000D03*
X25655Y253635D03*
X253703Y253747D03*
X400000Y250000D03*
X600000Y550000D03*
D11*
X546100Y546100D03*
X520700Y546100D03*
D12*
X322559Y679627D03*
X347959Y679627D03*
D13*
X292100Y524900D03*
X292100Y541900D03*
X292100Y436000D03*
X292100Y453000D03*
X292100Y347100D03*
X292100Y364100D03*
X292100Y270900D03*
X292100Y287900D03*
D14*
X213895Y676910D03*
X230895Y676910D03*
X131200Y676910D03*
X148200Y676910D03*
D13*
X59690Y645941D03*
X59690Y662941D03*
D15*
X23368Y619506D03*
X88392Y619506D03*
X23368Y574294D03*
X88392Y574294D03*
X23368Y352806D03*
X88392Y352806D03*
X23368Y307594D03*
X88392Y307594D03*
X112268Y352806D03*
X177292Y352806D03*
X112268Y307594D03*
X177292Y307594D03*
X201168Y352806D03*
X266192Y352806D03*
X201168Y307594D03*
X266192Y307594D03*
X112268Y619506D03*
X177292Y619506D03*
X112268Y574294D03*
X177292Y574294D03*
X201168Y619506D03*
X266192Y619506D03*
X201168Y574294D03*
X266192Y574294D03*
X23368Y530606D03*
X88392Y530606D03*
X23368Y485394D03*
X88392Y485394D03*
X112268Y530606D03*
X177292Y530606D03*
X112268Y485394D03*
X177292Y485394D03*
X201168Y530606D03*
X266192Y530606D03*
X201168Y485394D03*
X266192Y485394D03*
X23368Y441706D03*
X88392Y441706D03*
X23368Y396494D03*
X88392Y396494D03*
X112268Y441706D03*
X177292Y441706D03*
X112268Y396494D03*
X177292Y396494D03*
X201168Y441706D03*
X266192Y441706D03*
X201168Y396494D03*
X266192Y396494D03*
D16*
X177800Y262000D03*
X152400Y262000D03*
X127000Y262000D03*
X101600Y262000D03*
D10*
X25700Y253700D03*
D17*
X25700Y23700D03*
X253700Y23700D03*
D10*
X253700Y253700D03*
D16*
X373617Y50800D03*
X373617Y76200D03*
X373617Y101600D03*
X373617Y152400D03*
X373617Y127000D03*
X373617Y177800D03*
X20017Y76200D03*
X20017Y127000D03*
X20017Y101600D03*
X20017Y152400D03*
D18*
X495300Y673100D03*
X558800Y673100D03*
D19*
X406400Y457200D03*
X355600Y431800D03*
X355600Y482600D03*
X406400Y546100D03*
X355600Y520700D03*
X355600Y571500D03*
X533400Y622300D03*
X558800Y571500D03*
X508000Y571500D03*
D15*
X426212Y307594D03*
X361188Y307594D03*
X426212Y352806D03*
X361188Y352806D03*
D20*
X673100Y240030D03*
X673100Y214630D03*
X673100Y189230D03*
X673100Y163830D03*
X673100Y138430D03*
X673100Y113030D03*
X673100Y87630D03*
X673100Y62230D03*
X609600Y127000D03*
X609600Y152400D03*
X609600Y177800D03*
X609600Y203200D03*
X609600Y228600D03*
X609600Y254000D03*
X609600Y101600D03*
X609600Y76200D03*
X609600Y50800D03*
X609600Y330200D03*
X609600Y355600D03*
X609600Y381000D03*
X609600Y406400D03*
X609600Y304800D03*
X609600Y279400D03*
X457200Y127000D03*
X457200Y152400D03*
X457200Y177800D03*
X457200Y203200D03*
X457200Y228600D03*
X457200Y254000D03*
X457200Y101600D03*
X457200Y76200D03*
X457200Y50800D03*
X457200Y330200D03*
X457200Y355600D03*
X457200Y381000D03*
X457200Y406400D03*
X457200Y304800D03*
X457200Y279400D03*
D21*
X507746Y405384D03*
X507746Y430784D03*
X533146Y405384D03*
X533146Y430784D03*
X558546Y405384D03*
X558546Y430784D03*
D22*
X512826Y84836D03*
X522732Y84836D03*
X532892Y84836D03*
X542544Y84836D03*
X552704Y84836D03*
D11*
X676400Y520700D03*
X645160Y520700D03*
D23*
X676400Y495300D03*
X676400Y546100D03*
X644400Y546100D03*
X644400Y495300D03*
D24*
X673100Y609600D03*
X635000Y609600D03*
D25*
X266192Y666750D03*
X241300Y555498D03*
X241300Y594614D03*
X241300Y466598D03*
X241300Y505714D03*
X241300Y377698D03*
X241300Y416814D03*
X558800Y622300D03*
X533400Y673100D03*
X419100Y101600D03*
X177800Y215900D03*
X584200Y241300D03*
X152400Y208583D03*
X177292Y676910D03*
X152400Y594614D03*
X152400Y555498D03*
X152400Y505714D03*
X152400Y466598D03*
X152400Y416814D03*
X152400Y377698D03*
X63500Y555498D03*
X63500Y594614D03*
X63500Y505714D03*
X63500Y466598D03*
X63500Y416814D03*
X63500Y377698D03*
X101600Y676910D03*
X292100Y574294D03*
X292100Y485394D03*
X292100Y396494D03*
X292100Y307594D03*
X482600Y241300D03*
X533400Y596900D03*
X584200Y393700D03*
X482600Y215900D03*
X345776Y383876D03*
X127000Y233983D03*
D19*
X139189Y281175D03*
M02*
