G04 EAGLE Gerber X2 export*
G04 #@! %TF.Part,Single*
G04 #@! %TF.FileFunction,Copper,L16,Bot,Mixed*
G04 #@! %TF.FilePolarity,Positive*
G04 #@! %TF.GenerationSoftware,Autodesk,EAGLE,9.0.1*
G04 #@! %TF.CreationDate,2018-06-09T17:57:24Z*
G75*
%MOMM*%
%FSLAX44Y44*%
%LPD*%
%AMOC8*
5,1,8,0,0,1.08239X$1,22.5*%
G01*
%ADD10P,1.759533X8X202.500000*%
%ADD11P,1.759533X8X22.500000*%
%ADD12C,1.879600*%
%ADD13C,1.930400*%
%ADD14P,1.979475X8X202.500000*%
%ADD15C,0.127000*%
%ADD16C,1.612800*%
%ADD17C,1.812800*%
%ADD18P,1.962157X8X22.500000*%
%ADD19C,1.625600*%
%ADD20P,2.336880X8X112.500000*%
%ADD21C,0.254000*%
%ADD22R,1.612800X1.612800*%

G36*
X229901Y10169D02*
X229901Y10169D01*
X229976Y10168D01*
X230073Y10189D01*
X230172Y10201D01*
X230243Y10226D01*
X230317Y10242D01*
X230406Y10285D01*
X230500Y10318D01*
X230563Y10359D01*
X230632Y10392D01*
X230709Y10453D01*
X230793Y10507D01*
X230845Y10562D01*
X230904Y10609D01*
X230966Y10687D01*
X231035Y10758D01*
X231074Y10823D01*
X231121Y10882D01*
X231163Y10972D01*
X231214Y11057D01*
X231237Y11129D01*
X231269Y11198D01*
X231290Y11294D01*
X231320Y11389D01*
X231326Y11464D01*
X231342Y11538D01*
X231340Y11638D01*
X231348Y11736D01*
X231337Y11811D01*
X231335Y11887D01*
X231311Y11983D01*
X231296Y12081D01*
X231268Y12151D01*
X231250Y12225D01*
X231185Y12361D01*
X231167Y12405D01*
X231157Y12420D01*
X231145Y12446D01*
X230254Y13988D01*
X228539Y20388D01*
X228539Y27012D01*
X230254Y33412D01*
X233566Y39149D01*
X238251Y43834D01*
X243988Y47146D01*
X250388Y48861D01*
X257012Y48861D01*
X263412Y47146D01*
X269149Y43834D01*
X273834Y39149D01*
X277146Y33412D01*
X278861Y27012D01*
X278861Y20388D01*
X277146Y13988D01*
X276255Y12446D01*
X276225Y12376D01*
X276186Y12311D01*
X276156Y12217D01*
X276117Y12126D01*
X276103Y12051D01*
X276080Y11979D01*
X276072Y11880D01*
X276055Y11783D01*
X276058Y11707D01*
X276052Y11632D01*
X276067Y11534D01*
X276072Y11435D01*
X276093Y11362D01*
X276104Y11287D01*
X276140Y11195D01*
X276168Y11100D01*
X276205Y11034D01*
X276233Y10963D01*
X276289Y10882D01*
X276337Y10795D01*
X276388Y10739D01*
X276432Y10677D01*
X276505Y10611D01*
X276572Y10537D01*
X276634Y10494D01*
X276690Y10444D01*
X276777Y10396D01*
X276859Y10339D01*
X276929Y10312D01*
X276995Y10275D01*
X277091Y10248D01*
X277183Y10212D01*
X277258Y10201D01*
X277331Y10180D01*
X277481Y10168D01*
X277528Y10161D01*
X277546Y10163D01*
X277575Y10161D01*
X673000Y10161D01*
X673036Y10165D01*
X673100Y10164D01*
X675099Y10295D01*
X675126Y10300D01*
X675153Y10300D01*
X675393Y10344D01*
X679255Y11379D01*
X679327Y11407D01*
X679402Y11426D01*
X679536Y11489D01*
X679580Y11507D01*
X679596Y11518D01*
X679623Y11531D01*
X683085Y13530D01*
X683147Y13576D01*
X683215Y13613D01*
X683327Y13709D01*
X683365Y13737D01*
X683378Y13752D01*
X683401Y13772D01*
X686228Y16599D01*
X686276Y16659D01*
X686331Y16713D01*
X686415Y16835D01*
X686445Y16872D01*
X686453Y16890D01*
X686470Y16915D01*
X688469Y20377D01*
X688500Y20448D01*
X688539Y20514D01*
X688589Y20653D01*
X688608Y20697D01*
X688611Y20716D01*
X688621Y20745D01*
X689656Y24607D01*
X689660Y24634D01*
X689669Y24659D01*
X689705Y24901D01*
X689836Y26900D01*
X689834Y26937D01*
X689839Y27000D01*
X689839Y48104D01*
X689828Y48204D01*
X689826Y48304D01*
X689808Y48376D01*
X689799Y48450D01*
X689766Y48545D01*
X689741Y48642D01*
X689707Y48708D01*
X689682Y48778D01*
X689627Y48863D01*
X689581Y48952D01*
X689533Y49009D01*
X689493Y49071D01*
X689421Y49141D01*
X689356Y49217D01*
X689296Y49262D01*
X689242Y49313D01*
X689156Y49365D01*
X689075Y49424D01*
X689007Y49454D01*
X688943Y49492D01*
X688847Y49523D01*
X688755Y49562D01*
X688682Y49576D01*
X688611Y49598D01*
X688511Y49606D01*
X688412Y49624D01*
X688338Y49620D01*
X688264Y49626D01*
X688164Y49611D01*
X688064Y49606D01*
X687993Y49586D01*
X687919Y49575D01*
X687826Y49538D01*
X687729Y49510D01*
X687664Y49473D01*
X687595Y49446D01*
X687513Y49389D01*
X687425Y49340D01*
X687349Y49274D01*
X687309Y49247D01*
X687285Y49220D01*
X687239Y49181D01*
X683990Y45932D01*
X676924Y43005D01*
X669276Y43005D01*
X662210Y45932D01*
X656802Y51340D01*
X653875Y58406D01*
X653875Y66054D01*
X656802Y73120D01*
X662210Y78528D01*
X662853Y78794D01*
X662880Y78809D01*
X662910Y78819D01*
X663032Y78894D01*
X663158Y78964D01*
X663181Y78984D01*
X663207Y79001D01*
X663309Y79101D01*
X663416Y79198D01*
X663433Y79223D01*
X663456Y79245D01*
X663532Y79366D01*
X663614Y79484D01*
X663625Y79513D01*
X663642Y79540D01*
X663689Y79675D01*
X663742Y79809D01*
X663746Y79839D01*
X663756Y79869D01*
X663772Y80011D01*
X663793Y80153D01*
X663790Y80184D01*
X663793Y80215D01*
X663776Y80357D01*
X663764Y80501D01*
X663754Y80530D01*
X663750Y80561D01*
X663701Y80695D01*
X663657Y80832D01*
X663640Y80859D01*
X663630Y80888D01*
X663502Y81097D01*
X663175Y81548D01*
X662345Y83175D01*
X661781Y84913D01*
X661746Y85131D01*
X672124Y85131D01*
X672150Y85134D01*
X672176Y85132D01*
X672323Y85154D01*
X672470Y85171D01*
X672495Y85179D01*
X672521Y85183D01*
X672658Y85238D01*
X672798Y85288D01*
X672820Y85302D01*
X672845Y85312D01*
X672966Y85397D01*
X673091Y85477D01*
X673109Y85496D01*
X673131Y85511D01*
X673230Y85621D01*
X673333Y85728D01*
X673347Y85750D01*
X673364Y85770D01*
X673436Y85900D01*
X673512Y86027D01*
X673520Y86052D01*
X673533Y86075D01*
X673573Y86218D01*
X673618Y86359D01*
X673620Y86385D01*
X673627Y86410D01*
X673647Y86654D01*
X673647Y88606D01*
X673644Y88632D01*
X673646Y88658D01*
X673624Y88805D01*
X673607Y88952D01*
X673598Y88977D01*
X673594Y89003D01*
X673540Y89141D01*
X673490Y89280D01*
X673475Y89302D01*
X673466Y89327D01*
X673381Y89448D01*
X673301Y89573D01*
X673282Y89591D01*
X673267Y89613D01*
X673157Y89712D01*
X673050Y89815D01*
X673027Y89829D01*
X673008Y89846D01*
X672878Y89918D01*
X672751Y89994D01*
X672726Y90002D01*
X672703Y90015D01*
X672560Y90055D01*
X672419Y90100D01*
X672393Y90102D01*
X672368Y90110D01*
X672124Y90129D01*
X661746Y90129D01*
X661781Y90347D01*
X662345Y92085D01*
X663175Y93712D01*
X663502Y94163D01*
X663518Y94190D01*
X663538Y94214D01*
X663603Y94342D01*
X663674Y94467D01*
X663682Y94496D01*
X663697Y94524D01*
X663731Y94664D01*
X663771Y94801D01*
X663773Y94832D01*
X663781Y94862D01*
X663783Y95005D01*
X663791Y95149D01*
X663785Y95180D01*
X663786Y95211D01*
X663755Y95351D01*
X663730Y95492D01*
X663718Y95521D01*
X663711Y95551D01*
X663650Y95681D01*
X663593Y95813D01*
X663575Y95838D01*
X663562Y95866D01*
X663472Y95978D01*
X663387Y96094D01*
X663364Y96114D01*
X663344Y96138D01*
X663232Y96227D01*
X663123Y96321D01*
X663095Y96335D01*
X663071Y96354D01*
X662853Y96466D01*
X662210Y96732D01*
X656802Y102140D01*
X653875Y109206D01*
X653875Y116854D01*
X656802Y123920D01*
X662210Y129328D01*
X662853Y129594D01*
X662880Y129609D01*
X662910Y129619D01*
X663032Y129694D01*
X663158Y129764D01*
X663181Y129784D01*
X663207Y129801D01*
X663309Y129901D01*
X663416Y129998D01*
X663433Y130023D01*
X663456Y130045D01*
X663532Y130166D01*
X663614Y130284D01*
X663625Y130313D01*
X663642Y130340D01*
X663689Y130475D01*
X663742Y130609D01*
X663746Y130639D01*
X663756Y130669D01*
X663772Y130811D01*
X663793Y130953D01*
X663790Y130984D01*
X663793Y131015D01*
X663776Y131157D01*
X663764Y131301D01*
X663754Y131330D01*
X663750Y131361D01*
X663701Y131495D01*
X663657Y131632D01*
X663640Y131659D01*
X663630Y131688D01*
X663502Y131897D01*
X663175Y132348D01*
X662345Y133975D01*
X661781Y135712D01*
X661743Y135950D01*
X661715Y136051D01*
X661696Y136155D01*
X661669Y136219D01*
X661650Y136286D01*
X661599Y136378D01*
X661557Y136475D01*
X661516Y136530D01*
X661483Y136591D01*
X661412Y136670D01*
X661350Y136754D01*
X661296Y136799D01*
X661250Y136851D01*
X661164Y136911D01*
X661084Y136979D01*
X661022Y137011D01*
X660965Y137051D01*
X660867Y137090D01*
X660773Y137138D01*
X660706Y137155D01*
X660641Y137181D01*
X660537Y137197D01*
X660435Y137222D01*
X660366Y137223D01*
X660297Y137234D01*
X660192Y137226D01*
X660087Y137227D01*
X660019Y137213D01*
X659949Y137207D01*
X659849Y137176D01*
X659746Y137153D01*
X659683Y137123D01*
X659617Y137102D01*
X659527Y137049D01*
X659431Y137003D01*
X659377Y136960D01*
X659317Y136925D01*
X659241Y136852D01*
X659159Y136786D01*
X659116Y136731D01*
X659066Y136683D01*
X659008Y136595D01*
X658943Y136512D01*
X658901Y136430D01*
X658876Y136391D01*
X658863Y136355D01*
X658832Y136295D01*
X657680Y133514D01*
X641475Y117310D01*
X637274Y115569D01*
X626496Y115569D01*
X626396Y115558D01*
X626296Y115556D01*
X626224Y115538D01*
X626150Y115529D01*
X626055Y115496D01*
X625958Y115471D01*
X625892Y115437D01*
X625822Y115412D01*
X625737Y115357D01*
X625648Y115311D01*
X625591Y115263D01*
X625529Y115223D01*
X625459Y115151D01*
X625383Y115086D01*
X625338Y115026D01*
X625287Y114972D01*
X625235Y114886D01*
X625176Y114805D01*
X625146Y114737D01*
X625108Y114673D01*
X625077Y114578D01*
X625037Y114485D01*
X625024Y114412D01*
X625002Y114341D01*
X624994Y114241D01*
X624976Y114142D01*
X624980Y114068D01*
X624974Y113994D01*
X624989Y113895D01*
X624994Y113794D01*
X625014Y113723D01*
X625025Y113649D01*
X625063Y113556D01*
X625090Y113459D01*
X625127Y113394D01*
X625154Y113325D01*
X625211Y113243D01*
X625260Y113155D01*
X625326Y113079D01*
X625353Y113039D01*
X625380Y113015D01*
X625419Y112969D01*
X625898Y112490D01*
X628825Y105424D01*
X628825Y97776D01*
X625898Y90710D01*
X625165Y89977D01*
X625149Y89957D01*
X625129Y89940D01*
X625041Y89821D01*
X624948Y89704D01*
X624937Y89680D01*
X624922Y89659D01*
X624863Y89523D01*
X624799Y89389D01*
X624794Y89363D01*
X624784Y89339D01*
X624757Y89193D01*
X624726Y89048D01*
X624727Y89022D01*
X624722Y88996D01*
X624730Y88848D01*
X624732Y88700D01*
X624738Y88674D01*
X624740Y88648D01*
X624781Y88506D01*
X624817Y88362D01*
X624829Y88339D01*
X624836Y88313D01*
X624909Y88184D01*
X624977Y88052D01*
X624994Y88032D01*
X625006Y88009D01*
X625165Y87823D01*
X625898Y87090D01*
X628825Y80024D01*
X628825Y72376D01*
X625898Y65310D01*
X625165Y64577D01*
X625149Y64557D01*
X625129Y64540D01*
X625041Y64421D01*
X624948Y64304D01*
X624937Y64280D01*
X624922Y64259D01*
X624863Y64123D01*
X624799Y63989D01*
X624794Y63963D01*
X624784Y63939D01*
X624757Y63793D01*
X624726Y63648D01*
X624727Y63622D01*
X624722Y63596D01*
X624730Y63448D01*
X624732Y63300D01*
X624738Y63274D01*
X624740Y63248D01*
X624781Y63106D01*
X624817Y62962D01*
X624829Y62939D01*
X624836Y62913D01*
X624909Y62784D01*
X624977Y62652D01*
X624994Y62632D01*
X625006Y62609D01*
X625114Y62483D01*
X625125Y62468D01*
X625135Y62458D01*
X625165Y62423D01*
X625898Y61690D01*
X628825Y54624D01*
X628825Y46976D01*
X625898Y39910D01*
X620490Y34502D01*
X613424Y31575D01*
X605776Y31575D01*
X598710Y34502D01*
X593302Y39910D01*
X593054Y40510D01*
X592981Y40641D01*
X592912Y40775D01*
X592896Y40793D01*
X592884Y40814D01*
X592783Y40926D01*
X592686Y41040D01*
X592667Y41054D01*
X592650Y41072D01*
X592527Y41158D01*
X592406Y41247D01*
X592383Y41257D01*
X592364Y41271D01*
X592224Y41326D01*
X592086Y41385D01*
X592062Y41390D01*
X592039Y41398D01*
X591891Y41420D01*
X591743Y41447D01*
X591719Y41446D01*
X591695Y41449D01*
X591544Y41437D01*
X591395Y41429D01*
X591371Y41422D01*
X591347Y41420D01*
X591204Y41374D01*
X591060Y41332D01*
X591039Y41321D01*
X591016Y41313D01*
X590887Y41236D01*
X590756Y41162D01*
X590733Y41143D01*
X590717Y41134D01*
X590683Y41101D01*
X590569Y41004D01*
X565275Y15710D01*
X561074Y13969D01*
X442226Y13969D01*
X438025Y15710D01*
X409410Y44325D01*
X407669Y48526D01*
X407669Y82915D01*
X407661Y82991D01*
X407662Y83067D01*
X407641Y83163D01*
X407629Y83261D01*
X407604Y83333D01*
X407587Y83408D01*
X407545Y83496D01*
X407512Y83589D01*
X407470Y83654D01*
X407438Y83722D01*
X407376Y83799D01*
X407323Y83882D01*
X407268Y83935D01*
X407220Y83995D01*
X407143Y84056D01*
X407072Y84124D01*
X407007Y84163D01*
X406947Y84211D01*
X406814Y84279D01*
X406773Y84303D01*
X406755Y84309D01*
X406729Y84322D01*
X405280Y84922D01*
X402422Y87780D01*
X400875Y91515D01*
X400875Y111685D01*
X402422Y115420D01*
X405280Y118278D01*
X409015Y119825D01*
X429185Y119825D01*
X432920Y118278D01*
X435778Y115420D01*
X437325Y111685D01*
X437325Y111511D01*
X437330Y111461D01*
X437328Y111411D01*
X437350Y111289D01*
X437365Y111165D01*
X437382Y111118D01*
X437391Y111068D01*
X437440Y110954D01*
X437482Y110837D01*
X437509Y110795D01*
X437529Y110749D01*
X437604Y110649D01*
X437671Y110544D01*
X437707Y110509D01*
X437737Y110469D01*
X437832Y110389D01*
X437922Y110302D01*
X437965Y110276D01*
X438003Y110244D01*
X438114Y110187D01*
X438221Y110123D01*
X438269Y110108D01*
X438314Y110085D01*
X438434Y110055D01*
X438553Y110017D01*
X438603Y110013D01*
X438652Y110001D01*
X438776Y109999D01*
X438900Y109989D01*
X438950Y109996D01*
X439000Y109996D01*
X439122Y110022D01*
X439245Y110041D01*
X439292Y110059D01*
X439341Y110070D01*
X439453Y110123D01*
X439569Y110169D01*
X439610Y110198D01*
X439656Y110220D01*
X439753Y110297D01*
X439855Y110368D01*
X439889Y110406D01*
X439928Y110437D01*
X440005Y110535D01*
X440088Y110627D01*
X440113Y110671D01*
X440144Y110711D01*
X440255Y110928D01*
X440902Y112490D01*
X441635Y113223D01*
X441651Y113243D01*
X441671Y113260D01*
X441760Y113380D01*
X441852Y113496D01*
X441863Y113520D01*
X441878Y113541D01*
X441937Y113677D01*
X442001Y113811D01*
X442006Y113837D01*
X442016Y113861D01*
X442043Y114007D01*
X442074Y114152D01*
X442073Y114178D01*
X442078Y114204D01*
X442070Y114352D01*
X442068Y114500D01*
X442062Y114526D01*
X442060Y114552D01*
X442019Y114694D01*
X441983Y114838D01*
X441971Y114862D01*
X441964Y114887D01*
X441891Y115016D01*
X441823Y115148D01*
X441806Y115168D01*
X441794Y115191D01*
X441635Y115377D01*
X440902Y116110D01*
X437975Y123176D01*
X437975Y130824D01*
X440902Y137890D01*
X441635Y138623D01*
X441651Y138643D01*
X441671Y138660D01*
X441759Y138779D01*
X441852Y138896D01*
X441863Y138920D01*
X441878Y138941D01*
X441937Y139077D01*
X442001Y139211D01*
X442006Y139237D01*
X442016Y139261D01*
X442043Y139407D01*
X442074Y139552D01*
X442073Y139578D01*
X442078Y139604D01*
X442071Y139751D01*
X442068Y139900D01*
X442062Y139926D01*
X442060Y139952D01*
X442019Y140094D01*
X441983Y140238D01*
X441971Y140261D01*
X441964Y140287D01*
X441891Y140416D01*
X441823Y140548D01*
X441806Y140568D01*
X441794Y140591D01*
X441635Y140777D01*
X440902Y141510D01*
X437975Y148576D01*
X437975Y156224D01*
X440902Y163290D01*
X441635Y164023D01*
X441651Y164043D01*
X441671Y164060D01*
X441759Y164179D01*
X441852Y164296D01*
X441863Y164320D01*
X441878Y164341D01*
X441937Y164477D01*
X442001Y164611D01*
X442006Y164637D01*
X442016Y164661D01*
X442043Y164807D01*
X442074Y164952D01*
X442073Y164978D01*
X442078Y165004D01*
X442070Y165152D01*
X442068Y165300D01*
X442062Y165326D01*
X442060Y165352D01*
X442019Y165494D01*
X441983Y165638D01*
X441971Y165661D01*
X441964Y165687D01*
X441891Y165816D01*
X441823Y165948D01*
X441806Y165968D01*
X441794Y165991D01*
X441635Y166177D01*
X440902Y166910D01*
X437975Y173976D01*
X437975Y181624D01*
X440902Y188690D01*
X441635Y189423D01*
X441651Y189443D01*
X441671Y189460D01*
X441759Y189579D01*
X441852Y189696D01*
X441863Y189720D01*
X441878Y189741D01*
X441937Y189877D01*
X442001Y190011D01*
X442006Y190037D01*
X442016Y190061D01*
X442043Y190207D01*
X442074Y190352D01*
X442073Y190378D01*
X442078Y190404D01*
X442070Y190552D01*
X442068Y190700D01*
X442062Y190726D01*
X442060Y190752D01*
X442019Y190894D01*
X441983Y191038D01*
X441971Y191061D01*
X441964Y191087D01*
X441891Y191216D01*
X441823Y191348D01*
X441806Y191368D01*
X441794Y191391D01*
X441635Y191577D01*
X440902Y192310D01*
X437975Y199376D01*
X437975Y207024D01*
X440902Y214090D01*
X441635Y214823D01*
X441651Y214843D01*
X441671Y214860D01*
X441759Y214979D01*
X441852Y215096D01*
X441863Y215120D01*
X441878Y215141D01*
X441937Y215277D01*
X442001Y215411D01*
X442006Y215437D01*
X442016Y215461D01*
X442043Y215607D01*
X442074Y215752D01*
X442073Y215778D01*
X442078Y215804D01*
X442070Y215952D01*
X442068Y216100D01*
X442062Y216126D01*
X442060Y216152D01*
X442019Y216294D01*
X441983Y216438D01*
X441971Y216461D01*
X441964Y216487D01*
X441891Y216616D01*
X441823Y216748D01*
X441806Y216768D01*
X441794Y216791D01*
X441635Y216977D01*
X440902Y217710D01*
X437975Y224776D01*
X437975Y232424D01*
X440902Y239490D01*
X441635Y240223D01*
X441651Y240243D01*
X441671Y240260D01*
X441759Y240379D01*
X441852Y240496D01*
X441863Y240520D01*
X441878Y240541D01*
X441937Y240677D01*
X442001Y240811D01*
X442006Y240837D01*
X442016Y240861D01*
X442043Y241007D01*
X442074Y241152D01*
X442073Y241178D01*
X442078Y241204D01*
X442070Y241352D01*
X442068Y241500D01*
X442062Y241526D01*
X442060Y241552D01*
X442019Y241694D01*
X441983Y241838D01*
X441971Y241861D01*
X441964Y241887D01*
X441891Y242016D01*
X441823Y242148D01*
X441806Y242168D01*
X441794Y242191D01*
X441635Y242377D01*
X440902Y243110D01*
X437975Y250176D01*
X437975Y257824D01*
X440902Y264890D01*
X441635Y265623D01*
X441651Y265643D01*
X441671Y265660D01*
X441760Y265780D01*
X441852Y265896D01*
X441863Y265920D01*
X441878Y265941D01*
X441937Y266077D01*
X442001Y266211D01*
X442006Y266237D01*
X442016Y266261D01*
X442043Y266407D01*
X442074Y266552D01*
X442073Y266578D01*
X442078Y266604D01*
X442070Y266752D01*
X442068Y266900D01*
X442062Y266926D01*
X442060Y266952D01*
X442019Y267094D01*
X441983Y267238D01*
X441971Y267262D01*
X441964Y267287D01*
X441891Y267416D01*
X441823Y267548D01*
X441806Y267568D01*
X441794Y267591D01*
X441635Y267777D01*
X440902Y268510D01*
X437975Y275576D01*
X437975Y283224D01*
X440902Y290290D01*
X441635Y291023D01*
X441651Y291043D01*
X441671Y291060D01*
X441760Y291180D01*
X441852Y291296D01*
X441863Y291320D01*
X441878Y291341D01*
X441937Y291477D01*
X442001Y291611D01*
X442006Y291637D01*
X442016Y291661D01*
X442043Y291807D01*
X442074Y291952D01*
X442073Y291978D01*
X442078Y292004D01*
X442070Y292152D01*
X442068Y292300D01*
X442062Y292326D01*
X442060Y292352D01*
X442019Y292494D01*
X441983Y292638D01*
X441971Y292662D01*
X441964Y292687D01*
X441891Y292816D01*
X441823Y292948D01*
X441806Y292968D01*
X441794Y292991D01*
X441635Y293177D01*
X440902Y293910D01*
X438357Y300054D01*
X438311Y300137D01*
X438273Y300225D01*
X438226Y300289D01*
X438188Y300358D01*
X438124Y300429D01*
X438067Y300506D01*
X438007Y300558D01*
X437954Y300616D01*
X437875Y300671D01*
X437803Y300733D01*
X437732Y300770D01*
X437667Y300815D01*
X437578Y300850D01*
X437493Y300894D01*
X437417Y300913D01*
X437343Y300942D01*
X437248Y300956D01*
X437156Y300980D01*
X437077Y300982D01*
X436998Y300993D01*
X436903Y300985D01*
X436807Y300987D01*
X436730Y300971D01*
X436651Y300964D01*
X436560Y300935D01*
X436466Y300915D01*
X436395Y300882D01*
X436319Y300857D01*
X436237Y300808D01*
X436151Y300767D01*
X436088Y300718D01*
X436021Y300678D01*
X435952Y300611D01*
X435877Y300552D01*
X435806Y300469D01*
X435771Y300435D01*
X435753Y300407D01*
X435718Y300366D01*
X435318Y299816D01*
X433990Y298488D01*
X432469Y297383D01*
X430795Y296530D01*
X429008Y295949D01*
X428751Y295909D01*
X428751Y306578D01*
X428748Y306604D01*
X428750Y306630D01*
X428728Y306777D01*
X428711Y306924D01*
X428703Y306949D01*
X428699Y306975D01*
X428644Y307112D01*
X428594Y307252D01*
X428580Y307274D01*
X428570Y307299D01*
X428485Y307420D01*
X428405Y307545D01*
X428386Y307563D01*
X428371Y307585D01*
X428355Y307599D01*
X428437Y307684D01*
X428451Y307707D01*
X428468Y307726D01*
X428540Y307856D01*
X428616Y307983D01*
X428624Y308008D01*
X428637Y308031D01*
X428677Y308174D01*
X428722Y308315D01*
X428724Y308341D01*
X428732Y308366D01*
X428751Y308610D01*
X428751Y319279D01*
X429008Y319239D01*
X430795Y318658D01*
X432469Y317805D01*
X433990Y316700D01*
X435318Y315372D01*
X436423Y313851D01*
X436973Y312771D01*
X436996Y312737D01*
X437012Y312700D01*
X437092Y312592D01*
X437166Y312480D01*
X437196Y312453D01*
X437220Y312420D01*
X437322Y312333D01*
X437420Y312241D01*
X437455Y312221D01*
X437486Y312195D01*
X437605Y312134D01*
X437721Y312066D01*
X437760Y312055D01*
X437796Y312036D01*
X437927Y312004D01*
X438054Y311964D01*
X438095Y311962D01*
X438135Y311952D01*
X438269Y311950D01*
X438402Y311941D01*
X438442Y311947D01*
X438483Y311947D01*
X438614Y311975D01*
X438746Y311997D01*
X438784Y312012D01*
X438823Y312021D01*
X438944Y312078D01*
X439068Y312130D01*
X439102Y312153D01*
X439138Y312171D01*
X439243Y312254D01*
X439352Y312332D01*
X439379Y312363D01*
X439411Y312388D01*
X439494Y312493D01*
X439582Y312594D01*
X439601Y312630D01*
X439627Y312662D01*
X439738Y312879D01*
X440902Y315690D01*
X446310Y321098D01*
X446953Y321364D01*
X446980Y321379D01*
X447010Y321389D01*
X447132Y321464D01*
X447258Y321534D01*
X447281Y321554D01*
X447307Y321571D01*
X447409Y321671D01*
X447516Y321768D01*
X447533Y321793D01*
X447555Y321815D01*
X447632Y321936D01*
X447714Y322054D01*
X447725Y322083D01*
X447742Y322109D01*
X447789Y322245D01*
X447842Y322379D01*
X447846Y322409D01*
X447856Y322439D01*
X447872Y322581D01*
X447893Y322723D01*
X447890Y322754D01*
X447893Y322785D01*
X447876Y322927D01*
X447864Y323071D01*
X447854Y323100D01*
X447850Y323131D01*
X447801Y323266D01*
X447757Y323402D01*
X447740Y323429D01*
X447730Y323458D01*
X447602Y323667D01*
X447275Y324118D01*
X446445Y325745D01*
X445881Y327483D01*
X445846Y327701D01*
X456224Y327701D01*
X456250Y327704D01*
X456276Y327702D01*
X456423Y327724D01*
X456570Y327741D01*
X456595Y327749D01*
X456621Y327753D01*
X456758Y327808D01*
X456898Y327858D01*
X456920Y327872D01*
X456945Y327882D01*
X457066Y327967D01*
X457191Y328047D01*
X457203Y328060D01*
X457250Y328015D01*
X457273Y328001D01*
X457292Y327984D01*
X457422Y327912D01*
X457549Y327836D01*
X457574Y327828D01*
X457597Y327815D01*
X457740Y327775D01*
X457881Y327730D01*
X457907Y327727D01*
X457932Y327720D01*
X458176Y327701D01*
X468554Y327701D01*
X468519Y327483D01*
X467955Y325745D01*
X467125Y324118D01*
X466798Y323667D01*
X466782Y323640D01*
X466762Y323616D01*
X466697Y323488D01*
X466626Y323363D01*
X466618Y323334D01*
X466604Y323306D01*
X466569Y323167D01*
X466529Y323029D01*
X466527Y322998D01*
X466519Y322968D01*
X466517Y322824D01*
X466509Y322681D01*
X466515Y322650D01*
X466514Y322619D01*
X466545Y322478D01*
X466570Y322338D01*
X466582Y322309D01*
X466589Y322279D01*
X466650Y322149D01*
X466707Y322017D01*
X466725Y321992D01*
X466738Y321964D01*
X466828Y321852D01*
X466913Y321736D01*
X466936Y321716D01*
X466956Y321692D01*
X467069Y321602D01*
X467177Y321509D01*
X467205Y321495D01*
X467229Y321476D01*
X467447Y321364D01*
X468090Y321098D01*
X473498Y315690D01*
X476425Y308624D01*
X476425Y300976D01*
X473498Y293910D01*
X472765Y293177D01*
X472749Y293157D01*
X472729Y293140D01*
X472641Y293021D01*
X472548Y292904D01*
X472537Y292880D01*
X472522Y292859D01*
X472463Y292723D01*
X472399Y292589D01*
X472394Y292563D01*
X472384Y292539D01*
X472357Y292393D01*
X472326Y292248D01*
X472327Y292222D01*
X472322Y292196D01*
X472330Y292048D01*
X472332Y291900D01*
X472338Y291874D01*
X472340Y291848D01*
X472381Y291706D01*
X472417Y291562D01*
X472429Y291539D01*
X472436Y291513D01*
X472509Y291384D01*
X472577Y291252D01*
X472594Y291232D01*
X472606Y291209D01*
X472765Y291023D01*
X473498Y290290D01*
X476425Y283224D01*
X476425Y275576D01*
X473498Y268510D01*
X472765Y267777D01*
X472749Y267757D01*
X472729Y267740D01*
X472641Y267621D01*
X472548Y267504D01*
X472537Y267480D01*
X472522Y267459D01*
X472463Y267323D01*
X472399Y267189D01*
X472394Y267163D01*
X472384Y267139D01*
X472357Y266993D01*
X472326Y266848D01*
X472327Y266822D01*
X472322Y266796D01*
X472330Y266648D01*
X472332Y266500D01*
X472338Y266474D01*
X472340Y266448D01*
X472381Y266306D01*
X472417Y266162D01*
X472429Y266139D01*
X472436Y266113D01*
X472509Y265984D01*
X472577Y265852D01*
X472594Y265832D01*
X472606Y265809D01*
X472765Y265623D01*
X473498Y264890D01*
X475331Y260465D01*
X475368Y260398D01*
X475396Y260327D01*
X475452Y260246D01*
X475500Y260160D01*
X475551Y260104D01*
X475595Y260041D01*
X475668Y259975D01*
X475734Y259902D01*
X475797Y259859D01*
X475854Y259808D01*
X475940Y259760D01*
X476021Y259704D01*
X476092Y259676D01*
X476159Y259639D01*
X476254Y259612D01*
X476345Y259576D01*
X476421Y259565D01*
X476494Y259544D01*
X476643Y259532D01*
X476690Y259525D01*
X476709Y259527D01*
X476738Y259525D01*
X492685Y259525D01*
X496420Y257978D01*
X499278Y255120D01*
X500273Y252717D01*
X500346Y252586D01*
X500415Y252452D01*
X500431Y252434D01*
X500442Y252412D01*
X500543Y252301D01*
X500641Y252187D01*
X500660Y252172D01*
X500676Y252154D01*
X500800Y252069D01*
X500921Y251979D01*
X500943Y251970D01*
X500963Y251956D01*
X501103Y251901D01*
X501241Y251841D01*
X501265Y251837D01*
X501287Y251828D01*
X501436Y251806D01*
X501584Y251780D01*
X501608Y251781D01*
X501632Y251777D01*
X501782Y251790D01*
X501932Y251798D01*
X501955Y251804D01*
X501979Y251806D01*
X502123Y251853D01*
X502267Y251894D01*
X502288Y251906D01*
X502311Y251913D01*
X502440Y251991D01*
X502571Y252064D01*
X502593Y252083D01*
X502610Y252093D01*
X502644Y252126D01*
X502757Y252223D01*
X579657Y329123D01*
X579674Y329143D01*
X579694Y329160D01*
X579782Y329280D01*
X579874Y329396D01*
X579885Y329420D01*
X579901Y329441D01*
X579960Y329577D01*
X580023Y329711D01*
X580028Y329737D01*
X580039Y329761D01*
X580065Y329907D01*
X580096Y330052D01*
X580096Y330078D01*
X580101Y330104D01*
X580093Y330252D01*
X580090Y330400D01*
X580084Y330426D01*
X580083Y330452D01*
X580042Y330594D01*
X580005Y330738D01*
X579993Y330761D01*
X579986Y330787D01*
X579914Y330916D01*
X579846Y331048D01*
X579829Y331068D01*
X579816Y331091D01*
X579657Y331277D01*
X548856Y362079D01*
X547115Y366280D01*
X547115Y388488D01*
X547104Y388588D01*
X547102Y388688D01*
X547084Y388760D01*
X547075Y388834D01*
X547042Y388929D01*
X547017Y389026D01*
X546983Y389092D01*
X546958Y389162D01*
X546903Y389247D01*
X546857Y389336D01*
X546809Y389393D01*
X546769Y389455D01*
X546697Y389525D01*
X546632Y389601D01*
X546572Y389646D01*
X546518Y389697D01*
X546432Y389749D01*
X546351Y389809D01*
X546283Y389838D01*
X546219Y389876D01*
X546123Y389907D01*
X546031Y389947D01*
X545958Y389960D01*
X545887Y389982D01*
X545787Y389990D01*
X545688Y390008D01*
X545614Y390004D01*
X545540Y390010D01*
X545440Y389995D01*
X545340Y389990D01*
X545269Y389970D01*
X545195Y389959D01*
X545102Y389922D01*
X545005Y389894D01*
X544940Y389857D01*
X544871Y389830D01*
X544789Y389773D01*
X544701Y389724D01*
X544625Y389658D01*
X544585Y389631D01*
X544561Y389605D01*
X544515Y389565D01*
X541109Y386159D01*
X525183Y386159D01*
X516135Y395207D01*
X516114Y395224D01*
X516097Y395243D01*
X515978Y395332D01*
X515862Y395424D01*
X515838Y395435D01*
X515817Y395451D01*
X515681Y395509D01*
X515547Y395573D01*
X515521Y395578D01*
X515497Y395589D01*
X515351Y395615D01*
X515206Y395646D01*
X515180Y395646D01*
X515154Y395650D01*
X515006Y395643D01*
X514858Y395640D01*
X514832Y395634D01*
X514806Y395632D01*
X514664Y395591D01*
X514520Y395555D01*
X514496Y395543D01*
X514471Y395536D01*
X514342Y395463D01*
X514210Y395396D01*
X514190Y395379D01*
X514167Y395366D01*
X513981Y395207D01*
X512553Y393779D01*
X510245Y393779D01*
X510245Y404408D01*
X510242Y404434D01*
X510244Y404460D01*
X510222Y404607D01*
X510205Y404754D01*
X510197Y404779D01*
X510193Y404805D01*
X510138Y404942D01*
X510088Y405082D01*
X510074Y405104D01*
X510064Y405129D01*
X509979Y405250D01*
X509899Y405375D01*
X509880Y405393D01*
X509865Y405415D01*
X509755Y405514D01*
X509648Y405617D01*
X509626Y405631D01*
X509606Y405648D01*
X509476Y405720D01*
X509349Y405796D01*
X509324Y405804D01*
X509301Y405817D01*
X509158Y405857D01*
X509017Y405902D01*
X508991Y405904D01*
X508966Y405911D01*
X508722Y405931D01*
X508293Y405931D01*
X508293Y406360D01*
X508290Y406386D01*
X508292Y406412D01*
X508270Y406559D01*
X508253Y406706D01*
X508244Y406731D01*
X508240Y406757D01*
X508186Y406895D01*
X508136Y407034D01*
X508121Y407056D01*
X508112Y407081D01*
X508027Y407202D01*
X507947Y407327D01*
X507928Y407345D01*
X507913Y407367D01*
X507803Y407466D01*
X507696Y407569D01*
X507673Y407583D01*
X507654Y407600D01*
X507524Y407672D01*
X507397Y407748D01*
X507372Y407756D01*
X507349Y407769D01*
X507206Y407809D01*
X507065Y407854D01*
X507039Y407856D01*
X507014Y407864D01*
X506770Y407883D01*
X496141Y407883D01*
X496141Y410191D01*
X497569Y411619D01*
X497586Y411639D01*
X497605Y411656D01*
X497694Y411776D01*
X497786Y411892D01*
X497797Y411915D01*
X497813Y411937D01*
X497871Y412073D01*
X497935Y412207D01*
X497940Y412233D01*
X497951Y412257D01*
X497977Y412403D01*
X498008Y412548D01*
X498008Y412574D01*
X498012Y412600D01*
X498005Y412748D01*
X498002Y412896D01*
X497996Y412921D01*
X497994Y412948D01*
X497953Y413090D01*
X497917Y413234D01*
X497905Y413257D01*
X497898Y413283D01*
X497825Y413412D01*
X497758Y413544D01*
X497741Y413564D01*
X497728Y413587D01*
X497569Y413773D01*
X488521Y422821D01*
X488521Y438747D01*
X492943Y443169D01*
X493005Y443247D01*
X493075Y443320D01*
X493114Y443384D01*
X493160Y443442D01*
X493203Y443533D01*
X493254Y443619D01*
X493277Y443690D01*
X493309Y443757D01*
X493330Y443855D01*
X493360Y443951D01*
X493366Y444025D01*
X493382Y444098D01*
X493380Y444198D01*
X493388Y444298D01*
X493377Y444372D01*
X493376Y444446D01*
X493352Y444543D01*
X493337Y444643D01*
X493309Y444712D01*
X493291Y444784D01*
X493245Y444874D01*
X493208Y444967D01*
X493166Y445028D01*
X493131Y445094D01*
X493066Y445171D01*
X493009Y445253D01*
X492954Y445303D01*
X492906Y445359D01*
X492825Y445419D01*
X492750Y445486D01*
X492685Y445522D01*
X492625Y445567D01*
X492533Y445606D01*
X492445Y445655D01*
X492374Y445675D01*
X492305Y445705D01*
X492206Y445722D01*
X492110Y445750D01*
X492010Y445758D01*
X491962Y445766D01*
X491927Y445764D01*
X491866Y445769D01*
X421374Y445769D01*
X421248Y445755D01*
X421122Y445748D01*
X421076Y445735D01*
X421028Y445729D01*
X420909Y445687D01*
X420787Y445652D01*
X420745Y445628D01*
X420700Y445612D01*
X420593Y445543D01*
X420483Y445482D01*
X420437Y445442D01*
X420407Y445423D01*
X420373Y445388D01*
X420297Y445323D01*
X416724Y441750D01*
X410025Y438975D01*
X402775Y438975D01*
X396076Y441750D01*
X390950Y446876D01*
X388175Y453575D01*
X388175Y460825D01*
X390950Y467524D01*
X396076Y472650D01*
X402775Y475425D01*
X410025Y475425D01*
X416724Y472650D01*
X420297Y469077D01*
X420396Y468998D01*
X420490Y468914D01*
X420532Y468890D01*
X420570Y468860D01*
X420684Y468806D01*
X420795Y468745D01*
X420841Y468732D01*
X420885Y468711D01*
X421008Y468685D01*
X421130Y468650D01*
X421191Y468645D01*
X421226Y468638D01*
X421274Y468639D01*
X421374Y468631D01*
X485616Y468631D01*
X485716Y468642D01*
X485816Y468644D01*
X485889Y468662D01*
X485963Y468671D01*
X486057Y468704D01*
X486154Y468729D01*
X486221Y468763D01*
X486291Y468788D01*
X486375Y468843D01*
X486464Y468889D01*
X486521Y468937D01*
X486583Y468977D01*
X486653Y469049D01*
X486730Y469114D01*
X486774Y469174D01*
X486826Y469228D01*
X486877Y469314D01*
X486937Y469395D01*
X486966Y469463D01*
X487004Y469527D01*
X487035Y469623D01*
X487075Y469715D01*
X487088Y469788D01*
X487111Y469859D01*
X487119Y469959D01*
X487137Y470058D01*
X487133Y470132D01*
X487139Y470206D01*
X487124Y470306D01*
X487119Y470406D01*
X487098Y470477D01*
X487087Y470551D01*
X487050Y470644D01*
X487022Y470741D01*
X486986Y470806D01*
X486958Y470875D01*
X486901Y470957D01*
X486852Y471045D01*
X486787Y471121D01*
X486759Y471161D01*
X486736Y471182D01*
X486731Y471189D01*
X486723Y471197D01*
X486693Y471231D01*
X423701Y534223D01*
X423602Y534302D01*
X423508Y534386D01*
X423466Y534410D01*
X423428Y534440D01*
X423314Y534494D01*
X423203Y534555D01*
X423157Y534568D01*
X423113Y534589D01*
X422990Y534615D01*
X422868Y534650D01*
X422807Y534655D01*
X422773Y534662D01*
X422725Y534661D01*
X422624Y534669D01*
X421374Y534669D01*
X421248Y534655D01*
X421122Y534648D01*
X421076Y534635D01*
X421028Y534629D01*
X420909Y534587D01*
X420787Y534552D01*
X420745Y534528D01*
X420700Y534512D01*
X420593Y534443D01*
X420483Y534382D01*
X420437Y534342D01*
X420407Y534323D01*
X420373Y534288D01*
X420297Y534223D01*
X416724Y530650D01*
X410025Y527875D01*
X402775Y527875D01*
X396076Y530650D01*
X390950Y535776D01*
X388175Y542475D01*
X388175Y549725D01*
X390950Y556424D01*
X396076Y561550D01*
X402775Y564325D01*
X410025Y564325D01*
X416724Y561550D01*
X420297Y557977D01*
X420396Y557898D01*
X420490Y557814D01*
X420532Y557790D01*
X420570Y557760D01*
X420684Y557706D01*
X420795Y557645D01*
X420841Y557632D01*
X420885Y557611D01*
X421008Y557585D01*
X421130Y557550D01*
X421191Y557545D01*
X421226Y557538D01*
X421274Y557539D01*
X421374Y557531D01*
X430264Y557531D01*
X431001Y557225D01*
X431049Y557212D01*
X431095Y557190D01*
X431216Y557164D01*
X431336Y557130D01*
X431386Y557127D01*
X431435Y557117D01*
X431560Y557119D01*
X431684Y557113D01*
X431734Y557122D01*
X431784Y557123D01*
X431904Y557153D01*
X432027Y557175D01*
X432073Y557195D01*
X432122Y557208D01*
X432232Y557265D01*
X432346Y557314D01*
X432387Y557344D01*
X432432Y557367D01*
X432526Y557448D01*
X432626Y557522D01*
X432659Y557561D01*
X432697Y557593D01*
X432771Y557693D01*
X432851Y557788D01*
X432874Y557833D01*
X432904Y557873D01*
X432953Y557988D01*
X433010Y558098D01*
X433022Y558147D01*
X433042Y558194D01*
X433064Y558316D01*
X433094Y558437D01*
X433095Y558487D01*
X433104Y558537D01*
X433097Y558661D01*
X433099Y558785D01*
X433089Y558834D01*
X433086Y558885D01*
X433051Y559004D01*
X433025Y559126D01*
X433003Y559171D01*
X432989Y559219D01*
X432929Y559328D01*
X432875Y559440D01*
X432844Y559480D01*
X432819Y559524D01*
X432661Y559710D01*
X341698Y650672D01*
X338268Y654102D01*
X338154Y654379D01*
X338117Y654446D01*
X338088Y654517D01*
X338032Y654598D01*
X337984Y654684D01*
X337933Y654740D01*
X337889Y654803D01*
X337816Y654869D01*
X337750Y654942D01*
X337687Y654985D01*
X337631Y655036D01*
X337545Y655084D01*
X337464Y655140D01*
X337393Y655168D01*
X337326Y655205D01*
X337231Y655232D01*
X337139Y655268D01*
X337064Y655279D01*
X336990Y655300D01*
X336841Y655312D01*
X336795Y655319D01*
X336775Y655317D01*
X336746Y655319D01*
X284877Y655319D01*
X284801Y655311D01*
X284725Y655312D01*
X284629Y655291D01*
X284531Y655279D01*
X284459Y655254D01*
X284384Y655237D01*
X284296Y655195D01*
X284203Y655162D01*
X284138Y655120D01*
X284070Y655088D01*
X283993Y655026D01*
X283910Y654973D01*
X283857Y654918D01*
X283797Y654870D01*
X283736Y654793D01*
X283668Y654722D01*
X283629Y654657D01*
X283581Y654597D01*
X283513Y654464D01*
X283489Y654423D01*
X283483Y654405D01*
X283470Y654379D01*
X282870Y652930D01*
X280012Y650072D01*
X278563Y649472D01*
X278496Y649435D01*
X278425Y649407D01*
X278344Y649351D01*
X278258Y649303D01*
X278202Y649251D01*
X278139Y649208D01*
X278073Y649135D01*
X278000Y649069D01*
X277957Y649006D01*
X277906Y648949D01*
X277858Y648863D01*
X277802Y648782D01*
X277774Y648711D01*
X277737Y648644D01*
X277710Y648549D01*
X277674Y648458D01*
X277663Y648382D01*
X277642Y648309D01*
X277630Y648160D01*
X277623Y648113D01*
X277625Y648094D01*
X277623Y648065D01*
X277623Y636366D01*
X277637Y636241D01*
X277644Y636115D01*
X277657Y636068D01*
X277663Y636020D01*
X277705Y635901D01*
X277740Y635780D01*
X277764Y635738D01*
X277780Y635692D01*
X277849Y635586D01*
X277910Y635476D01*
X277950Y635429D01*
X277969Y635399D01*
X278004Y635366D01*
X278069Y635289D01*
X282773Y630585D01*
X285751Y623396D01*
X285751Y615616D01*
X282773Y608427D01*
X277271Y602925D01*
X270082Y599947D01*
X263430Y599947D01*
X263304Y599933D01*
X263178Y599926D01*
X263132Y599913D01*
X263084Y599907D01*
X262964Y599865D01*
X262843Y599830D01*
X262801Y599806D01*
X262755Y599790D01*
X262649Y599721D01*
X262539Y599660D01*
X262493Y599620D01*
X262463Y599601D01*
X262429Y599566D01*
X262353Y599501D01*
X259971Y597119D01*
X259892Y597020D01*
X259808Y596927D01*
X259784Y596884D01*
X259754Y596846D01*
X259700Y596732D01*
X259639Y596621D01*
X259626Y596575D01*
X259605Y596531D01*
X259579Y596408D01*
X259544Y596286D01*
X259539Y596225D01*
X259532Y596191D01*
X259533Y596143D01*
X259525Y596042D01*
X259525Y594982D01*
X259542Y594833D01*
X259554Y594683D01*
X259562Y594660D01*
X259565Y594636D01*
X259615Y594494D01*
X259662Y594351D01*
X259674Y594331D01*
X259682Y594308D01*
X259764Y594181D01*
X259841Y594053D01*
X259858Y594035D01*
X259871Y594015D01*
X259979Y593911D01*
X260084Y593803D01*
X260104Y593790D01*
X260122Y593773D01*
X260251Y593696D01*
X260377Y593615D01*
X260400Y593606D01*
X260421Y593594D01*
X260564Y593548D01*
X260706Y593498D01*
X260730Y593495D01*
X260753Y593488D01*
X260902Y593476D01*
X261052Y593459D01*
X261076Y593462D01*
X261100Y593460D01*
X261249Y593482D01*
X261398Y593500D01*
X261426Y593509D01*
X261445Y593512D01*
X261489Y593529D01*
X261631Y593575D01*
X262302Y593853D01*
X270082Y593853D01*
X277076Y590956D01*
X277198Y590921D01*
X277317Y590879D01*
X277365Y590873D01*
X277411Y590860D01*
X277537Y590854D01*
X277663Y590840D01*
X277711Y590846D01*
X277759Y590843D01*
X277884Y590866D01*
X278009Y590881D01*
X278067Y590899D01*
X278102Y590906D01*
X278146Y590925D01*
X278242Y590956D01*
X282015Y592519D01*
X302185Y592519D01*
X305920Y590972D01*
X308778Y588114D01*
X310325Y584379D01*
X310325Y564209D01*
X308778Y560474D01*
X305920Y557616D01*
X302185Y556069D01*
X282015Y556069D01*
X278242Y557632D01*
X278120Y557667D01*
X278001Y557709D01*
X277953Y557715D01*
X277907Y557728D01*
X277781Y557734D01*
X277655Y557748D01*
X277607Y557742D01*
X277559Y557745D01*
X277435Y557722D01*
X277309Y557707D01*
X277251Y557689D01*
X277216Y557682D01*
X277172Y557663D01*
X277076Y557632D01*
X270082Y554735D01*
X262260Y554735D01*
X262208Y554746D01*
X262088Y554781D01*
X262037Y554783D01*
X261988Y554794D01*
X261864Y554792D01*
X261740Y554798D01*
X261690Y554789D01*
X261640Y554788D01*
X261519Y554757D01*
X261397Y554735D01*
X261351Y554715D01*
X261302Y554703D01*
X261191Y554646D01*
X261077Y554596D01*
X261037Y554566D01*
X260992Y554543D01*
X260897Y554462D01*
X260798Y554388D01*
X260765Y554350D01*
X260727Y554317D01*
X260653Y554217D01*
X260572Y554122D01*
X260549Y554078D01*
X260519Y554037D01*
X260470Y553923D01*
X260414Y553812D01*
X260401Y553763D01*
X260381Y553717D01*
X260359Y553594D01*
X260329Y553474D01*
X260329Y553424D01*
X260320Y553374D01*
X260326Y553250D01*
X260324Y553126D01*
X260335Y553076D01*
X260338Y553026D01*
X260372Y552906D01*
X260399Y552785D01*
X260420Y552740D01*
X260434Y552691D01*
X260495Y552583D01*
X260548Y552470D01*
X260580Y552431D01*
X260604Y552387D01*
X260763Y552201D01*
X262353Y550611D01*
X262452Y550532D01*
X262545Y550448D01*
X262588Y550424D01*
X262626Y550394D01*
X262740Y550340D01*
X262851Y550279D01*
X262897Y550266D01*
X262941Y550245D01*
X263064Y550219D01*
X263186Y550184D01*
X263247Y550179D01*
X263281Y550172D01*
X263329Y550173D01*
X263430Y550165D01*
X270082Y550165D01*
X277271Y547187D01*
X282773Y541685D01*
X285751Y534496D01*
X285751Y526716D01*
X282773Y519527D01*
X277271Y514025D01*
X270082Y511047D01*
X263430Y511047D01*
X263304Y511033D01*
X263178Y511026D01*
X263131Y511013D01*
X263083Y511007D01*
X262965Y510965D01*
X262843Y510930D01*
X262801Y510906D01*
X262755Y510890D01*
X262649Y510821D01*
X262539Y510760D01*
X262493Y510720D01*
X262463Y510701D01*
X262429Y510666D01*
X262353Y510601D01*
X259971Y508219D01*
X259892Y508120D01*
X259808Y508027D01*
X259784Y507984D01*
X259754Y507946D01*
X259700Y507832D01*
X259639Y507721D01*
X259626Y507675D01*
X259605Y507631D01*
X259579Y507508D01*
X259544Y507386D01*
X259539Y507325D01*
X259532Y507291D01*
X259533Y507243D01*
X259525Y507142D01*
X259525Y506082D01*
X259542Y505933D01*
X259554Y505783D01*
X259562Y505760D01*
X259565Y505736D01*
X259615Y505594D01*
X259662Y505451D01*
X259674Y505431D01*
X259682Y505408D01*
X259764Y505281D01*
X259841Y505153D01*
X259858Y505135D01*
X259871Y505115D01*
X259979Y505011D01*
X260084Y504903D01*
X260104Y504890D01*
X260122Y504873D01*
X260251Y504796D01*
X260377Y504715D01*
X260400Y504706D01*
X260421Y504694D01*
X260564Y504648D01*
X260706Y504598D01*
X260730Y504595D01*
X260753Y504588D01*
X260902Y504576D01*
X261052Y504559D01*
X261076Y504562D01*
X261100Y504560D01*
X261249Y504582D01*
X261398Y504600D01*
X261426Y504609D01*
X261445Y504612D01*
X261489Y504629D01*
X261631Y504675D01*
X262302Y504953D01*
X270082Y504953D01*
X277076Y502056D01*
X277198Y502021D01*
X277317Y501979D01*
X277365Y501973D01*
X277411Y501960D01*
X277537Y501954D01*
X277663Y501940D01*
X277711Y501946D01*
X277759Y501943D01*
X277884Y501966D01*
X278009Y501981D01*
X278067Y501999D01*
X278102Y502006D01*
X278146Y502025D01*
X278242Y502056D01*
X282015Y503619D01*
X302185Y503619D01*
X305920Y502072D01*
X308778Y499214D01*
X310325Y495479D01*
X310325Y475309D01*
X308778Y471574D01*
X305920Y468716D01*
X302185Y467169D01*
X282015Y467169D01*
X278242Y468732D01*
X278120Y468767D01*
X278001Y468809D01*
X277953Y468815D01*
X277907Y468828D01*
X277781Y468834D01*
X277655Y468848D01*
X277607Y468842D01*
X277559Y468845D01*
X277435Y468822D01*
X277309Y468807D01*
X277251Y468789D01*
X277216Y468782D01*
X277172Y468763D01*
X277076Y468732D01*
X270082Y465835D01*
X262260Y465835D01*
X262208Y465846D01*
X262088Y465881D01*
X262037Y465883D01*
X261988Y465894D01*
X261864Y465892D01*
X261740Y465898D01*
X261690Y465889D01*
X261640Y465888D01*
X261519Y465857D01*
X261397Y465835D01*
X261351Y465815D01*
X261302Y465803D01*
X261191Y465746D01*
X261077Y465696D01*
X261037Y465666D01*
X260992Y465643D01*
X260897Y465562D01*
X260798Y465488D01*
X260765Y465450D01*
X260727Y465417D01*
X260653Y465317D01*
X260572Y465222D01*
X260549Y465178D01*
X260519Y465137D01*
X260470Y465023D01*
X260414Y464912D01*
X260401Y464863D01*
X260381Y464817D01*
X260359Y464694D01*
X260329Y464574D01*
X260329Y464524D01*
X260320Y464474D01*
X260326Y464350D01*
X260324Y464226D01*
X260335Y464176D01*
X260338Y464126D01*
X260372Y464006D01*
X260399Y463885D01*
X260420Y463840D01*
X260434Y463791D01*
X260495Y463683D01*
X260548Y463570D01*
X260580Y463531D01*
X260604Y463487D01*
X260763Y463301D01*
X262353Y461711D01*
X262452Y461632D01*
X262545Y461548D01*
X262588Y461524D01*
X262626Y461494D01*
X262740Y461440D01*
X262851Y461379D01*
X262897Y461366D01*
X262941Y461345D01*
X263064Y461319D01*
X263186Y461284D01*
X263247Y461279D01*
X263281Y461272D01*
X263329Y461273D01*
X263430Y461265D01*
X270082Y461265D01*
X277271Y458287D01*
X282773Y452785D01*
X285751Y445596D01*
X285751Y437816D01*
X282773Y430627D01*
X277271Y425125D01*
X270082Y422147D01*
X263430Y422147D01*
X263304Y422133D01*
X263178Y422126D01*
X263132Y422113D01*
X263084Y422107D01*
X262965Y422065D01*
X262843Y422030D01*
X262801Y422006D01*
X262755Y421990D01*
X262649Y421921D01*
X262539Y421860D01*
X262493Y421820D01*
X262463Y421801D01*
X262429Y421766D01*
X262353Y421701D01*
X259971Y419319D01*
X259892Y419220D01*
X259808Y419126D01*
X259784Y419084D01*
X259754Y419046D01*
X259700Y418932D01*
X259639Y418821D01*
X259626Y418775D01*
X259605Y418731D01*
X259579Y418608D01*
X259544Y418486D01*
X259539Y418425D01*
X259532Y418391D01*
X259533Y418343D01*
X259525Y418242D01*
X259525Y417182D01*
X259542Y417033D01*
X259554Y416883D01*
X259562Y416860D01*
X259565Y416836D01*
X259615Y416694D01*
X259662Y416551D01*
X259674Y416531D01*
X259682Y416508D01*
X259764Y416381D01*
X259841Y416253D01*
X259858Y416235D01*
X259871Y416215D01*
X259979Y416111D01*
X260084Y416003D01*
X260104Y415990D01*
X260122Y415973D01*
X260251Y415896D01*
X260377Y415815D01*
X260400Y415806D01*
X260421Y415794D01*
X260564Y415748D01*
X260706Y415698D01*
X260730Y415695D01*
X260753Y415688D01*
X260902Y415676D01*
X261052Y415659D01*
X261076Y415662D01*
X261100Y415660D01*
X261249Y415682D01*
X261398Y415700D01*
X261426Y415709D01*
X261445Y415712D01*
X261489Y415729D01*
X261631Y415775D01*
X262302Y416053D01*
X270082Y416053D01*
X277076Y413156D01*
X277198Y413121D01*
X277317Y413079D01*
X277365Y413073D01*
X277411Y413060D01*
X277537Y413054D01*
X277663Y413040D01*
X277711Y413046D01*
X277759Y413043D01*
X277884Y413066D01*
X278009Y413081D01*
X278067Y413099D01*
X278102Y413106D01*
X278146Y413125D01*
X278242Y413156D01*
X282015Y414719D01*
X302185Y414719D01*
X305920Y413172D01*
X308778Y410314D01*
X310325Y406579D01*
X310325Y386409D01*
X308778Y382674D01*
X305920Y379816D01*
X302185Y378269D01*
X282015Y378269D01*
X278242Y379832D01*
X278120Y379867D01*
X278001Y379909D01*
X277953Y379915D01*
X277907Y379928D01*
X277781Y379934D01*
X277655Y379948D01*
X277607Y379942D01*
X277559Y379945D01*
X277435Y379922D01*
X277309Y379907D01*
X277251Y379889D01*
X277216Y379882D01*
X277172Y379863D01*
X277076Y379832D01*
X270082Y376935D01*
X262260Y376935D01*
X262207Y376946D01*
X262088Y376981D01*
X262038Y376983D01*
X261988Y376994D01*
X261864Y376992D01*
X261740Y376998D01*
X261690Y376989D01*
X261640Y376988D01*
X261519Y376957D01*
X261397Y376935D01*
X261351Y376915D01*
X261302Y376903D01*
X261191Y376846D01*
X261077Y376796D01*
X261037Y376766D01*
X260992Y376743D01*
X260897Y376662D01*
X260798Y376588D01*
X260765Y376550D01*
X260727Y376517D01*
X260653Y376417D01*
X260572Y376322D01*
X260549Y376277D01*
X260519Y376237D01*
X260470Y376123D01*
X260414Y376012D01*
X260401Y375963D01*
X260381Y375917D01*
X260359Y375794D01*
X260329Y375674D01*
X260329Y375624D01*
X260320Y375574D01*
X260326Y375450D01*
X260324Y375325D01*
X260335Y375276D01*
X260338Y375226D01*
X260372Y375107D01*
X260399Y374985D01*
X260420Y374939D01*
X260434Y374891D01*
X260495Y374782D01*
X260548Y374670D01*
X260580Y374631D01*
X260604Y374587D01*
X260763Y374401D01*
X262353Y372811D01*
X262452Y372732D01*
X262546Y372648D01*
X262588Y372624D01*
X262626Y372594D01*
X262740Y372540D01*
X262851Y372479D01*
X262897Y372466D01*
X262941Y372445D01*
X263064Y372419D01*
X263186Y372384D01*
X263246Y372379D01*
X263281Y372372D01*
X263330Y372373D01*
X263430Y372365D01*
X270082Y372365D01*
X277271Y369387D01*
X282773Y363885D01*
X285751Y356696D01*
X285751Y348916D01*
X282773Y341727D01*
X277271Y336225D01*
X270082Y333247D01*
X262302Y333247D01*
X255113Y336225D01*
X250409Y340929D01*
X250310Y341008D01*
X250216Y341092D01*
X250173Y341116D01*
X250136Y341146D01*
X250021Y341200D01*
X249911Y341261D01*
X249864Y341274D01*
X249821Y341295D01*
X249697Y341321D01*
X249575Y341356D01*
X249515Y341361D01*
X249480Y341368D01*
X249432Y341367D01*
X249332Y341375D01*
X218028Y341375D01*
X217903Y341361D01*
X217777Y341354D01*
X217730Y341341D01*
X217682Y341335D01*
X217563Y341293D01*
X217442Y341258D01*
X217400Y341234D01*
X217354Y341218D01*
X217248Y341149D01*
X217138Y341088D01*
X217091Y341048D01*
X217061Y341029D01*
X217028Y340994D01*
X216951Y340929D01*
X212247Y336225D01*
X205058Y333247D01*
X197278Y333247D01*
X189813Y336339D01*
X189691Y336374D01*
X189572Y336416D01*
X189524Y336422D01*
X189478Y336435D01*
X189352Y336441D01*
X189226Y336455D01*
X189178Y336450D01*
X189130Y336452D01*
X189005Y336429D01*
X188880Y336414D01*
X188822Y336396D01*
X188787Y336389D01*
X188743Y336370D01*
X188647Y336339D01*
X181182Y333247D01*
X173402Y333247D01*
X166213Y336225D01*
X161509Y340929D01*
X161410Y341008D01*
X161316Y341092D01*
X161273Y341116D01*
X161236Y341146D01*
X161121Y341200D01*
X161011Y341261D01*
X160964Y341274D01*
X160921Y341295D01*
X160797Y341321D01*
X160675Y341356D01*
X160615Y341361D01*
X160580Y341368D01*
X160532Y341367D01*
X160432Y341375D01*
X129128Y341375D01*
X129003Y341361D01*
X128877Y341354D01*
X128830Y341341D01*
X128782Y341335D01*
X128663Y341293D01*
X128542Y341258D01*
X128500Y341234D01*
X128454Y341218D01*
X128348Y341149D01*
X128238Y341088D01*
X128191Y341048D01*
X128161Y341029D01*
X128128Y340994D01*
X128051Y340929D01*
X123347Y336225D01*
X116158Y333247D01*
X108378Y333247D01*
X100913Y336339D01*
X100791Y336374D01*
X100672Y336416D01*
X100624Y336422D01*
X100578Y336435D01*
X100452Y336441D01*
X100326Y336455D01*
X100278Y336450D01*
X100230Y336452D01*
X100105Y336429D01*
X99980Y336414D01*
X99922Y336396D01*
X99887Y336389D01*
X99843Y336370D01*
X99747Y336339D01*
X92282Y333247D01*
X84502Y333247D01*
X77313Y336225D01*
X72609Y340929D01*
X72510Y341008D01*
X72416Y341092D01*
X72373Y341116D01*
X72336Y341146D01*
X72221Y341200D01*
X72111Y341261D01*
X72064Y341274D01*
X72021Y341295D01*
X71897Y341321D01*
X71775Y341356D01*
X71715Y341361D01*
X71680Y341368D01*
X71632Y341367D01*
X71532Y341375D01*
X40228Y341375D01*
X40103Y341361D01*
X39977Y341354D01*
X39930Y341341D01*
X39882Y341335D01*
X39763Y341293D01*
X39642Y341258D01*
X39600Y341234D01*
X39554Y341218D01*
X39448Y341149D01*
X39338Y341088D01*
X39291Y341048D01*
X39261Y341029D01*
X39228Y340994D01*
X39151Y340929D01*
X34447Y336225D01*
X27258Y333247D01*
X19478Y333247D01*
X12267Y336234D01*
X12122Y336275D01*
X11979Y336321D01*
X11955Y336323D01*
X11932Y336330D01*
X11781Y336337D01*
X11632Y336349D01*
X11608Y336345D01*
X11584Y336347D01*
X11436Y336320D01*
X11287Y336297D01*
X11265Y336288D01*
X11241Y336284D01*
X11103Y336224D01*
X10963Y336169D01*
X10943Y336155D01*
X10921Y336145D01*
X10800Y336055D01*
X10677Y335970D01*
X10661Y335952D01*
X10641Y335937D01*
X10544Y335822D01*
X10444Y335711D01*
X10432Y335690D01*
X10416Y335671D01*
X10348Y335538D01*
X10275Y335406D01*
X10269Y335383D01*
X10258Y335361D01*
X10221Y335216D01*
X10180Y335070D01*
X10178Y335041D01*
X10173Y335023D01*
X10173Y334976D01*
X10161Y334827D01*
X10161Y325573D01*
X10178Y325424D01*
X10190Y325274D01*
X10198Y325251D01*
X10201Y325227D01*
X10251Y325086D01*
X10297Y324942D01*
X10310Y324922D01*
X10318Y324899D01*
X10400Y324772D01*
X10477Y324644D01*
X10494Y324627D01*
X10507Y324606D01*
X10615Y324502D01*
X10720Y324394D01*
X10740Y324381D01*
X10758Y324364D01*
X10887Y324287D01*
X11013Y324206D01*
X11036Y324198D01*
X11057Y324185D01*
X11200Y324139D01*
X11342Y324089D01*
X11366Y324086D01*
X11389Y324079D01*
X11538Y324067D01*
X11688Y324050D01*
X11712Y324053D01*
X11736Y324051D01*
X11884Y324073D01*
X12034Y324091D01*
X12062Y324100D01*
X12081Y324103D01*
X12124Y324120D01*
X12267Y324166D01*
X19478Y327153D01*
X27258Y327153D01*
X34447Y324175D01*
X39151Y319471D01*
X39250Y319392D01*
X39344Y319308D01*
X39387Y319284D01*
X39424Y319254D01*
X39539Y319200D01*
X39649Y319139D01*
X39696Y319126D01*
X39739Y319105D01*
X39863Y319079D01*
X39985Y319044D01*
X40045Y319039D01*
X40080Y319032D01*
X40128Y319033D01*
X40228Y319025D01*
X71532Y319025D01*
X71657Y319039D01*
X71783Y319046D01*
X71830Y319059D01*
X71878Y319065D01*
X71997Y319107D01*
X72118Y319142D01*
X72160Y319166D01*
X72206Y319182D01*
X72312Y319251D01*
X72422Y319312D01*
X72469Y319352D01*
X72499Y319371D01*
X72532Y319406D01*
X72609Y319471D01*
X77313Y324175D01*
X84502Y327153D01*
X92282Y327153D01*
X99747Y324061D01*
X99869Y324026D01*
X99988Y323984D01*
X100036Y323978D01*
X100082Y323965D01*
X100208Y323959D01*
X100334Y323945D01*
X100382Y323950D01*
X100430Y323948D01*
X100554Y323971D01*
X100680Y323986D01*
X100738Y324004D01*
X100773Y324011D01*
X100817Y324030D01*
X100913Y324061D01*
X108378Y327153D01*
X116158Y327153D01*
X123347Y324175D01*
X128051Y319471D01*
X128150Y319392D01*
X128244Y319308D01*
X128287Y319284D01*
X128324Y319254D01*
X128439Y319200D01*
X128549Y319139D01*
X128596Y319126D01*
X128639Y319105D01*
X128763Y319079D01*
X128885Y319044D01*
X128945Y319039D01*
X128980Y319032D01*
X129028Y319033D01*
X129128Y319025D01*
X160432Y319025D01*
X160557Y319039D01*
X160683Y319046D01*
X160730Y319059D01*
X160778Y319065D01*
X160897Y319107D01*
X161018Y319142D01*
X161060Y319166D01*
X161106Y319182D01*
X161212Y319251D01*
X161322Y319312D01*
X161369Y319352D01*
X161399Y319371D01*
X161432Y319406D01*
X161509Y319471D01*
X166213Y324175D01*
X173402Y327153D01*
X181182Y327153D01*
X188647Y324061D01*
X188769Y324026D01*
X188888Y323984D01*
X188936Y323978D01*
X188982Y323965D01*
X189108Y323959D01*
X189234Y323945D01*
X189282Y323950D01*
X189330Y323948D01*
X189454Y323971D01*
X189580Y323986D01*
X189638Y324004D01*
X189673Y324011D01*
X189717Y324030D01*
X189813Y324061D01*
X197278Y327153D01*
X205058Y327153D01*
X212247Y324175D01*
X216951Y319471D01*
X217050Y319392D01*
X217144Y319308D01*
X217187Y319284D01*
X217224Y319254D01*
X217339Y319200D01*
X217449Y319139D01*
X217496Y319126D01*
X217539Y319105D01*
X217663Y319079D01*
X217785Y319044D01*
X217845Y319039D01*
X217880Y319032D01*
X217928Y319033D01*
X218028Y319025D01*
X249332Y319025D01*
X249457Y319039D01*
X249583Y319046D01*
X249630Y319059D01*
X249678Y319065D01*
X249797Y319107D01*
X249918Y319142D01*
X249960Y319166D01*
X250006Y319182D01*
X250112Y319251D01*
X250222Y319312D01*
X250269Y319352D01*
X250299Y319371D01*
X250332Y319406D01*
X250409Y319471D01*
X255113Y324175D01*
X262302Y327153D01*
X270082Y327153D01*
X277076Y324256D01*
X277198Y324221D01*
X277317Y324179D01*
X277365Y324173D01*
X277411Y324160D01*
X277537Y324154D01*
X277663Y324140D01*
X277711Y324146D01*
X277759Y324143D01*
X277884Y324166D01*
X278009Y324181D01*
X278067Y324199D01*
X278102Y324206D01*
X278146Y324225D01*
X278242Y324256D01*
X282015Y325819D01*
X302185Y325819D01*
X305920Y324272D01*
X308778Y321414D01*
X310325Y317679D01*
X310325Y297509D01*
X308778Y293774D01*
X305920Y290916D01*
X302185Y289369D01*
X282015Y289369D01*
X278242Y290932D01*
X278120Y290967D01*
X278001Y291009D01*
X277953Y291015D01*
X277907Y291028D01*
X277781Y291034D01*
X277655Y291048D01*
X277607Y291042D01*
X277559Y291045D01*
X277435Y291022D01*
X277309Y291007D01*
X277251Y290989D01*
X277216Y290982D01*
X277172Y290963D01*
X277076Y290932D01*
X270082Y288035D01*
X262302Y288035D01*
X255113Y291013D01*
X250409Y295717D01*
X250310Y295796D01*
X250216Y295880D01*
X250173Y295904D01*
X250136Y295934D01*
X250021Y295988D01*
X249911Y296049D01*
X249864Y296062D01*
X249821Y296083D01*
X249697Y296109D01*
X249575Y296144D01*
X249515Y296149D01*
X249480Y296156D01*
X249432Y296155D01*
X249332Y296163D01*
X218028Y296163D01*
X217903Y296149D01*
X217777Y296142D01*
X217730Y296129D01*
X217682Y296123D01*
X217563Y296081D01*
X217442Y296046D01*
X217400Y296022D01*
X217354Y296006D01*
X217248Y295937D01*
X217138Y295876D01*
X217091Y295836D01*
X217061Y295817D01*
X217028Y295782D01*
X216951Y295717D01*
X212247Y291013D01*
X205058Y288035D01*
X197278Y288035D01*
X189813Y291127D01*
X189691Y291162D01*
X189572Y291204D01*
X189524Y291210D01*
X189478Y291223D01*
X189352Y291229D01*
X189226Y291243D01*
X189178Y291238D01*
X189130Y291240D01*
X189005Y291217D01*
X188880Y291202D01*
X188822Y291184D01*
X188787Y291177D01*
X188743Y291158D01*
X188647Y291127D01*
X181182Y288035D01*
X173402Y288035D01*
X166213Y291013D01*
X161509Y295717D01*
X161410Y295796D01*
X161316Y295880D01*
X161273Y295904D01*
X161236Y295934D01*
X161121Y295988D01*
X161011Y296049D01*
X160964Y296062D01*
X160921Y296083D01*
X160797Y296109D01*
X160675Y296144D01*
X160615Y296149D01*
X160580Y296156D01*
X160532Y296155D01*
X160432Y296163D01*
X153652Y296163D01*
X153552Y296152D01*
X153451Y296150D01*
X153379Y296132D01*
X153305Y296123D01*
X153211Y296090D01*
X153114Y296065D01*
X153047Y296031D01*
X152977Y296006D01*
X152893Y295951D01*
X152804Y295905D01*
X152747Y295857D01*
X152685Y295817D01*
X152615Y295745D01*
X152538Y295680D01*
X152494Y295620D01*
X152442Y295566D01*
X152391Y295480D01*
X152331Y295399D01*
X152302Y295331D01*
X152264Y295267D01*
X152233Y295171D01*
X152193Y295079D01*
X152180Y295006D01*
X152157Y294935D01*
X152149Y294835D01*
X152131Y294736D01*
X152135Y294662D01*
X152129Y294588D01*
X152144Y294488D01*
X152149Y294388D01*
X152170Y294317D01*
X152181Y294243D01*
X152218Y294150D01*
X152246Y294053D01*
X152282Y293988D01*
X152310Y293919D01*
X152367Y293837D01*
X152416Y293749D01*
X152481Y293673D01*
X152509Y293633D01*
X152535Y293609D01*
X152575Y293563D01*
X154639Y291498D01*
X157414Y284800D01*
X157414Y282386D01*
X157423Y282310D01*
X157422Y282234D01*
X157443Y282138D01*
X157454Y282040D01*
X157480Y281968D01*
X157496Y281893D01*
X157538Y281804D01*
X157571Y281712D01*
X157613Y281648D01*
X157646Y281579D01*
X157707Y281502D01*
X157760Y281419D01*
X157815Y281366D01*
X157863Y281306D01*
X157940Y281245D01*
X158011Y281177D01*
X158076Y281138D01*
X158137Y281090D01*
X158270Y281022D01*
X158310Y280998D01*
X158328Y280992D01*
X158354Y280979D01*
X163623Y278796D01*
X164023Y278397D01*
X164043Y278380D01*
X164060Y278360D01*
X164180Y278272D01*
X164296Y278180D01*
X164320Y278169D01*
X164341Y278153D01*
X164477Y278094D01*
X164611Y278031D01*
X164637Y278025D01*
X164661Y278015D01*
X164807Y277989D01*
X164952Y277958D01*
X164978Y277958D01*
X165004Y277953D01*
X165152Y277961D01*
X165300Y277964D01*
X165326Y277970D01*
X165352Y277971D01*
X165494Y278012D01*
X165638Y278049D01*
X165662Y278061D01*
X165687Y278068D01*
X165816Y278140D01*
X165948Y278208D01*
X165968Y278225D01*
X165991Y278238D01*
X166177Y278397D01*
X166577Y278796D01*
X173859Y281813D01*
X181741Y281813D01*
X189023Y278796D01*
X194596Y273223D01*
X197613Y265941D01*
X197613Y258059D01*
X194596Y250777D01*
X189677Y245857D01*
X189598Y245758D01*
X189514Y245665D01*
X189490Y245622D01*
X189460Y245584D01*
X189406Y245470D01*
X189345Y245360D01*
X189332Y245313D01*
X189311Y245269D01*
X189285Y245146D01*
X189250Y245024D01*
X189245Y244963D01*
X189238Y244929D01*
X189239Y244881D01*
X189231Y244780D01*
X189231Y234585D01*
X189239Y234509D01*
X189238Y234433D01*
X189259Y234337D01*
X189271Y234239D01*
X189296Y234167D01*
X189313Y234092D01*
X189355Y234004D01*
X189388Y233911D01*
X189430Y233846D01*
X189462Y233778D01*
X189524Y233701D01*
X189577Y233618D01*
X189632Y233565D01*
X189680Y233505D01*
X189757Y233444D01*
X189828Y233376D01*
X189893Y233337D01*
X189953Y233289D01*
X190086Y233221D01*
X190127Y233197D01*
X190145Y233191D01*
X190171Y233178D01*
X191620Y232578D01*
X194478Y229720D01*
X196025Y225985D01*
X196025Y205815D01*
X194478Y202080D01*
X191620Y199222D01*
X187885Y197675D01*
X171302Y197675D01*
X171226Y197667D01*
X171149Y197668D01*
X171053Y197647D01*
X170955Y197635D01*
X170884Y197610D01*
X170809Y197593D01*
X170720Y197551D01*
X170627Y197518D01*
X170563Y197476D01*
X170494Y197444D01*
X170417Y197382D01*
X170335Y197329D01*
X170281Y197274D01*
X170222Y197226D01*
X170161Y197149D01*
X170092Y197078D01*
X170053Y197013D01*
X170006Y196953D01*
X169938Y196820D01*
X169914Y196779D01*
X169908Y196761D01*
X169894Y196735D01*
X169078Y194764D01*
X166220Y191905D01*
X162485Y190358D01*
X142315Y190358D01*
X138580Y191905D01*
X135722Y194764D01*
X134175Y198498D01*
X134175Y214235D01*
X134172Y214261D01*
X134174Y214287D01*
X134152Y214434D01*
X134135Y214581D01*
X134127Y214606D01*
X134123Y214632D01*
X134068Y214770D01*
X134018Y214910D01*
X134004Y214932D01*
X133994Y214956D01*
X133909Y215078D01*
X133829Y215202D01*
X133810Y215221D01*
X133795Y215242D01*
X133685Y215341D01*
X133578Y215445D01*
X133556Y215458D01*
X133536Y215476D01*
X133406Y215547D01*
X133279Y215623D01*
X133254Y215631D01*
X133231Y215644D01*
X133088Y215684D01*
X132947Y215730D01*
X132921Y215732D01*
X132896Y215739D01*
X132652Y215758D01*
X116915Y215758D01*
X113180Y217305D01*
X110322Y220164D01*
X108775Y223898D01*
X108775Y244068D01*
X110322Y247803D01*
X110673Y248153D01*
X110689Y248174D01*
X110709Y248191D01*
X110797Y248310D01*
X110889Y248426D01*
X110901Y248450D01*
X110916Y248471D01*
X110975Y248607D01*
X111038Y248742D01*
X111044Y248767D01*
X111054Y248791D01*
X111081Y248937D01*
X111112Y249082D01*
X111111Y249108D01*
X111116Y249134D01*
X111108Y249283D01*
X111106Y249431D01*
X111099Y249456D01*
X111098Y249482D01*
X111057Y249625D01*
X111021Y249769D01*
X111009Y249792D01*
X111002Y249817D01*
X110929Y249947D01*
X110861Y250079D01*
X110844Y250099D01*
X110831Y250121D01*
X110673Y250308D01*
X110204Y250777D01*
X110177Y250842D01*
X110135Y250917D01*
X110102Y250997D01*
X110050Y251069D01*
X110007Y251147D01*
X109949Y251210D01*
X109900Y251280D01*
X109833Y251339D01*
X109773Y251405D01*
X109702Y251454D01*
X109638Y251511D01*
X109560Y251552D01*
X109486Y251603D01*
X109406Y251635D01*
X109331Y251675D01*
X109245Y251698D01*
X109162Y251731D01*
X109077Y251743D01*
X108994Y251766D01*
X108905Y251769D01*
X108817Y251782D01*
X108732Y251774D01*
X108646Y251777D01*
X108559Y251760D01*
X108470Y251753D01*
X108388Y251726D01*
X108304Y251710D01*
X108186Y251661D01*
X108139Y251646D01*
X108116Y251632D01*
X108078Y251616D01*
X106280Y250701D01*
X104455Y250107D01*
X104099Y250051D01*
X104099Y261024D01*
X104096Y261050D01*
X104098Y261076D01*
X104076Y261223D01*
X104059Y261370D01*
X104051Y261395D01*
X104047Y261421D01*
X103992Y261558D01*
X103942Y261698D01*
X103928Y261720D01*
X103918Y261745D01*
X103833Y261866D01*
X103753Y261991D01*
X103740Y262003D01*
X103785Y262050D01*
X103799Y262073D01*
X103816Y262092D01*
X103888Y262222D01*
X103964Y262349D01*
X103972Y262374D01*
X103985Y262397D01*
X104025Y262540D01*
X104070Y262681D01*
X104072Y262707D01*
X104080Y262732D01*
X104099Y262976D01*
X104099Y273949D01*
X104455Y273893D01*
X106280Y273299D01*
X108078Y272384D01*
X108158Y272354D01*
X108235Y272314D01*
X108321Y272293D01*
X108404Y272262D01*
X108490Y272251D01*
X108573Y272230D01*
X108662Y272229D01*
X108750Y272218D01*
X108836Y272226D01*
X108922Y272225D01*
X109008Y272244D01*
X109097Y272253D01*
X109178Y272281D01*
X109262Y272300D01*
X109342Y272338D01*
X109426Y272367D01*
X109499Y272412D01*
X109577Y272449D01*
X109646Y272505D01*
X109721Y272552D01*
X109782Y272613D01*
X109849Y272667D01*
X109904Y272736D01*
X109967Y272799D01*
X110012Y272873D01*
X110065Y272940D01*
X110123Y273054D01*
X110149Y273096D01*
X110158Y273121D01*
X110177Y273158D01*
X110204Y273223D01*
X115123Y278143D01*
X115202Y278242D01*
X115286Y278335D01*
X115310Y278378D01*
X115340Y278416D01*
X115394Y278530D01*
X115455Y278640D01*
X115468Y278687D01*
X115489Y278731D01*
X115515Y278854D01*
X115550Y278976D01*
X115555Y279037D01*
X115562Y279071D01*
X115561Y279119D01*
X115569Y279220D01*
X115569Y281674D01*
X117332Y285929D01*
X117373Y286074D01*
X117419Y286217D01*
X117421Y286241D01*
X117428Y286264D01*
X117435Y286415D01*
X117447Y286564D01*
X117443Y286588D01*
X117445Y286612D01*
X117418Y286760D01*
X117395Y286909D01*
X117386Y286931D01*
X117382Y286955D01*
X117322Y287093D01*
X117267Y287233D01*
X117253Y287253D01*
X117243Y287275D01*
X117153Y287396D01*
X117068Y287519D01*
X117050Y287535D01*
X117035Y287555D01*
X116920Y287652D01*
X116809Y287752D01*
X116788Y287764D01*
X116769Y287780D01*
X116636Y287848D01*
X116504Y287921D01*
X116480Y287927D01*
X116459Y287938D01*
X116313Y287975D01*
X116168Y288016D01*
X116139Y288018D01*
X116121Y288023D01*
X116074Y288023D01*
X115925Y288035D01*
X108378Y288035D01*
X100913Y291127D01*
X100791Y291162D01*
X100672Y291204D01*
X100624Y291210D01*
X100578Y291223D01*
X100452Y291229D01*
X100326Y291243D01*
X100278Y291238D01*
X100230Y291240D01*
X100105Y291217D01*
X99980Y291202D01*
X99922Y291184D01*
X99887Y291177D01*
X99843Y291158D01*
X99747Y291127D01*
X92282Y288035D01*
X84502Y288035D01*
X77313Y291013D01*
X72609Y295717D01*
X72510Y295796D01*
X72416Y295880D01*
X72373Y295904D01*
X72336Y295934D01*
X72221Y295988D01*
X72111Y296049D01*
X72064Y296062D01*
X72021Y296083D01*
X71897Y296109D01*
X71775Y296144D01*
X71715Y296149D01*
X71680Y296156D01*
X71632Y296155D01*
X71532Y296163D01*
X40228Y296163D01*
X40103Y296149D01*
X39977Y296142D01*
X39930Y296129D01*
X39882Y296123D01*
X39763Y296081D01*
X39642Y296046D01*
X39600Y296022D01*
X39554Y296006D01*
X39448Y295937D01*
X39338Y295876D01*
X39291Y295836D01*
X39261Y295817D01*
X39228Y295782D01*
X39151Y295717D01*
X34447Y291013D01*
X27258Y288035D01*
X19478Y288035D01*
X12267Y291022D01*
X12122Y291063D01*
X11979Y291109D01*
X11955Y291111D01*
X11932Y291118D01*
X11781Y291125D01*
X11632Y291137D01*
X11608Y291133D01*
X11584Y291135D01*
X11436Y291108D01*
X11287Y291085D01*
X11265Y291076D01*
X11241Y291072D01*
X11103Y291012D01*
X10963Y290957D01*
X10943Y290943D01*
X10921Y290933D01*
X10800Y290843D01*
X10677Y290758D01*
X10661Y290740D01*
X10641Y290725D01*
X10544Y290610D01*
X10444Y290499D01*
X10432Y290478D01*
X10416Y290459D01*
X10348Y290326D01*
X10275Y290194D01*
X10269Y290171D01*
X10258Y290149D01*
X10221Y290004D01*
X10180Y289858D01*
X10178Y289829D01*
X10173Y289811D01*
X10173Y289764D01*
X10161Y289615D01*
X10161Y277575D01*
X10169Y277499D01*
X10168Y277424D01*
X10189Y277327D01*
X10201Y277228D01*
X10226Y277157D01*
X10242Y277083D01*
X10285Y276994D01*
X10318Y276900D01*
X10359Y276836D01*
X10392Y276768D01*
X10453Y276691D01*
X10507Y276607D01*
X10562Y276555D01*
X10609Y276495D01*
X10687Y276434D01*
X10758Y276365D01*
X10823Y276326D01*
X10882Y276279D01*
X10972Y276237D01*
X11057Y276186D01*
X11129Y276163D01*
X11198Y276131D01*
X11294Y276110D01*
X11389Y276080D01*
X11464Y276074D01*
X11538Y276058D01*
X11638Y276060D01*
X11736Y276052D01*
X11811Y276063D01*
X11887Y276065D01*
X11983Y276089D01*
X12081Y276104D01*
X12151Y276132D01*
X12225Y276150D01*
X12361Y276215D01*
X12405Y276233D01*
X12420Y276243D01*
X12446Y276255D01*
X15602Y278078D01*
X22256Y279861D01*
X29144Y279861D01*
X35798Y278078D01*
X41763Y274634D01*
X46634Y269763D01*
X50078Y263798D01*
X51861Y257144D01*
X51861Y250256D01*
X50078Y243602D01*
X46606Y237589D01*
X41718Y232702D01*
X35753Y229257D01*
X29099Y227475D01*
X22211Y227475D01*
X15558Y229257D01*
X12446Y231054D01*
X12376Y231084D01*
X12311Y231123D01*
X12217Y231153D01*
X12126Y231193D01*
X12051Y231206D01*
X11979Y231229D01*
X11880Y231237D01*
X11783Y231255D01*
X11707Y231251D01*
X11632Y231257D01*
X11534Y231243D01*
X11435Y231238D01*
X11362Y231217D01*
X11287Y231206D01*
X11195Y231169D01*
X11100Y231142D01*
X11034Y231105D01*
X10963Y231077D01*
X10882Y231020D01*
X10795Y230972D01*
X10739Y230921D01*
X10677Y230878D01*
X10611Y230805D01*
X10537Y230738D01*
X10494Y230675D01*
X10444Y230619D01*
X10396Y230532D01*
X10339Y230451D01*
X10312Y230380D01*
X10275Y230314D01*
X10248Y230219D01*
X10212Y230127D01*
X10201Y230052D01*
X10180Y229979D01*
X10168Y229828D01*
X10161Y229782D01*
X10163Y229763D01*
X10161Y229735D01*
X10161Y163300D01*
X10179Y163145D01*
X10192Y162991D01*
X10198Y162973D01*
X10201Y162954D01*
X10253Y162808D01*
X10302Y162660D01*
X10312Y162644D01*
X10318Y162625D01*
X10402Y162495D01*
X10483Y162363D01*
X10497Y162349D01*
X10507Y162333D01*
X10619Y162225D01*
X10727Y162114D01*
X10744Y162104D01*
X10758Y162090D01*
X10891Y162011D01*
X11022Y161928D01*
X11040Y161921D01*
X11057Y161912D01*
X11205Y161864D01*
X11351Y161813D01*
X11370Y161811D01*
X11389Y161805D01*
X11543Y161793D01*
X11698Y161777D01*
X11717Y161779D01*
X11736Y161777D01*
X11889Y161800D01*
X12044Y161820D01*
X12062Y161826D01*
X12081Y161829D01*
X12225Y161886D01*
X12371Y161940D01*
X12390Y161952D01*
X12405Y161958D01*
X12440Y161983D01*
X12579Y162067D01*
X13626Y162828D01*
X15336Y163699D01*
X17162Y164293D01*
X17517Y164349D01*
X17517Y153376D01*
X17520Y153350D01*
X17518Y153324D01*
X17540Y153177D01*
X17557Y153030D01*
X17566Y153005D01*
X17570Y152979D01*
X17625Y152842D01*
X17675Y152702D01*
X17689Y152680D01*
X17699Y152655D01*
X17783Y152534D01*
X17864Y152409D01*
X17883Y152391D01*
X17898Y152369D01*
X18008Y152270D01*
X18115Y152167D01*
X18137Y152153D01*
X18157Y152136D01*
X18286Y152064D01*
X18414Y151988D01*
X18439Y151980D01*
X18462Y151967D01*
X18604Y151927D01*
X18746Y151882D01*
X18772Y151880D01*
X18797Y151873D01*
X19041Y151853D01*
X19470Y151853D01*
X19470Y151424D01*
X19473Y151398D01*
X19471Y151372D01*
X19493Y151225D01*
X19510Y151078D01*
X19518Y151053D01*
X19522Y151027D01*
X19577Y150889D01*
X19627Y150750D01*
X19641Y150728D01*
X19651Y150703D01*
X19736Y150582D01*
X19816Y150457D01*
X19835Y150439D01*
X19850Y150417D01*
X19960Y150318D01*
X20067Y150215D01*
X20089Y150201D01*
X20109Y150184D01*
X20239Y150112D01*
X20366Y150036D01*
X20391Y150028D01*
X20414Y150015D01*
X20557Y149975D01*
X20698Y149930D01*
X20724Y149927D01*
X20749Y149920D01*
X20993Y149901D01*
X31966Y149901D01*
X31909Y149545D01*
X31316Y147720D01*
X30400Y145922D01*
X30370Y145842D01*
X30331Y145765D01*
X30310Y145679D01*
X30279Y145596D01*
X30268Y145510D01*
X30247Y145427D01*
X30246Y145338D01*
X30234Y145250D01*
X30243Y145164D01*
X30242Y145078D01*
X30261Y144992D01*
X30270Y144903D01*
X30298Y144822D01*
X30316Y144738D01*
X30354Y144658D01*
X30383Y144574D01*
X30429Y144501D01*
X30466Y144423D01*
X30521Y144354D01*
X30569Y144279D01*
X30630Y144218D01*
X30683Y144151D01*
X30753Y144096D01*
X30816Y144033D01*
X30889Y143988D01*
X30957Y143935D01*
X31070Y143877D01*
X31113Y143851D01*
X31138Y143842D01*
X31175Y143823D01*
X31240Y143796D01*
X36813Y138223D01*
X39830Y130941D01*
X39830Y123059D01*
X36813Y115777D01*
X36413Y115377D01*
X36397Y115357D01*
X36377Y115340D01*
X36289Y115220D01*
X36197Y115104D01*
X36185Y115080D01*
X36170Y115059D01*
X36111Y114923D01*
X36048Y114789D01*
X36042Y114763D01*
X36032Y114739D01*
X36006Y114593D01*
X35974Y114448D01*
X35975Y114422D01*
X35970Y114396D01*
X35978Y114248D01*
X35980Y114100D01*
X35987Y114074D01*
X35988Y114048D01*
X36029Y113906D01*
X36065Y113762D01*
X36077Y113739D01*
X36085Y113713D01*
X36157Y113584D01*
X36225Y113452D01*
X36242Y113432D01*
X36255Y113409D01*
X36413Y113223D01*
X36813Y112823D01*
X39830Y105541D01*
X39830Y97659D01*
X36813Y90377D01*
X36413Y89977D01*
X36397Y89957D01*
X36377Y89940D01*
X36289Y89820D01*
X36197Y89704D01*
X36185Y89680D01*
X36170Y89659D01*
X36111Y89523D01*
X36048Y89389D01*
X36042Y89363D01*
X36032Y89339D01*
X36005Y89193D01*
X35974Y89048D01*
X35975Y89022D01*
X35970Y88996D01*
X35978Y88848D01*
X35980Y88700D01*
X35987Y88674D01*
X35988Y88648D01*
X36029Y88506D01*
X36065Y88362D01*
X36077Y88338D01*
X36085Y88313D01*
X36157Y88184D01*
X36225Y88052D01*
X36242Y88032D01*
X36255Y88009D01*
X36413Y87823D01*
X36813Y87423D01*
X39830Y80141D01*
X39830Y72259D01*
X36813Y64977D01*
X31240Y59404D01*
X23958Y56387D01*
X16076Y56387D01*
X13952Y57267D01*
X12267Y57965D01*
X12122Y58006D01*
X11979Y58052D01*
X11955Y58054D01*
X11932Y58061D01*
X11781Y58068D01*
X11632Y58080D01*
X11608Y58076D01*
X11584Y58078D01*
X11436Y58051D01*
X11287Y58028D01*
X11265Y58019D01*
X11241Y58015D01*
X11103Y57955D01*
X10963Y57900D01*
X10943Y57886D01*
X10921Y57876D01*
X10800Y57786D01*
X10677Y57701D01*
X10661Y57683D01*
X10641Y57668D01*
X10544Y57553D01*
X10444Y57442D01*
X10432Y57421D01*
X10416Y57402D01*
X10348Y57269D01*
X10275Y57137D01*
X10269Y57113D01*
X10258Y57092D01*
X10221Y56947D01*
X10180Y56801D01*
X10178Y56772D01*
X10173Y56754D01*
X10173Y56707D01*
X10161Y56558D01*
X10161Y46420D01*
X10169Y46345D01*
X10168Y46269D01*
X10189Y46172D01*
X10201Y46074D01*
X10226Y46002D01*
X10242Y45928D01*
X10285Y45839D01*
X10318Y45746D01*
X10359Y45682D01*
X10392Y45613D01*
X10453Y45536D01*
X10507Y45453D01*
X10562Y45400D01*
X10609Y45341D01*
X10687Y45279D01*
X10758Y45211D01*
X10823Y45172D01*
X10882Y45125D01*
X10972Y45083D01*
X11057Y45032D01*
X11129Y45009D01*
X11198Y44976D01*
X11294Y44956D01*
X11389Y44925D01*
X11464Y44919D01*
X11538Y44904D01*
X11638Y44905D01*
X11736Y44897D01*
X11811Y44909D01*
X11887Y44910D01*
X11983Y44934D01*
X12081Y44949D01*
X12151Y44977D01*
X12225Y44996D01*
X12361Y45061D01*
X12405Y45078D01*
X12420Y45089D01*
X12446Y45101D01*
X15988Y47146D01*
X22388Y48861D01*
X29012Y48861D01*
X35412Y47146D01*
X41149Y43834D01*
X45834Y39149D01*
X49146Y33412D01*
X50861Y27012D01*
X50861Y20388D01*
X49146Y13988D01*
X48255Y12446D01*
X48225Y12376D01*
X48186Y12311D01*
X48156Y12217D01*
X48117Y12126D01*
X48103Y12051D01*
X48080Y11979D01*
X48072Y11880D01*
X48055Y11783D01*
X48058Y11707D01*
X48052Y11632D01*
X48067Y11534D01*
X48072Y11435D01*
X48093Y11362D01*
X48104Y11287D01*
X48140Y11195D01*
X48168Y11100D01*
X48205Y11034D01*
X48233Y10963D01*
X48289Y10882D01*
X48337Y10795D01*
X48388Y10739D01*
X48432Y10677D01*
X48505Y10611D01*
X48572Y10537D01*
X48634Y10494D01*
X48690Y10444D01*
X48777Y10396D01*
X48859Y10339D01*
X48929Y10312D01*
X48995Y10275D01*
X49091Y10248D01*
X49183Y10212D01*
X49258Y10201D01*
X49331Y10180D01*
X49481Y10168D01*
X49528Y10161D01*
X49546Y10163D01*
X49575Y10161D01*
X229825Y10161D01*
X229901Y10169D01*
G37*
G36*
X661095Y255708D02*
X661095Y255708D01*
X661195Y255713D01*
X661267Y255734D01*
X661340Y255745D01*
X661434Y255782D01*
X661530Y255810D01*
X661595Y255846D01*
X661664Y255874D01*
X661747Y255931D01*
X661834Y255980D01*
X661911Y256045D01*
X661950Y256073D01*
X661974Y256099D01*
X662021Y256138D01*
X662210Y256328D01*
X669276Y259255D01*
X675386Y259255D01*
X675412Y259258D01*
X675438Y259256D01*
X675585Y259278D01*
X675732Y259295D01*
X675757Y259303D01*
X675783Y259307D01*
X675921Y259362D01*
X676060Y259412D01*
X676082Y259426D01*
X676107Y259436D01*
X676228Y259521D01*
X676353Y259601D01*
X676371Y259620D01*
X676393Y259635D01*
X676492Y259745D01*
X676595Y259852D01*
X676609Y259874D01*
X676626Y259894D01*
X676698Y260024D01*
X676774Y260151D01*
X676782Y260176D01*
X676795Y260199D01*
X676835Y260342D01*
X676880Y260483D01*
X676882Y260509D01*
X676890Y260534D01*
X676909Y260778D01*
X676909Y475488D01*
X676906Y475514D01*
X676908Y475540D01*
X676886Y475687D01*
X676869Y475834D01*
X676861Y475859D01*
X676857Y475885D01*
X676802Y476023D01*
X676752Y476162D01*
X676738Y476184D01*
X676728Y476209D01*
X676643Y476330D01*
X676563Y476455D01*
X676544Y476473D01*
X676529Y476495D01*
X676419Y476594D01*
X676312Y476697D01*
X676290Y476711D01*
X676270Y476728D01*
X676140Y476800D01*
X676013Y476876D01*
X675988Y476884D01*
X675965Y476897D01*
X675822Y476937D01*
X675681Y476982D01*
X675655Y476984D01*
X675630Y476992D01*
X675386Y477011D01*
X672762Y477011D01*
X666040Y479796D01*
X662413Y483423D01*
X662314Y483502D01*
X662220Y483586D01*
X662177Y483610D01*
X662140Y483640D01*
X662025Y483694D01*
X661915Y483755D01*
X661868Y483768D01*
X661825Y483789D01*
X661701Y483815D01*
X661579Y483850D01*
X661519Y483855D01*
X661484Y483862D01*
X661436Y483861D01*
X661336Y483869D01*
X659464Y483869D01*
X659339Y483855D01*
X659213Y483848D01*
X659166Y483835D01*
X659118Y483829D01*
X658999Y483787D01*
X658878Y483752D01*
X658836Y483728D01*
X658790Y483712D01*
X658684Y483643D01*
X658574Y483582D01*
X658527Y483542D01*
X658497Y483523D01*
X658464Y483488D01*
X658387Y483423D01*
X654760Y479796D01*
X648038Y477011D01*
X640762Y477011D01*
X634040Y479796D01*
X628896Y484940D01*
X626111Y491662D01*
X626111Y496792D01*
X626097Y496918D01*
X626090Y497044D01*
X626077Y497091D01*
X626071Y497139D01*
X626029Y497257D01*
X625994Y497379D01*
X625970Y497421D01*
X625954Y497467D01*
X625885Y497573D01*
X625824Y497683D01*
X625784Y497729D01*
X625765Y497759D01*
X625730Y497793D01*
X625665Y497869D01*
X622389Y501145D01*
X618960Y504575D01*
X617219Y508776D01*
X617219Y527095D01*
X617211Y527171D01*
X617212Y527246D01*
X617191Y527343D01*
X617179Y527442D01*
X617154Y527513D01*
X617138Y527587D01*
X617095Y527676D01*
X617062Y527770D01*
X617021Y527833D01*
X616988Y527902D01*
X616927Y527979D01*
X616873Y528063D01*
X616818Y528115D01*
X616771Y528174D01*
X616693Y528236D01*
X616622Y528305D01*
X616557Y528344D01*
X616498Y528391D01*
X616408Y528433D01*
X616323Y528484D01*
X616251Y528507D01*
X616182Y528539D01*
X616086Y528560D01*
X615991Y528590D01*
X615916Y528596D01*
X615842Y528612D01*
X615742Y528610D01*
X615644Y528618D01*
X615569Y528607D01*
X615493Y528605D01*
X615397Y528581D01*
X615299Y528566D01*
X615229Y528538D01*
X615155Y528519D01*
X615019Y528455D01*
X614975Y528437D01*
X614960Y528427D01*
X614934Y528415D01*
X610098Y525622D01*
X603444Y523839D01*
X596556Y523839D01*
X589902Y525622D01*
X583937Y529066D01*
X579066Y533937D01*
X575622Y539902D01*
X573839Y546556D01*
X573839Y553444D01*
X575048Y557954D01*
X575066Y558078D01*
X575092Y558200D01*
X575092Y558250D01*
X575099Y558299D01*
X575089Y558424D01*
X575086Y558549D01*
X575074Y558597D01*
X575070Y558646D01*
X575032Y558765D01*
X575001Y558887D01*
X574979Y558931D01*
X574964Y558978D01*
X574899Y559085D01*
X574842Y559197D01*
X574810Y559234D01*
X574784Y559277D01*
X574697Y559367D01*
X574616Y559462D01*
X574576Y559492D01*
X574541Y559527D01*
X574436Y559595D01*
X574336Y559669D01*
X574290Y559689D01*
X574248Y559716D01*
X574130Y559758D01*
X574016Y559807D01*
X573967Y559816D01*
X573920Y559833D01*
X573796Y559847D01*
X573673Y559869D01*
X573623Y559866D01*
X573574Y559872D01*
X573449Y559857D01*
X573325Y559851D01*
X573277Y559837D01*
X573228Y559831D01*
X573110Y559789D01*
X572990Y559754D01*
X572946Y559730D01*
X572900Y559713D01*
X572795Y559645D01*
X572686Y559584D01*
X572638Y559544D01*
X572607Y559524D01*
X572574Y559489D01*
X572499Y559426D01*
X569124Y556050D01*
X565329Y554478D01*
X565262Y554441D01*
X565191Y554413D01*
X565110Y554357D01*
X565024Y554309D01*
X564968Y554257D01*
X564905Y554214D01*
X564839Y554141D01*
X564766Y554075D01*
X564723Y554012D01*
X564672Y553955D01*
X564624Y553869D01*
X564568Y553788D01*
X564540Y553717D01*
X564503Y553650D01*
X564476Y553555D01*
X564440Y553464D01*
X564429Y553388D01*
X564408Y553315D01*
X564396Y553166D01*
X564389Y553119D01*
X564391Y553100D01*
X564389Y553071D01*
X564389Y538525D01*
X553675Y527811D01*
X538525Y527811D01*
X534477Y531859D01*
X534457Y531875D01*
X534440Y531895D01*
X534320Y531983D01*
X534204Y532075D01*
X534180Y532087D01*
X534159Y532102D01*
X534023Y532161D01*
X533889Y532224D01*
X533863Y532230D01*
X533839Y532240D01*
X533693Y532266D01*
X533548Y532298D01*
X533522Y532297D01*
X533496Y532302D01*
X533348Y532294D01*
X533200Y532292D01*
X533174Y532285D01*
X533148Y532284D01*
X533006Y532243D01*
X532862Y532207D01*
X532839Y532195D01*
X532813Y532187D01*
X532684Y532115D01*
X532552Y532047D01*
X532532Y532030D01*
X532509Y532017D01*
X532323Y531859D01*
X528275Y527811D01*
X513125Y527811D01*
X502411Y538525D01*
X502411Y553071D01*
X502403Y553147D01*
X502404Y553223D01*
X502383Y553319D01*
X502371Y553417D01*
X502346Y553489D01*
X502329Y553564D01*
X502287Y553652D01*
X502254Y553745D01*
X502212Y553809D01*
X502180Y553878D01*
X502118Y553955D01*
X502065Y554038D01*
X502010Y554091D01*
X501962Y554151D01*
X501885Y554212D01*
X501814Y554280D01*
X501749Y554319D01*
X501689Y554367D01*
X501556Y554435D01*
X501515Y554459D01*
X501497Y554465D01*
X501471Y554478D01*
X497676Y556050D01*
X492550Y561176D01*
X489775Y567875D01*
X489775Y575125D01*
X492550Y581824D01*
X497676Y586950D01*
X504375Y589725D01*
X511625Y589725D01*
X513069Y589127D01*
X513214Y589085D01*
X513357Y589040D01*
X513381Y589038D01*
X513404Y589031D01*
X513555Y589024D01*
X513704Y589012D01*
X513728Y589015D01*
X513752Y589014D01*
X513900Y589041D01*
X514049Y589063D01*
X514071Y589072D01*
X514095Y589077D01*
X514233Y589136D01*
X514373Y589192D01*
X514393Y589206D01*
X514415Y589215D01*
X514536Y589305D01*
X514659Y589391D01*
X514675Y589409D01*
X514695Y589423D01*
X514792Y589538D01*
X514892Y589650D01*
X514904Y589671D01*
X514920Y589689D01*
X514988Y589823D01*
X515061Y589955D01*
X515067Y589978D01*
X515078Y590000D01*
X515115Y590145D01*
X515156Y590290D01*
X515158Y590319D01*
X515163Y590338D01*
X515163Y590385D01*
X515175Y590534D01*
X515175Y606985D01*
X516722Y610720D01*
X517239Y611236D01*
X517286Y611296D01*
X517341Y611349D01*
X517394Y611432D01*
X517455Y611509D01*
X517488Y611578D01*
X517529Y611643D01*
X517562Y611735D01*
X517604Y611824D01*
X517620Y611899D01*
X517646Y611971D01*
X517657Y612069D01*
X517678Y612165D01*
X517676Y612241D01*
X517685Y612317D01*
X517673Y612415D01*
X517672Y612513D01*
X517653Y612587D01*
X517644Y612663D01*
X517598Y612806D01*
X517587Y612851D01*
X517578Y612868D01*
X517569Y612896D01*
X515175Y618675D01*
X515175Y625925D01*
X517950Y632624D01*
X523076Y637750D01*
X529775Y640525D01*
X537025Y640525D01*
X542804Y638131D01*
X542877Y638110D01*
X542948Y638080D01*
X543044Y638062D01*
X543139Y638035D01*
X543215Y638032D01*
X543291Y638018D01*
X543389Y638023D01*
X543487Y638018D01*
X543562Y638032D01*
X543639Y638036D01*
X543733Y638063D01*
X543830Y638081D01*
X543900Y638112D01*
X543973Y638133D01*
X544059Y638181D01*
X544150Y638220D01*
X544211Y638265D01*
X544278Y638303D01*
X544391Y638400D01*
X544429Y638428D01*
X544442Y638442D01*
X544464Y638461D01*
X544980Y638978D01*
X548715Y640525D01*
X568885Y640525D01*
X572620Y638978D01*
X575478Y636120D01*
X577025Y632385D01*
X577025Y612215D01*
X575478Y608480D01*
X572620Y605622D01*
X568885Y604075D01*
X553148Y604075D01*
X553122Y604072D01*
X553096Y604074D01*
X552949Y604052D01*
X552802Y604035D01*
X552777Y604027D01*
X552751Y604023D01*
X552613Y603968D01*
X552474Y603918D01*
X552452Y603904D01*
X552427Y603894D01*
X552306Y603809D01*
X552181Y603729D01*
X552163Y603710D01*
X552141Y603695D01*
X552042Y603585D01*
X551939Y603478D01*
X551925Y603456D01*
X551908Y603436D01*
X551836Y603306D01*
X551760Y603179D01*
X551752Y603154D01*
X551739Y603131D01*
X551699Y602988D01*
X551654Y602847D01*
X551652Y602821D01*
X551644Y602796D01*
X551625Y602552D01*
X551625Y595472D01*
X551639Y595346D01*
X551646Y595220D01*
X551659Y595174D01*
X551665Y595126D01*
X551707Y595006D01*
X551742Y594885D01*
X551766Y594843D01*
X551782Y594797D01*
X551851Y594691D01*
X551912Y594581D01*
X551952Y594535D01*
X551971Y594505D01*
X552006Y594471D01*
X552071Y594395D01*
X556295Y590171D01*
X556394Y590092D01*
X556487Y590008D01*
X556530Y589984D01*
X556568Y589954D01*
X556682Y589900D01*
X556793Y589839D01*
X556839Y589826D01*
X556883Y589805D01*
X557006Y589779D01*
X557128Y589744D01*
X557189Y589739D01*
X557223Y589732D01*
X557271Y589733D01*
X557372Y589725D01*
X562425Y589725D01*
X569124Y586950D01*
X574250Y581824D01*
X577025Y575125D01*
X577025Y567699D01*
X577036Y567599D01*
X577038Y567499D01*
X577056Y567427D01*
X577065Y567353D01*
X577098Y567258D01*
X577123Y567161D01*
X577157Y567095D01*
X577182Y567025D01*
X577237Y566940D01*
X577283Y566851D01*
X577331Y566794D01*
X577371Y566732D01*
X577443Y566662D01*
X577508Y566586D01*
X577568Y566541D01*
X577622Y566490D01*
X577708Y566438D01*
X577789Y566378D01*
X577857Y566349D01*
X577921Y566311D01*
X578017Y566280D01*
X578109Y566240D01*
X578182Y566227D01*
X578253Y566205D01*
X578353Y566197D01*
X578452Y566179D01*
X578526Y566183D01*
X578600Y566177D01*
X578700Y566192D01*
X578800Y566197D01*
X578871Y566217D01*
X578945Y566228D01*
X579038Y566265D01*
X579135Y566293D01*
X579200Y566330D01*
X579269Y566357D01*
X579351Y566414D01*
X579439Y566463D01*
X579515Y566529D01*
X579555Y566556D01*
X579579Y566582D01*
X579625Y566622D01*
X583937Y570934D01*
X589902Y574378D01*
X596556Y576161D01*
X603444Y576161D01*
X610098Y574378D01*
X614934Y571585D01*
X615004Y571555D01*
X615069Y571516D01*
X615163Y571486D01*
X615254Y571447D01*
X615329Y571433D01*
X615401Y571410D01*
X615500Y571402D01*
X615597Y571385D01*
X615673Y571388D01*
X615748Y571382D01*
X615846Y571397D01*
X615945Y571402D01*
X616018Y571423D01*
X616093Y571434D01*
X616185Y571471D01*
X616280Y571498D01*
X616346Y571535D01*
X616417Y571563D01*
X616498Y571619D01*
X616585Y571667D01*
X616641Y571718D01*
X616703Y571762D01*
X616769Y571835D01*
X616843Y571902D01*
X616886Y571964D01*
X616936Y572020D01*
X616984Y572107D01*
X617041Y572189D01*
X617068Y572259D01*
X617105Y572325D01*
X617132Y572421D01*
X617168Y572513D01*
X617179Y572588D01*
X617200Y572661D01*
X617212Y572812D01*
X617219Y572858D01*
X617217Y572876D01*
X617219Y572905D01*
X617219Y577584D01*
X618960Y581785D01*
X627635Y590461D01*
X630838Y593664D01*
X630901Y593742D01*
X630971Y593815D01*
X631009Y593879D01*
X631055Y593937D01*
X631098Y594028D01*
X631149Y594114D01*
X631172Y594185D01*
X631204Y594252D01*
X631225Y594350D01*
X631256Y594446D01*
X631262Y594520D01*
X631277Y594593D01*
X631276Y594693D01*
X631284Y594793D01*
X631273Y594867D01*
X631271Y594941D01*
X631247Y595038D01*
X631232Y595138D01*
X631204Y595207D01*
X631186Y595279D01*
X631140Y595368D01*
X631103Y595462D01*
X631061Y595523D01*
X631027Y595589D01*
X630962Y595665D01*
X630904Y595748D01*
X630849Y595798D01*
X630801Y595854D01*
X630720Y595914D01*
X630646Y595981D01*
X630580Y596017D01*
X630521Y596062D01*
X630428Y596101D01*
X630341Y596150D01*
X630269Y596170D01*
X630201Y596200D01*
X630102Y596217D01*
X630005Y596245D01*
X629905Y596253D01*
X629858Y596261D01*
X629822Y596259D01*
X629761Y596264D01*
X629476Y596264D01*
X621664Y604076D01*
X621664Y606807D01*
X633730Y606807D01*
X633756Y606810D01*
X633782Y606808D01*
X633929Y606830D01*
X634076Y606847D01*
X634101Y606855D01*
X634127Y606859D01*
X634264Y606914D01*
X634404Y606964D01*
X634426Y606978D01*
X634451Y606988D01*
X634572Y607073D01*
X634697Y607153D01*
X634715Y607172D01*
X634737Y607187D01*
X634836Y607297D01*
X634939Y607404D01*
X634953Y607426D01*
X634970Y607446D01*
X635002Y607503D01*
X635013Y607488D01*
X635093Y607363D01*
X635112Y607345D01*
X635127Y607323D01*
X635237Y607224D01*
X635344Y607121D01*
X635367Y607107D01*
X635386Y607090D01*
X635516Y607018D01*
X635643Y606942D01*
X635668Y606934D01*
X635691Y606921D01*
X635834Y606881D01*
X635975Y606836D01*
X636001Y606833D01*
X636026Y606826D01*
X636270Y606807D01*
X648336Y606807D01*
X648336Y604076D01*
X642491Y598231D01*
X642428Y598153D01*
X642358Y598080D01*
X642320Y598016D01*
X642274Y597958D01*
X642231Y597867D01*
X642180Y597781D01*
X642157Y597710D01*
X642125Y597643D01*
X642104Y597545D01*
X642073Y597449D01*
X642067Y597375D01*
X642052Y597302D01*
X642053Y597202D01*
X642045Y597102D01*
X642056Y597028D01*
X642058Y596954D01*
X642082Y596857D01*
X642097Y596757D01*
X642125Y596688D01*
X642143Y596616D01*
X642189Y596526D01*
X642226Y596433D01*
X642268Y596372D01*
X642302Y596306D01*
X642368Y596229D01*
X642425Y596147D01*
X642480Y596097D01*
X642528Y596041D01*
X642609Y595981D01*
X642684Y595914D01*
X642749Y595878D01*
X642808Y595833D01*
X642901Y595794D01*
X642989Y595745D01*
X643060Y595725D01*
X643128Y595695D01*
X643227Y595678D01*
X643324Y595650D01*
X643424Y595642D01*
X643471Y595634D01*
X643507Y595636D01*
X643568Y595631D01*
X653756Y595631D01*
X653856Y595642D01*
X653956Y595644D01*
X654028Y595662D01*
X654102Y595671D01*
X654197Y595704D01*
X654294Y595729D01*
X654360Y595763D01*
X654430Y595788D01*
X654515Y595843D01*
X654604Y595889D01*
X654661Y595937D01*
X654723Y595977D01*
X654793Y596049D01*
X654869Y596114D01*
X654914Y596174D01*
X654965Y596228D01*
X655017Y596314D01*
X655077Y596395D01*
X655106Y596463D01*
X655144Y596527D01*
X655175Y596623D01*
X655215Y596715D01*
X655228Y596788D01*
X655250Y596859D01*
X655258Y596959D01*
X655276Y597058D01*
X655272Y597132D01*
X655278Y597206D01*
X655263Y597306D01*
X655258Y597406D01*
X655238Y597477D01*
X655227Y597551D01*
X655190Y597644D01*
X655162Y597741D01*
X655125Y597806D01*
X655098Y597875D01*
X655041Y597957D01*
X654992Y598045D01*
X654926Y598121D01*
X654899Y598161D01*
X654873Y598185D01*
X654833Y598231D01*
X652144Y600920D01*
X652144Y618280D01*
X664420Y630556D01*
X681780Y630556D01*
X687239Y625097D01*
X687317Y625035D01*
X687390Y624965D01*
X687454Y624926D01*
X687512Y624880D01*
X687603Y624837D01*
X687689Y624786D01*
X687760Y624763D01*
X687827Y624731D01*
X687925Y624710D01*
X688021Y624680D01*
X688095Y624674D01*
X688168Y624658D01*
X688268Y624660D01*
X688368Y624652D01*
X688442Y624663D01*
X688516Y624664D01*
X688613Y624688D01*
X688713Y624703D01*
X688782Y624731D01*
X688854Y624749D01*
X688944Y624795D01*
X689037Y624832D01*
X689098Y624874D01*
X689164Y624909D01*
X689241Y624974D01*
X689323Y625031D01*
X689373Y625086D01*
X689429Y625134D01*
X689489Y625215D01*
X689556Y625290D01*
X689592Y625355D01*
X689637Y625415D01*
X689676Y625507D01*
X689725Y625595D01*
X689745Y625666D01*
X689775Y625735D01*
X689792Y625834D01*
X689820Y625930D01*
X689828Y626030D01*
X689836Y626078D01*
X689834Y626113D01*
X689839Y626174D01*
X689839Y649876D01*
X689831Y649951D01*
X689832Y650027D01*
X689811Y650124D01*
X689799Y650222D01*
X689774Y650294D01*
X689758Y650368D01*
X689715Y650457D01*
X689682Y650550D01*
X689641Y650614D01*
X689608Y650682D01*
X689547Y650760D01*
X689493Y650843D01*
X689438Y650896D01*
X689391Y650955D01*
X689313Y651017D01*
X689242Y651085D01*
X689177Y651124D01*
X689118Y651171D01*
X689028Y651213D01*
X688943Y651264D01*
X688871Y651287D01*
X688802Y651320D01*
X688705Y651340D01*
X688611Y651370D01*
X688536Y651376D01*
X688462Y651392D01*
X688362Y651390D01*
X688264Y651398D01*
X688189Y651387D01*
X688113Y651386D01*
X688017Y651361D01*
X687919Y651347D01*
X687849Y651319D01*
X687775Y651300D01*
X687639Y651235D01*
X687595Y651218D01*
X687580Y651207D01*
X687554Y651195D01*
X683098Y648622D01*
X676444Y646839D01*
X669556Y646839D01*
X662902Y648622D01*
X656937Y652066D01*
X652066Y656937D01*
X648622Y662902D01*
X646839Y669556D01*
X646839Y676444D01*
X648622Y683098D01*
X651195Y687554D01*
X651225Y687624D01*
X651264Y687689D01*
X651294Y687783D01*
X651334Y687874D01*
X651347Y687949D01*
X651370Y688021D01*
X651378Y688120D01*
X651396Y688217D01*
X651392Y688293D01*
X651398Y688368D01*
X651384Y688466D01*
X651379Y688565D01*
X651358Y688638D01*
X651347Y688713D01*
X651310Y688805D01*
X651283Y688900D01*
X651246Y688966D01*
X651218Y689037D01*
X651161Y689118D01*
X651113Y689205D01*
X651062Y689261D01*
X651019Y689323D01*
X650945Y689389D01*
X650879Y689463D01*
X650817Y689506D01*
X650760Y689556D01*
X650673Y689604D01*
X650592Y689661D01*
X650522Y689688D01*
X650455Y689725D01*
X650360Y689752D01*
X650268Y689788D01*
X650193Y689799D01*
X650120Y689820D01*
X649969Y689832D01*
X649923Y689839D01*
X649904Y689837D01*
X649876Y689839D01*
X609746Y689839D01*
X609646Y689828D01*
X609546Y689826D01*
X609474Y689808D01*
X609400Y689799D01*
X609306Y689766D01*
X609208Y689741D01*
X609142Y689707D01*
X609072Y689682D01*
X608988Y689627D01*
X608898Y689581D01*
X608842Y689533D01*
X608779Y689493D01*
X608709Y689421D01*
X608633Y689356D01*
X608589Y689296D01*
X608537Y689242D01*
X608485Y689156D01*
X608426Y689075D01*
X608396Y689007D01*
X608358Y688943D01*
X608327Y688847D01*
X608288Y688755D01*
X608275Y688682D01*
X608252Y688611D01*
X608244Y688511D01*
X608226Y688412D01*
X608230Y688338D01*
X608224Y688264D01*
X608239Y688164D01*
X608244Y688064D01*
X608265Y687993D01*
X608276Y687919D01*
X608313Y687826D01*
X608340Y687729D01*
X608377Y687664D01*
X608404Y687595D01*
X608462Y687513D01*
X608511Y687425D01*
X608576Y687349D01*
X608603Y687309D01*
X608630Y687285D01*
X608669Y687239D01*
X611317Y684591D01*
X613347Y679690D01*
X613347Y674699D01*
X613154Y674163D01*
X613132Y674071D01*
X613101Y673982D01*
X613092Y673902D01*
X613074Y673824D01*
X613074Y673729D01*
X613064Y673636D01*
X613073Y673556D01*
X613073Y673475D01*
X613094Y673383D01*
X613106Y673290D01*
X613141Y673184D01*
X613152Y673135D01*
X613166Y673107D01*
X613182Y673057D01*
X613656Y671927D01*
X613674Y667632D01*
X612047Y663658D01*
X610535Y662133D01*
X608259Y659838D01*
X602291Y657351D01*
X596406Y657351D01*
X593035Y658748D01*
X592913Y658783D01*
X592794Y658825D01*
X592746Y658830D01*
X592700Y658843D01*
X592574Y658850D01*
X592448Y658864D01*
X592400Y658858D01*
X592352Y658860D01*
X592227Y658838D01*
X592102Y658823D01*
X592044Y658804D01*
X592009Y658798D01*
X591965Y658779D01*
X591869Y658748D01*
X590030Y657986D01*
X585736Y657986D01*
X581768Y659630D01*
X578719Y662678D01*
X578684Y662741D01*
X578630Y662855D01*
X578600Y662893D01*
X578576Y662935D01*
X578492Y663029D01*
X578413Y663127D01*
X578375Y663157D01*
X578342Y663193D01*
X578239Y663265D01*
X578139Y663343D01*
X578085Y663371D01*
X578056Y663391D01*
X578011Y663409D01*
X577922Y663455D01*
X577826Y663495D01*
X577752Y663516D01*
X577682Y663546D01*
X577585Y663563D01*
X577491Y663590D01*
X577414Y663594D01*
X577339Y663608D01*
X577241Y663602D01*
X577142Y663607D01*
X577067Y663594D01*
X576991Y663590D01*
X576896Y663562D01*
X576800Y663545D01*
X576729Y663514D01*
X576656Y663493D01*
X576570Y663445D01*
X576480Y663406D01*
X576418Y663360D01*
X576352Y663323D01*
X576238Y663226D01*
X576200Y663198D01*
X576188Y663183D01*
X576165Y663164D01*
X566796Y653795D01*
X550804Y653795D01*
X548616Y655983D01*
X548556Y656030D01*
X548503Y656085D01*
X548420Y656138D01*
X548343Y656199D01*
X548274Y656232D01*
X548210Y656273D01*
X548117Y656306D01*
X548028Y656348D01*
X547953Y656364D01*
X547881Y656390D01*
X547783Y656401D01*
X547687Y656422D01*
X547611Y656420D01*
X547535Y656429D01*
X547437Y656417D01*
X547339Y656416D01*
X547265Y656397D01*
X547189Y656388D01*
X547047Y656342D01*
X547001Y656331D01*
X546984Y656322D01*
X546956Y656313D01*
X543485Y654875D01*
X523315Y654875D01*
X519580Y656422D01*
X516722Y659280D01*
X515175Y663015D01*
X515175Y683185D01*
X516722Y686920D01*
X517041Y687239D01*
X517104Y687317D01*
X517174Y687390D01*
X517212Y687454D01*
X517258Y687512D01*
X517301Y687603D01*
X517353Y687689D01*
X517375Y687760D01*
X517407Y687827D01*
X517428Y687925D01*
X517459Y688021D01*
X517465Y688095D01*
X517480Y688168D01*
X517479Y688268D01*
X517487Y688368D01*
X517476Y688442D01*
X517474Y688516D01*
X517450Y688614D01*
X517435Y688713D01*
X517408Y688782D01*
X517389Y688854D01*
X517344Y688943D01*
X517306Y689037D01*
X517264Y689098D01*
X517230Y689164D01*
X517165Y689240D01*
X517107Y689323D01*
X517052Y689373D01*
X517004Y689429D01*
X516923Y689489D01*
X516849Y689556D01*
X516783Y689592D01*
X516724Y689637D01*
X516632Y689676D01*
X516544Y689725D01*
X516472Y689745D01*
X516404Y689775D01*
X516305Y689792D01*
X516208Y689820D01*
X516108Y689828D01*
X516061Y689836D01*
X516025Y689834D01*
X515964Y689839D01*
X475406Y689839D01*
X475356Y689834D01*
X475306Y689836D01*
X475183Y689814D01*
X475060Y689799D01*
X475012Y689782D01*
X474963Y689773D01*
X474849Y689724D01*
X474732Y689682D01*
X474689Y689655D01*
X474643Y689634D01*
X474544Y689560D01*
X474439Y689493D01*
X474404Y689457D01*
X474364Y689427D01*
X474283Y689332D01*
X474197Y689242D01*
X474171Y689199D01*
X474138Y689161D01*
X474082Y689050D01*
X474018Y688943D01*
X474003Y688895D01*
X473980Y688850D01*
X473950Y688730D01*
X473912Y688611D01*
X473908Y688561D01*
X473896Y688512D01*
X473894Y688388D01*
X473884Y688264D01*
X473891Y688214D01*
X473890Y688164D01*
X473917Y688042D01*
X473935Y687919D01*
X473954Y687872D01*
X473965Y687823D01*
X474018Y687711D01*
X474064Y687595D01*
X474093Y687554D01*
X474115Y687508D01*
X474192Y687411D01*
X474263Y687309D01*
X474300Y687276D01*
X474332Y687236D01*
X474430Y687159D01*
X474522Y687076D01*
X474566Y687051D01*
X474605Y687020D01*
X474823Y686909D01*
X475041Y686818D01*
X478792Y683067D01*
X480834Y678138D01*
X480907Y678006D01*
X480976Y677873D01*
X480992Y677854D01*
X481004Y677833D01*
X481105Y677722D01*
X481202Y677607D01*
X481222Y677593D01*
X481238Y677575D01*
X481361Y677489D01*
X481482Y677400D01*
X481505Y677390D01*
X481524Y677377D01*
X481664Y677321D01*
X481802Y677262D01*
X481826Y677258D01*
X481849Y677249D01*
X481997Y677227D01*
X482145Y677200D01*
X482170Y677202D01*
X482193Y677198D01*
X482344Y677211D01*
X482493Y677218D01*
X482517Y677225D01*
X482541Y677227D01*
X482684Y677273D01*
X482828Y677315D01*
X482849Y677327D01*
X482872Y677334D01*
X483001Y677411D01*
X483132Y677485D01*
X483155Y677504D01*
X483171Y677514D01*
X483205Y677546D01*
X483319Y677643D01*
X490460Y684785D01*
X492761Y684785D01*
X492761Y674116D01*
X492764Y674090D01*
X492762Y674064D01*
X492784Y673917D01*
X492801Y673770D01*
X492809Y673745D01*
X492813Y673719D01*
X492868Y673582D01*
X492918Y673442D01*
X492932Y673420D01*
X492942Y673395D01*
X493027Y673274D01*
X493107Y673149D01*
X493126Y673131D01*
X493141Y673109D01*
X493157Y673095D01*
X493075Y673010D01*
X493061Y672987D01*
X493044Y672968D01*
X492972Y672838D01*
X492896Y672711D01*
X492888Y672686D01*
X492875Y672663D01*
X492835Y672520D01*
X492790Y672379D01*
X492787Y672353D01*
X492780Y672328D01*
X492761Y672084D01*
X492761Y661415D01*
X490460Y661415D01*
X483423Y668452D01*
X483345Y668515D01*
X483272Y668584D01*
X483208Y668623D01*
X483150Y668669D01*
X483059Y668712D01*
X482973Y668763D01*
X482902Y668786D01*
X482835Y668818D01*
X482737Y668839D01*
X482641Y668870D01*
X482567Y668875D01*
X482494Y668891D01*
X482394Y668889D01*
X482294Y668897D01*
X482220Y668886D01*
X482146Y668885D01*
X482049Y668861D01*
X481949Y668846D01*
X481880Y668818D01*
X481808Y668800D01*
X481718Y668754D01*
X481625Y668717D01*
X481564Y668675D01*
X481498Y668641D01*
X481421Y668575D01*
X481339Y668518D01*
X481289Y668463D01*
X481233Y668415D01*
X481173Y668334D01*
X481106Y668259D01*
X481070Y668194D01*
X481025Y668134D01*
X480986Y668042D01*
X480937Y667954D01*
X480917Y667883D01*
X480887Y667814D01*
X480870Y667716D01*
X480842Y667619D01*
X480834Y667519D01*
X480826Y667471D01*
X480828Y667436D01*
X480823Y667375D01*
X480823Y666510D01*
X478792Y661609D01*
X475041Y657858D01*
X470140Y655827D01*
X461530Y655827D01*
X461339Y655906D01*
X461217Y655941D01*
X461098Y655983D01*
X461050Y655989D01*
X461004Y656002D01*
X460926Y656006D01*
X460829Y656014D01*
X460752Y656022D01*
X460704Y656017D01*
X460656Y656019D01*
X460531Y655996D01*
X460406Y655981D01*
X460348Y655963D01*
X460313Y655956D01*
X460269Y655937D01*
X460173Y655906D01*
X459982Y655827D01*
X455688Y655827D01*
X455243Y656011D01*
X455122Y656046D01*
X455002Y656088D01*
X454954Y656094D01*
X454908Y656107D01*
X454782Y656113D01*
X454656Y656127D01*
X454608Y656122D01*
X454560Y656124D01*
X454435Y656101D01*
X454310Y656087D01*
X454252Y656068D01*
X454217Y656062D01*
X454173Y656042D01*
X454077Y656011D01*
X453632Y655827D01*
X453210Y655827D01*
X453121Y655817D01*
X453032Y655817D01*
X452914Y655793D01*
X452864Y655787D01*
X452837Y655778D01*
X452792Y655769D01*
X452386Y655653D01*
X450954Y655817D01*
X450904Y655817D01*
X450780Y655827D01*
X449338Y655827D01*
X449147Y655906D01*
X449025Y655941D01*
X448906Y655983D01*
X448858Y655989D01*
X448812Y656002D01*
X448735Y656006D01*
X448637Y656014D01*
X448560Y656022D01*
X448512Y656017D01*
X448464Y656019D01*
X448339Y655996D01*
X448214Y655981D01*
X448156Y655963D01*
X448121Y655956D01*
X448077Y655937D01*
X447981Y655906D01*
X447790Y655827D01*
X439689Y655827D01*
X434554Y657954D01*
X430624Y661884D01*
X428497Y667019D01*
X428497Y677657D01*
X430624Y682792D01*
X434554Y686722D01*
X435005Y686909D01*
X435049Y686933D01*
X435097Y686950D01*
X435201Y687018D01*
X435310Y687078D01*
X435347Y687112D01*
X435390Y687139D01*
X435476Y687229D01*
X435568Y687312D01*
X435597Y687354D01*
X435632Y687390D01*
X435696Y687497D01*
X435766Y687599D01*
X435785Y687646D01*
X435811Y687689D01*
X435849Y687807D01*
X435894Y687923D01*
X435902Y687973D01*
X435917Y688021D01*
X435927Y688145D01*
X435945Y688268D01*
X435941Y688318D01*
X435945Y688368D01*
X435926Y688491D01*
X435916Y688615D01*
X435901Y688663D01*
X435893Y688713D01*
X435847Y688828D01*
X435809Y688947D01*
X435783Y688990D01*
X435764Y689037D01*
X435694Y689139D01*
X435629Y689245D01*
X435594Y689282D01*
X435566Y689323D01*
X435473Y689406D01*
X435387Y689495D01*
X435344Y689523D01*
X435307Y689556D01*
X435198Y689616D01*
X435093Y689684D01*
X435046Y689701D01*
X435002Y689725D01*
X434882Y689759D01*
X434765Y689800D01*
X434715Y689806D01*
X434666Y689820D01*
X434423Y689839D01*
X367288Y689839D01*
X367189Y689828D01*
X367088Y689826D01*
X367016Y689808D01*
X366942Y689799D01*
X366848Y689766D01*
X366750Y689741D01*
X366684Y689707D01*
X366614Y689682D01*
X366530Y689627D01*
X366440Y689581D01*
X366384Y689533D01*
X366321Y689493D01*
X366251Y689421D01*
X366175Y689356D01*
X366131Y689296D01*
X366079Y689242D01*
X366028Y689156D01*
X365968Y689075D01*
X365938Y689007D01*
X365900Y688943D01*
X365870Y688848D01*
X365830Y688755D01*
X365817Y688682D01*
X365794Y688611D01*
X365786Y688511D01*
X365768Y688412D01*
X365772Y688338D01*
X365766Y688264D01*
X365781Y688165D01*
X365786Y688064D01*
X365807Y687993D01*
X365818Y687919D01*
X365855Y687826D01*
X365883Y687729D01*
X365919Y687664D01*
X365946Y687595D01*
X366004Y687513D01*
X366053Y687425D01*
X366118Y687349D01*
X366145Y687309D01*
X366172Y687285D01*
X366211Y687239D01*
X366248Y687203D01*
X366248Y672052D01*
X360526Y666330D01*
X360510Y666309D01*
X360490Y666292D01*
X360401Y666173D01*
X360309Y666057D01*
X360298Y666033D01*
X360282Y666012D01*
X360224Y665876D01*
X360160Y665742D01*
X360155Y665716D01*
X360144Y665692D01*
X360118Y665546D01*
X360087Y665401D01*
X360087Y665375D01*
X360083Y665349D01*
X360090Y665201D01*
X360093Y665053D01*
X360099Y665027D01*
X360101Y665001D01*
X360142Y664859D01*
X360178Y664715D01*
X360190Y664691D01*
X360197Y664666D01*
X360269Y664537D01*
X360338Y664405D01*
X360355Y664385D01*
X360367Y664362D01*
X360526Y664176D01*
X504825Y519877D01*
X504924Y519798D01*
X505018Y519714D01*
X505060Y519690D01*
X505098Y519660D01*
X505212Y519606D01*
X505323Y519545D01*
X505369Y519532D01*
X505413Y519511D01*
X505536Y519485D01*
X505658Y519450D01*
X505719Y519445D01*
X505754Y519438D01*
X505802Y519439D01*
X505902Y519431D01*
X586474Y519431D01*
X590675Y517690D01*
X654250Y454115D01*
X657680Y450686D01*
X659420Y446484D01*
X659420Y257216D01*
X659432Y257116D01*
X659433Y257015D01*
X659452Y256943D01*
X659460Y256869D01*
X659494Y256775D01*
X659518Y256677D01*
X659553Y256611D01*
X659578Y256541D01*
X659632Y256457D01*
X659678Y256368D01*
X659726Y256311D01*
X659767Y256248D01*
X659839Y256179D01*
X659904Y256102D01*
X659964Y256058D01*
X660017Y256006D01*
X660103Y255955D01*
X660184Y255895D01*
X660253Y255866D01*
X660316Y255827D01*
X660412Y255797D01*
X660504Y255757D01*
X660578Y255744D01*
X660648Y255721D01*
X660748Y255713D01*
X660847Y255695D01*
X660922Y255699D01*
X660996Y255693D01*
X661095Y255708D01*
G37*
%LPC*%
G36*
X357298Y333247D02*
X357298Y333247D01*
X350109Y336225D01*
X344607Y341727D01*
X341629Y348916D01*
X341629Y356696D01*
X344466Y363545D01*
X344507Y363690D01*
X344553Y363832D01*
X344555Y363856D01*
X344562Y363880D01*
X344569Y364030D01*
X344581Y364180D01*
X344577Y364204D01*
X344579Y364228D01*
X344552Y364376D01*
X344529Y364524D01*
X344520Y364547D01*
X344516Y364571D01*
X344456Y364709D01*
X344401Y364848D01*
X344387Y364868D01*
X344377Y364890D01*
X344287Y365011D01*
X344202Y365134D01*
X344184Y365151D01*
X344169Y365170D01*
X344054Y365267D01*
X343943Y365368D01*
X343922Y365380D01*
X343903Y365395D01*
X343770Y365464D01*
X343638Y365536D01*
X343614Y365543D01*
X343593Y365554D01*
X343447Y365590D01*
X343302Y365631D01*
X343273Y365634D01*
X343255Y365638D01*
X343208Y365639D01*
X343059Y365651D01*
X335690Y365651D01*
X331956Y367198D01*
X329098Y370056D01*
X327551Y373790D01*
X327551Y393961D01*
X329098Y397695D01*
X331956Y400553D01*
X335690Y402100D01*
X342646Y402100D01*
X342672Y402103D01*
X342698Y402101D01*
X342845Y402123D01*
X342992Y402140D01*
X343017Y402149D01*
X343043Y402153D01*
X343181Y402208D01*
X343320Y402258D01*
X343342Y402272D01*
X343367Y402282D01*
X343488Y402366D01*
X343613Y402447D01*
X343631Y402466D01*
X343653Y402481D01*
X343752Y402590D01*
X343855Y402697D01*
X343869Y402720D01*
X343886Y402739D01*
X343958Y402869D01*
X344034Y402996D01*
X344042Y403021D01*
X344055Y403044D01*
X344095Y403187D01*
X344140Y403328D01*
X344142Y403354D01*
X344150Y403380D01*
X344169Y403624D01*
X344169Y416826D01*
X344155Y416952D01*
X344148Y417078D01*
X344135Y417124D01*
X344129Y417172D01*
X344087Y417291D01*
X344052Y417413D01*
X344028Y417455D01*
X344012Y417500D01*
X343943Y417607D01*
X343882Y417717D01*
X343842Y417763D01*
X343823Y417793D01*
X343788Y417827D01*
X343723Y417903D01*
X340150Y421476D01*
X337375Y428175D01*
X337375Y435425D01*
X340247Y442358D01*
X340268Y442431D01*
X340298Y442501D01*
X340315Y442598D01*
X340343Y442693D01*
X340346Y442769D01*
X340360Y442844D01*
X340355Y442943D01*
X340360Y443041D01*
X340346Y443116D01*
X340342Y443193D01*
X340315Y443287D01*
X340297Y443384D01*
X340266Y443454D01*
X340245Y443527D01*
X340197Y443613D01*
X340158Y443704D01*
X340113Y443765D01*
X340075Y443832D01*
X339978Y443945D01*
X339950Y443983D01*
X339936Y443996D01*
X339917Y444018D01*
X323939Y459995D01*
X320510Y463425D01*
X318769Y467626D01*
X318769Y497574D01*
X320510Y501775D01*
X336929Y518195D01*
X337008Y518294D01*
X337092Y518388D01*
X337116Y518430D01*
X337146Y518468D01*
X337200Y518582D01*
X337261Y518693D01*
X337274Y518739D01*
X337295Y518783D01*
X337321Y518906D01*
X337356Y519028D01*
X337361Y519089D01*
X337368Y519123D01*
X337367Y519171D01*
X337375Y519272D01*
X337375Y524325D01*
X340150Y531024D01*
X345276Y536150D01*
X351975Y538925D01*
X359225Y538925D01*
X365924Y536150D01*
X371050Y531024D01*
X373825Y524325D01*
X373825Y517075D01*
X371050Y510376D01*
X365924Y505250D01*
X359225Y502475D01*
X354172Y502475D01*
X354046Y502461D01*
X353920Y502454D01*
X353874Y502441D01*
X353826Y502435D01*
X353707Y502393D01*
X353585Y502358D01*
X353543Y502334D01*
X353497Y502318D01*
X353391Y502249D01*
X353281Y502188D01*
X353235Y502148D01*
X353205Y502129D01*
X353171Y502094D01*
X353095Y502029D01*
X342077Y491011D01*
X342007Y490923D01*
X341995Y490911D01*
X341991Y490904D01*
X341914Y490818D01*
X341890Y490776D01*
X341860Y490738D01*
X341806Y490624D01*
X341745Y490513D01*
X341732Y490467D01*
X341711Y490423D01*
X341685Y490300D01*
X341650Y490178D01*
X341645Y490117D01*
X341638Y490083D01*
X341639Y490035D01*
X341631Y489934D01*
X341631Y475266D01*
X341645Y475140D01*
X341652Y475014D01*
X341665Y474968D01*
X341671Y474920D01*
X341713Y474801D01*
X341748Y474679D01*
X341772Y474637D01*
X341788Y474591D01*
X341857Y474485D01*
X341918Y474375D01*
X341958Y474329D01*
X341977Y474299D01*
X342012Y474265D01*
X342077Y474189D01*
X365290Y450975D01*
X367031Y446774D01*
X367045Y446648D01*
X367052Y446522D01*
X367065Y446476D01*
X367071Y446428D01*
X367113Y446309D01*
X367148Y446187D01*
X367172Y446145D01*
X367188Y446100D01*
X367257Y445993D01*
X367318Y445883D01*
X367358Y445837D01*
X367377Y445807D01*
X367412Y445773D01*
X367477Y445697D01*
X371050Y442124D01*
X373825Y435425D01*
X373825Y428175D01*
X371050Y421476D01*
X367477Y417903D01*
X367408Y417816D01*
X367387Y417795D01*
X367382Y417786D01*
X367314Y417710D01*
X367290Y417668D01*
X367260Y417630D01*
X367206Y417516D01*
X367145Y417405D01*
X367132Y417359D01*
X367111Y417315D01*
X367085Y417192D01*
X367050Y417070D01*
X367045Y417009D01*
X367038Y416974D01*
X367039Y416926D01*
X367031Y416826D01*
X367031Y391426D01*
X365290Y387225D01*
X364446Y386381D01*
X364368Y386282D01*
X364283Y386188D01*
X364260Y386146D01*
X364230Y386108D01*
X364176Y385994D01*
X364115Y385883D01*
X364102Y385837D01*
X364081Y385793D01*
X364054Y385669D01*
X364020Y385548D01*
X364015Y385487D01*
X364008Y385452D01*
X364008Y385404D01*
X364000Y385304D01*
X364000Y373829D01*
X364009Y373753D01*
X364008Y373677D01*
X364029Y373581D01*
X364040Y373483D01*
X364066Y373411D01*
X364082Y373336D01*
X364124Y373247D01*
X364158Y373155D01*
X364199Y373091D01*
X364232Y373022D01*
X364293Y372945D01*
X364347Y372862D01*
X364402Y372809D01*
X364449Y372749D01*
X364527Y372688D01*
X364597Y372620D01*
X364663Y372581D01*
X364723Y372533D01*
X364856Y372465D01*
X364896Y372441D01*
X364914Y372435D01*
X364941Y372422D01*
X372267Y369387D01*
X377769Y363885D01*
X380747Y356696D01*
X380747Y348916D01*
X377769Y341727D01*
X372267Y336225D01*
X365078Y333247D01*
X357298Y333247D01*
G37*
%LPD*%
%LPC*%
G36*
X369676Y30987D02*
X369676Y30987D01*
X362394Y34004D01*
X356820Y39577D01*
X353804Y46859D01*
X353804Y54741D01*
X356820Y62023D01*
X357220Y62423D01*
X357237Y62443D01*
X357257Y62460D01*
X357304Y62524D01*
X357327Y62548D01*
X357349Y62585D01*
X357437Y62696D01*
X357448Y62720D01*
X357464Y62741D01*
X357522Y62877D01*
X357586Y63011D01*
X357591Y63037D01*
X357602Y63061D01*
X357628Y63207D01*
X357659Y63352D01*
X357659Y63378D01*
X357663Y63404D01*
X357656Y63552D01*
X357653Y63700D01*
X357647Y63726D01*
X357645Y63752D01*
X357604Y63894D01*
X357568Y64038D01*
X357556Y64061D01*
X357549Y64087D01*
X357477Y64216D01*
X357409Y64348D01*
X357392Y64368D01*
X357379Y64391D01*
X357220Y64577D01*
X356820Y64977D01*
X353804Y72259D01*
X353804Y80141D01*
X356820Y87423D01*
X357220Y87823D01*
X357237Y87843D01*
X357257Y87860D01*
X357345Y87980D01*
X357437Y88096D01*
X357448Y88120D01*
X357464Y88141D01*
X357522Y88277D01*
X357586Y88411D01*
X357591Y88437D01*
X357602Y88461D01*
X357628Y88607D01*
X357659Y88752D01*
X357659Y88778D01*
X357663Y88804D01*
X357656Y88952D01*
X357653Y89100D01*
X357647Y89126D01*
X357645Y89152D01*
X357604Y89294D01*
X357568Y89438D01*
X357556Y89461D01*
X357549Y89487D01*
X357477Y89616D01*
X357409Y89748D01*
X357392Y89768D01*
X357379Y89791D01*
X357220Y89977D01*
X356820Y90377D01*
X353804Y97659D01*
X353804Y105541D01*
X356820Y112823D01*
X357220Y113223D01*
X357237Y113243D01*
X357257Y113260D01*
X357345Y113380D01*
X357437Y113496D01*
X357448Y113520D01*
X357464Y113541D01*
X357522Y113677D01*
X357586Y113811D01*
X357591Y113837D01*
X357602Y113861D01*
X357628Y114007D01*
X357659Y114152D01*
X357659Y114178D01*
X357663Y114204D01*
X357656Y114352D01*
X357653Y114500D01*
X357647Y114526D01*
X357645Y114552D01*
X357604Y114694D01*
X357568Y114838D01*
X357556Y114861D01*
X357549Y114887D01*
X357477Y115016D01*
X357409Y115148D01*
X357392Y115168D01*
X357379Y115191D01*
X357220Y115377D01*
X356820Y115777D01*
X353804Y123059D01*
X353804Y130941D01*
X356820Y138223D01*
X357220Y138623D01*
X357237Y138643D01*
X357257Y138660D01*
X357345Y138780D01*
X357437Y138896D01*
X357448Y138920D01*
X357464Y138941D01*
X357522Y139077D01*
X357586Y139211D01*
X357591Y139237D01*
X357602Y139261D01*
X357628Y139407D01*
X357659Y139552D01*
X357659Y139578D01*
X357663Y139604D01*
X357656Y139752D01*
X357653Y139900D01*
X357647Y139926D01*
X357645Y139952D01*
X357604Y140094D01*
X357568Y140238D01*
X357556Y140262D01*
X357549Y140287D01*
X357476Y140416D01*
X357409Y140548D01*
X357392Y140568D01*
X357379Y140591D01*
X357220Y140777D01*
X356820Y141177D01*
X353804Y148459D01*
X353804Y156341D01*
X356820Y163623D01*
X362394Y169196D01*
X362459Y169223D01*
X362534Y169265D01*
X362614Y169298D01*
X362686Y169350D01*
X362763Y169393D01*
X362827Y169451D01*
X362897Y169501D01*
X362956Y169567D01*
X363022Y169627D01*
X363070Y169698D01*
X363127Y169762D01*
X363169Y169841D01*
X363220Y169913D01*
X363251Y169994D01*
X363292Y170069D01*
X363315Y170155D01*
X363348Y170238D01*
X363360Y170323D01*
X363383Y170406D01*
X363386Y170495D01*
X363398Y170582D01*
X363391Y170668D01*
X363394Y170754D01*
X363377Y170841D01*
X363370Y170930D01*
X363343Y171012D01*
X363326Y171096D01*
X363278Y171214D01*
X363262Y171261D01*
X363249Y171284D01*
X363233Y171322D01*
X362317Y173120D01*
X361724Y174945D01*
X361668Y175301D01*
X372641Y175301D01*
X372667Y175304D01*
X372693Y175302D01*
X372840Y175324D01*
X372987Y175341D01*
X373011Y175349D01*
X373037Y175353D01*
X373175Y175408D01*
X373315Y175458D01*
X373337Y175472D01*
X373361Y175482D01*
X373483Y175567D01*
X373608Y175647D01*
X373620Y175660D01*
X373667Y175615D01*
X373689Y175601D01*
X373709Y175584D01*
X373839Y175512D01*
X373966Y175436D01*
X373991Y175428D01*
X374014Y175415D01*
X374157Y175375D01*
X374298Y175330D01*
X374324Y175327D01*
X374349Y175320D01*
X374593Y175301D01*
X385566Y175301D01*
X385509Y174945D01*
X384916Y173120D01*
X384000Y171322D01*
X383970Y171242D01*
X383931Y171165D01*
X383910Y171079D01*
X383879Y170996D01*
X383868Y170910D01*
X383847Y170827D01*
X383846Y170738D01*
X383834Y170650D01*
X383843Y170564D01*
X383842Y170478D01*
X383861Y170392D01*
X383870Y170303D01*
X383898Y170222D01*
X383916Y170138D01*
X383954Y170058D01*
X383983Y169974D01*
X384029Y169901D01*
X384066Y169823D01*
X384121Y169754D01*
X384169Y169679D01*
X384230Y169618D01*
X384283Y169551D01*
X384353Y169496D01*
X384416Y169433D01*
X384489Y169388D01*
X384557Y169335D01*
X384670Y169277D01*
X384713Y169251D01*
X384738Y169242D01*
X384775Y169223D01*
X384840Y169196D01*
X390413Y163623D01*
X393430Y156341D01*
X393430Y148459D01*
X390413Y141177D01*
X390013Y140777D01*
X389997Y140757D01*
X389977Y140740D01*
X389889Y140620D01*
X389797Y140504D01*
X389785Y140480D01*
X389770Y140459D01*
X389711Y140323D01*
X389648Y140189D01*
X389642Y140163D01*
X389632Y140139D01*
X389606Y139993D01*
X389574Y139848D01*
X389575Y139822D01*
X389570Y139796D01*
X389578Y139648D01*
X389580Y139500D01*
X389587Y139474D01*
X389588Y139448D01*
X389629Y139306D01*
X389665Y139162D01*
X389677Y139139D01*
X389685Y139113D01*
X389757Y138984D01*
X389825Y138852D01*
X389842Y138832D01*
X389855Y138809D01*
X390013Y138623D01*
X390413Y138223D01*
X393430Y130941D01*
X393430Y123059D01*
X390413Y115777D01*
X390013Y115377D01*
X389997Y115357D01*
X389977Y115340D01*
X389889Y115220D01*
X389797Y115104D01*
X389785Y115080D01*
X389770Y115059D01*
X389711Y114923D01*
X389648Y114789D01*
X389642Y114763D01*
X389632Y114739D01*
X389605Y114593D01*
X389574Y114448D01*
X389575Y114422D01*
X389570Y114396D01*
X389578Y114248D01*
X389580Y114100D01*
X389587Y114074D01*
X389588Y114048D01*
X389629Y113906D01*
X389665Y113762D01*
X389677Y113738D01*
X389685Y113713D01*
X389757Y113584D01*
X389825Y113452D01*
X389842Y113432D01*
X389855Y113409D01*
X390013Y113223D01*
X390413Y112823D01*
X393430Y105541D01*
X393430Y97659D01*
X390413Y90377D01*
X390013Y89977D01*
X389997Y89957D01*
X389977Y89940D01*
X389889Y89820D01*
X389797Y89704D01*
X389785Y89680D01*
X389770Y89659D01*
X389711Y89523D01*
X389648Y89389D01*
X389642Y89363D01*
X389632Y89339D01*
X389605Y89193D01*
X389574Y89048D01*
X389575Y89022D01*
X389570Y88996D01*
X389578Y88848D01*
X389580Y88700D01*
X389587Y88674D01*
X389588Y88648D01*
X389629Y88506D01*
X389665Y88362D01*
X389677Y88338D01*
X389685Y88313D01*
X389757Y88184D01*
X389825Y88052D01*
X389842Y88032D01*
X389855Y88009D01*
X390013Y87823D01*
X390413Y87423D01*
X393430Y80141D01*
X393430Y72259D01*
X390413Y64977D01*
X390013Y64577D01*
X389997Y64557D01*
X389977Y64540D01*
X389889Y64420D01*
X389797Y64304D01*
X389785Y64280D01*
X389770Y64259D01*
X389711Y64123D01*
X389648Y63989D01*
X389642Y63963D01*
X389632Y63939D01*
X389605Y63793D01*
X389574Y63648D01*
X389575Y63622D01*
X389570Y63596D01*
X389578Y63448D01*
X389580Y63300D01*
X389587Y63274D01*
X389588Y63248D01*
X389629Y63106D01*
X389665Y62962D01*
X389677Y62938D01*
X389685Y62913D01*
X389757Y62784D01*
X389825Y62652D01*
X389842Y62632D01*
X389855Y62609D01*
X389963Y62482D01*
X389973Y62468D01*
X389983Y62459D01*
X390013Y62423D01*
X390413Y62023D01*
X393430Y54741D01*
X393430Y46859D01*
X390413Y39577D01*
X384840Y34004D01*
X377558Y30987D01*
X369676Y30987D01*
G37*
%LPD*%
%LPC*%
G36*
X457150Y332385D02*
X457150Y332385D01*
X457127Y332399D01*
X457108Y332416D01*
X456978Y332488D01*
X456851Y332564D01*
X456826Y332572D01*
X456803Y332585D01*
X456660Y332625D01*
X456519Y332670D01*
X456493Y332672D01*
X456468Y332680D01*
X456224Y332699D01*
X445846Y332699D01*
X445881Y332917D01*
X446445Y334655D01*
X447275Y336282D01*
X447602Y336733D01*
X447618Y336760D01*
X447638Y336784D01*
X447703Y336912D01*
X447774Y337037D01*
X447782Y337066D01*
X447796Y337094D01*
X447831Y337233D01*
X447871Y337371D01*
X447873Y337402D01*
X447881Y337432D01*
X447883Y337576D01*
X447891Y337719D01*
X447885Y337750D01*
X447886Y337781D01*
X447855Y337922D01*
X447830Y338062D01*
X447818Y338091D01*
X447811Y338121D01*
X447750Y338251D01*
X447693Y338383D01*
X447675Y338408D01*
X447662Y338436D01*
X447572Y338548D01*
X447487Y338664D01*
X447464Y338684D01*
X447444Y338708D01*
X447331Y338798D01*
X447223Y338891D01*
X447195Y338905D01*
X447171Y338924D01*
X446953Y339036D01*
X446310Y339302D01*
X444416Y341196D01*
X444396Y341212D01*
X444379Y341232D01*
X444259Y341320D01*
X444143Y341412D01*
X444120Y341424D01*
X444098Y341439D01*
X443962Y341498D01*
X443828Y341561D01*
X443802Y341567D01*
X443778Y341577D01*
X443632Y341604D01*
X443487Y341635D01*
X443461Y341634D01*
X443435Y341639D01*
X443287Y341631D01*
X443139Y341629D01*
X443114Y341622D01*
X443087Y341621D01*
X442945Y341580D01*
X442801Y341544D01*
X442778Y341532D01*
X442752Y341525D01*
X442623Y341452D01*
X442491Y341384D01*
X442471Y341367D01*
X442448Y341354D01*
X442262Y341196D01*
X437291Y336225D01*
X430102Y333247D01*
X422322Y333247D01*
X415133Y336225D01*
X409631Y341727D01*
X406653Y348916D01*
X406653Y356696D01*
X409631Y363885D01*
X415133Y369387D01*
X422322Y372365D01*
X430102Y372365D01*
X437291Y369387D01*
X439468Y367210D01*
X439489Y367194D01*
X439506Y367174D01*
X439625Y367086D01*
X439741Y366994D01*
X439765Y366982D01*
X439786Y366967D01*
X439922Y366908D01*
X440056Y366845D01*
X440082Y366839D01*
X440106Y366829D01*
X440252Y366802D01*
X440397Y366771D01*
X440423Y366772D01*
X440449Y366767D01*
X440597Y366775D01*
X440745Y366777D01*
X440771Y366784D01*
X440797Y366785D01*
X440939Y366826D01*
X441083Y366862D01*
X441107Y366874D01*
X441132Y366881D01*
X441261Y366954D01*
X441393Y367022D01*
X441413Y367039D01*
X441436Y367052D01*
X441622Y367210D01*
X441635Y367223D01*
X441647Y367238D01*
X441659Y367248D01*
X441662Y367253D01*
X441671Y367260D01*
X441760Y367380D01*
X441852Y367496D01*
X441863Y367520D01*
X441878Y367541D01*
X441937Y367677D01*
X442001Y367811D01*
X442006Y367837D01*
X442016Y367861D01*
X442043Y368007D01*
X442074Y368152D01*
X442073Y368178D01*
X442078Y368204D01*
X442070Y368352D01*
X442068Y368500D01*
X442062Y368526D01*
X442060Y368552D01*
X442019Y368694D01*
X441983Y368838D01*
X441971Y368861D01*
X441964Y368887D01*
X441891Y369016D01*
X441823Y369148D01*
X441806Y369168D01*
X441794Y369191D01*
X441635Y369377D01*
X440902Y370110D01*
X437975Y377176D01*
X437975Y384824D01*
X440902Y391890D01*
X441635Y392623D01*
X441651Y392643D01*
X441671Y392660D01*
X441759Y392779D01*
X441852Y392896D01*
X441863Y392920D01*
X441878Y392941D01*
X441937Y393077D01*
X442001Y393211D01*
X442006Y393237D01*
X442016Y393261D01*
X442043Y393407D01*
X442074Y393552D01*
X442073Y393578D01*
X442078Y393604D01*
X442070Y393752D01*
X442068Y393900D01*
X442062Y393926D01*
X442060Y393952D01*
X442019Y394094D01*
X441983Y394238D01*
X441971Y394261D01*
X441964Y394287D01*
X441891Y394416D01*
X441823Y394548D01*
X441806Y394568D01*
X441794Y394591D01*
X441635Y394777D01*
X440902Y395510D01*
X437975Y402576D01*
X437975Y410224D01*
X440902Y417290D01*
X446310Y422698D01*
X453376Y425625D01*
X461024Y425625D01*
X468090Y422698D01*
X473498Y417290D01*
X476425Y410224D01*
X476425Y402576D01*
X473498Y395510D01*
X472765Y394777D01*
X472749Y394757D01*
X472729Y394740D01*
X472640Y394620D01*
X472548Y394504D01*
X472537Y394480D01*
X472522Y394459D01*
X472463Y394323D01*
X472399Y394189D01*
X472394Y394163D01*
X472384Y394139D01*
X472357Y393993D01*
X472326Y393848D01*
X472327Y393822D01*
X472322Y393796D01*
X472330Y393648D01*
X472332Y393500D01*
X472338Y393474D01*
X472340Y393448D01*
X472381Y393306D01*
X472417Y393162D01*
X472429Y393138D01*
X472436Y393113D01*
X472509Y392984D01*
X472577Y392852D01*
X472594Y392832D01*
X472606Y392809D01*
X472765Y392623D01*
X473498Y391890D01*
X476425Y384824D01*
X476425Y377176D01*
X473498Y370110D01*
X472765Y369377D01*
X472749Y369357D01*
X472729Y369340D01*
X472640Y369220D01*
X472548Y369104D01*
X472537Y369080D01*
X472522Y369059D01*
X472463Y368923D01*
X472399Y368789D01*
X472394Y368763D01*
X472384Y368739D01*
X472357Y368593D01*
X472326Y368448D01*
X472327Y368422D01*
X472322Y368396D01*
X472330Y368248D01*
X472332Y368100D01*
X472338Y368074D01*
X472340Y368048D01*
X472381Y367906D01*
X472417Y367762D01*
X472429Y367738D01*
X472436Y367713D01*
X472509Y367584D01*
X472577Y367452D01*
X472594Y367432D01*
X472606Y367409D01*
X472765Y367223D01*
X473498Y366490D01*
X476425Y359424D01*
X476425Y351776D01*
X473498Y344710D01*
X468090Y339302D01*
X467447Y339036D01*
X467420Y339021D01*
X467390Y339011D01*
X467268Y338936D01*
X467142Y338866D01*
X467119Y338846D01*
X467093Y338829D01*
X466991Y338729D01*
X466884Y338632D01*
X466867Y338607D01*
X466844Y338585D01*
X466768Y338464D01*
X466686Y338346D01*
X466675Y338317D01*
X466658Y338290D01*
X466611Y338155D01*
X466558Y338021D01*
X466554Y337991D01*
X466544Y337961D01*
X466528Y337819D01*
X466507Y337677D01*
X466510Y337646D01*
X466507Y337615D01*
X466524Y337473D01*
X466536Y337329D01*
X466546Y337300D01*
X466550Y337269D01*
X466599Y337135D01*
X466643Y336998D01*
X466660Y336971D01*
X466670Y336942D01*
X466798Y336733D01*
X467125Y336282D01*
X467955Y334655D01*
X468519Y332917D01*
X468554Y332699D01*
X458176Y332699D01*
X458150Y332696D01*
X458124Y332698D01*
X457977Y332676D01*
X457830Y332659D01*
X457805Y332651D01*
X457779Y332647D01*
X457642Y332592D01*
X457502Y332542D01*
X457480Y332528D01*
X457455Y332518D01*
X457334Y332433D01*
X457209Y332353D01*
X457197Y332340D01*
X457150Y332385D01*
G37*
%LPD*%
%LPC*%
G36*
X250256Y227539D02*
X250256Y227539D01*
X243602Y229322D01*
X237637Y232766D01*
X232766Y237637D01*
X229322Y243602D01*
X227539Y250256D01*
X227539Y257179D01*
X229325Y263845D01*
X232770Y269810D01*
X237640Y274681D01*
X243606Y278125D01*
X250259Y279908D01*
X257147Y279908D01*
X263801Y278125D01*
X269766Y274681D01*
X274637Y269810D01*
X278081Y263845D01*
X279864Y257191D01*
X279864Y250268D01*
X278078Y243602D01*
X274634Y237637D01*
X269763Y232766D01*
X263798Y229322D01*
X257144Y227539D01*
X250256Y227539D01*
G37*
%LPD*%
%LPC*%
G36*
X396556Y223839D02*
X396556Y223839D01*
X389902Y225622D01*
X383937Y229066D01*
X379066Y233937D01*
X375622Y239902D01*
X373839Y246556D01*
X373839Y253444D01*
X375622Y260098D01*
X379066Y266063D01*
X383937Y270934D01*
X389902Y274378D01*
X396556Y276161D01*
X403444Y276161D01*
X410098Y274378D01*
X416063Y270934D01*
X420934Y266063D01*
X424378Y260098D01*
X426161Y253444D01*
X426161Y246556D01*
X424378Y239902D01*
X420934Y233937D01*
X416063Y229066D01*
X410098Y225622D01*
X403444Y223839D01*
X396556Y223839D01*
G37*
%LPD*%
%LPC*%
G36*
X637793Y612393D02*
X637793Y612393D01*
X637793Y622936D01*
X640524Y622936D01*
X648336Y615124D01*
X648336Y612393D01*
X637793Y612393D01*
G37*
%LPD*%
%LPC*%
G36*
X621664Y612393D02*
X621664Y612393D01*
X621664Y615124D01*
X629476Y622936D01*
X632207Y622936D01*
X632207Y612393D01*
X621664Y612393D01*
G37*
%LPD*%
%LPC*%
G36*
X376116Y180299D02*
X376116Y180299D01*
X376116Y189749D01*
X376472Y189693D01*
X378297Y189099D01*
X380007Y188228D01*
X381560Y187100D01*
X382917Y185743D01*
X384045Y184190D01*
X384916Y182480D01*
X385509Y180655D01*
X385566Y180299D01*
X376116Y180299D01*
G37*
%LPD*%
%LPC*%
G36*
X22516Y154899D02*
X22516Y154899D01*
X22516Y164349D01*
X22872Y164293D01*
X24697Y163699D01*
X26407Y162828D01*
X27960Y161700D01*
X29317Y160343D01*
X30445Y158790D01*
X31316Y157080D01*
X31909Y155255D01*
X31966Y154899D01*
X22516Y154899D01*
G37*
%LPD*%
%LPC*%
G36*
X89651Y264499D02*
X89651Y264499D01*
X89707Y264855D01*
X90301Y266680D01*
X91172Y268390D01*
X92300Y269943D01*
X93657Y271300D01*
X95210Y272428D01*
X96920Y273299D01*
X98745Y273893D01*
X99101Y273949D01*
X99101Y264499D01*
X89651Y264499D01*
G37*
%LPD*%
%LPC*%
G36*
X361668Y180299D02*
X361668Y180299D01*
X361724Y180655D01*
X362317Y182480D01*
X363189Y184190D01*
X364317Y185743D01*
X365674Y187100D01*
X367226Y188228D01*
X368936Y189099D01*
X370762Y189693D01*
X371117Y189749D01*
X371117Y180299D01*
X361668Y180299D01*
G37*
%LPD*%
%LPC*%
G36*
X98745Y250107D02*
X98745Y250107D01*
X96920Y250701D01*
X95210Y251572D01*
X93657Y252700D01*
X92300Y254057D01*
X91172Y255610D01*
X90301Y257320D01*
X89707Y259145D01*
X89651Y259501D01*
X99101Y259501D01*
X99101Y250051D01*
X98745Y250107D01*
G37*
%LPD*%
%LPC*%
G36*
X497839Y675639D02*
X497839Y675639D01*
X497839Y684785D01*
X500140Y684785D01*
X506985Y677940D01*
X506985Y675639D01*
X497839Y675639D01*
G37*
%LPD*%
%LPC*%
G36*
X497839Y661415D02*
X497839Y661415D01*
X497839Y670561D01*
X506985Y670561D01*
X506985Y668260D01*
X500140Y661415D01*
X497839Y661415D01*
G37*
%LPD*%
%LPC*%
G36*
X502939Y393779D02*
X502939Y393779D01*
X496141Y400577D01*
X496141Y402885D01*
X505247Y402885D01*
X505247Y393779D01*
X502939Y393779D01*
G37*
%LPD*%
%LPC*%
G36*
X363727Y310133D02*
X363727Y310133D01*
X363727Y319279D01*
X363984Y319239D01*
X365771Y318658D01*
X367445Y317805D01*
X368966Y316700D01*
X370294Y315372D01*
X371399Y313851D01*
X372252Y312177D01*
X372833Y310390D01*
X372873Y310133D01*
X363727Y310133D01*
G37*
%LPD*%
%LPC*%
G36*
X349503Y310133D02*
X349503Y310133D01*
X349543Y310390D01*
X350124Y312177D01*
X350977Y313851D01*
X352082Y315372D01*
X353410Y316700D01*
X354931Y317805D01*
X356605Y318658D01*
X358392Y319239D01*
X358649Y319279D01*
X358649Y310133D01*
X349503Y310133D01*
G37*
%LPD*%
%LPC*%
G36*
X414527Y310133D02*
X414527Y310133D01*
X414567Y310390D01*
X415148Y312177D01*
X416001Y313851D01*
X417106Y315372D01*
X418434Y316700D01*
X419955Y317805D01*
X421629Y318658D01*
X423416Y319239D01*
X423673Y319279D01*
X423673Y310133D01*
X414527Y310133D01*
G37*
%LPD*%
%LPC*%
G36*
X363727Y305055D02*
X363727Y305055D01*
X372873Y305055D01*
X372833Y304798D01*
X372252Y303011D01*
X371399Y301337D01*
X370294Y299816D01*
X368966Y298488D01*
X367445Y297383D01*
X365771Y296530D01*
X363984Y295949D01*
X363727Y295909D01*
X363727Y305055D01*
G37*
%LPD*%
%LPC*%
G36*
X358392Y295949D02*
X358392Y295949D01*
X356605Y296530D01*
X354931Y297383D01*
X353410Y298488D01*
X352082Y299816D01*
X350977Y301337D01*
X350124Y303011D01*
X349543Y304798D01*
X349503Y305055D01*
X358649Y305055D01*
X358649Y295909D01*
X358392Y295949D01*
G37*
%LPD*%
%LPC*%
G36*
X423416Y295949D02*
X423416Y295949D01*
X421629Y296530D01*
X419955Y297383D01*
X418434Y298488D01*
X417106Y299816D01*
X416001Y301337D01*
X415148Y303011D01*
X414567Y304798D01*
X414527Y305055D01*
X423673Y305055D01*
X423673Y295909D01*
X423416Y295949D01*
G37*
%LPD*%
%LPC*%
G36*
X357599Y573499D02*
X357599Y573499D01*
X357599Y581920D01*
X358083Y581844D01*
X359671Y581328D01*
X361158Y580570D01*
X362509Y579589D01*
X363689Y578409D01*
X364670Y577058D01*
X365428Y575571D01*
X365944Y573983D01*
X366020Y573499D01*
X357599Y573499D01*
G37*
%LPD*%
%LPC*%
G36*
X357599Y484599D02*
X357599Y484599D01*
X357599Y493020D01*
X358083Y492944D01*
X359671Y492428D01*
X361158Y491670D01*
X362509Y490689D01*
X363689Y489509D01*
X364670Y488158D01*
X365428Y486671D01*
X365944Y485083D01*
X366020Y484599D01*
X357599Y484599D01*
G37*
%LPD*%
%LPC*%
G36*
X345180Y573499D02*
X345180Y573499D01*
X345256Y573983D01*
X345772Y575571D01*
X346530Y577058D01*
X347511Y578409D01*
X348691Y579589D01*
X350042Y580570D01*
X351529Y581328D01*
X353117Y581844D01*
X353601Y581920D01*
X353601Y573499D01*
X345180Y573499D01*
G37*
%LPD*%
%LPC*%
G36*
X357599Y569501D02*
X357599Y569501D01*
X366020Y569501D01*
X365944Y569017D01*
X365428Y567429D01*
X364670Y565942D01*
X363689Y564591D01*
X362509Y563411D01*
X361158Y562430D01*
X359671Y561672D01*
X358083Y561156D01*
X357599Y561080D01*
X357599Y569501D01*
G37*
%LPD*%
%LPC*%
G36*
X345180Y484599D02*
X345180Y484599D01*
X345256Y485083D01*
X345772Y486671D01*
X346530Y488158D01*
X347511Y489509D01*
X348691Y490689D01*
X350042Y491670D01*
X351529Y492428D01*
X353117Y492944D01*
X353601Y493020D01*
X353601Y484599D01*
X345180Y484599D01*
G37*
%LPD*%
%LPC*%
G36*
X357599Y480601D02*
X357599Y480601D01*
X366020Y480601D01*
X365944Y480117D01*
X365428Y478529D01*
X364670Y477042D01*
X363689Y475691D01*
X362509Y474511D01*
X361158Y473530D01*
X359671Y472772D01*
X358083Y472256D01*
X357599Y472180D01*
X357599Y480601D01*
G37*
%LPD*%
%LPC*%
G36*
X353117Y561156D02*
X353117Y561156D01*
X351529Y561672D01*
X350042Y562430D01*
X348691Y563411D01*
X347511Y564591D01*
X346530Y565942D01*
X345772Y567429D01*
X345256Y569017D01*
X345180Y569501D01*
X353601Y569501D01*
X353601Y561080D01*
X353117Y561156D01*
G37*
%LPD*%
%LPC*%
G36*
X353117Y472256D02*
X353117Y472256D01*
X351529Y472772D01*
X350042Y473530D01*
X348691Y474511D01*
X347511Y475691D01*
X346530Y477042D01*
X345772Y478529D01*
X345256Y480117D01*
X345180Y480601D01*
X353601Y480601D01*
X353601Y472180D01*
X353117Y472256D01*
G37*
%LPD*%
D10*
X546100Y546100D03*
X520700Y546100D03*
D11*
X322559Y679627D03*
X347959Y679627D03*
D12*
X23368Y619506D03*
X88392Y619506D03*
X23368Y574294D03*
X88392Y574294D03*
X23368Y352806D03*
X88392Y352806D03*
X23368Y307594D03*
X88392Y307594D03*
X112268Y352806D03*
X177292Y352806D03*
X112268Y307594D03*
X177292Y307594D03*
X201168Y352806D03*
X266192Y352806D03*
X201168Y307594D03*
X266192Y307594D03*
X112268Y619506D03*
X177292Y619506D03*
X112268Y574294D03*
X177292Y574294D03*
X201168Y619506D03*
X266192Y619506D03*
X201168Y574294D03*
X266192Y574294D03*
X23368Y530606D03*
X88392Y530606D03*
X23368Y485394D03*
X88392Y485394D03*
X112268Y530606D03*
X177292Y530606D03*
X112268Y485394D03*
X177292Y485394D03*
X201168Y530606D03*
X266192Y530606D03*
X201168Y485394D03*
X266192Y485394D03*
X23368Y441706D03*
X88392Y441706D03*
X23368Y396494D03*
X88392Y396494D03*
X112268Y441706D03*
X177292Y441706D03*
X112268Y396494D03*
X177292Y396494D03*
X201168Y441706D03*
X266192Y441706D03*
X201168Y396494D03*
X266192Y396494D03*
D13*
X177800Y262000D03*
X152400Y262000D03*
X127000Y262000D03*
X101600Y262000D03*
X373617Y50800D03*
X373617Y76200D03*
X373617Y101600D03*
X373617Y152400D03*
X373617Y127000D03*
X373617Y177800D03*
X20017Y76200D03*
X20017Y127000D03*
X20017Y101600D03*
X20017Y152400D03*
D14*
X495300Y673100D03*
D15*
X465582Y672973D02*
X463677Y672973D01*
X463677Y666623D01*
X467487Y666623D01*
X467587Y666625D01*
X467686Y666631D01*
X467786Y666641D01*
X467884Y666654D01*
X467983Y666672D01*
X468080Y666693D01*
X468176Y666718D01*
X468272Y666747D01*
X468366Y666780D01*
X468459Y666816D01*
X468550Y666856D01*
X468640Y666900D01*
X468728Y666947D01*
X468814Y666997D01*
X468898Y667051D01*
X468980Y667108D01*
X469059Y667168D01*
X469137Y667232D01*
X469211Y667298D01*
X469283Y667367D01*
X469352Y667439D01*
X469418Y667513D01*
X469482Y667591D01*
X469542Y667670D01*
X469599Y667752D01*
X469653Y667836D01*
X469703Y667922D01*
X469750Y668010D01*
X469794Y668100D01*
X469834Y668191D01*
X469870Y668284D01*
X469903Y668378D01*
X469932Y668474D01*
X469957Y668570D01*
X469978Y668667D01*
X469996Y668766D01*
X470009Y668864D01*
X470019Y668964D01*
X470025Y669063D01*
X470027Y669163D01*
X470027Y675513D01*
X470025Y675613D01*
X470019Y675712D01*
X470009Y675812D01*
X469996Y675910D01*
X469978Y676009D01*
X469957Y676106D01*
X469932Y676202D01*
X469903Y676298D01*
X469870Y676392D01*
X469834Y676485D01*
X469794Y676576D01*
X469750Y676666D01*
X469703Y676754D01*
X469653Y676840D01*
X469599Y676924D01*
X469542Y677006D01*
X469482Y677085D01*
X469418Y677163D01*
X469352Y677237D01*
X469283Y677309D01*
X469211Y677378D01*
X469137Y677444D01*
X469059Y677508D01*
X468980Y677568D01*
X468898Y677625D01*
X468814Y677679D01*
X468728Y677729D01*
X468640Y677776D01*
X468550Y677820D01*
X468459Y677860D01*
X468366Y677896D01*
X468272Y677929D01*
X468176Y677958D01*
X468080Y677983D01*
X467983Y678004D01*
X467884Y678022D01*
X467786Y678035D01*
X467686Y678045D01*
X467587Y678051D01*
X467487Y678053D01*
X463677Y678053D01*
X457835Y678053D02*
X457835Y666623D01*
X451485Y666623D02*
X457835Y678053D01*
X451485Y678053D02*
X451485Y666623D01*
X445643Y666623D02*
X445643Y678053D01*
X442468Y678053D01*
X442357Y678051D01*
X442247Y678045D01*
X442136Y678036D01*
X442026Y678022D01*
X441917Y678005D01*
X441808Y677984D01*
X441700Y677959D01*
X441593Y677930D01*
X441487Y677898D01*
X441382Y677862D01*
X441279Y677822D01*
X441177Y677779D01*
X441076Y677732D01*
X440977Y677681D01*
X440881Y677628D01*
X440786Y677571D01*
X440693Y677510D01*
X440602Y677447D01*
X440513Y677380D01*
X440427Y677310D01*
X440344Y677237D01*
X440262Y677162D01*
X440184Y677084D01*
X440109Y677002D01*
X440036Y676919D01*
X439966Y676833D01*
X439899Y676744D01*
X439836Y676653D01*
X439775Y676560D01*
X439718Y676466D01*
X439665Y676369D01*
X439614Y676270D01*
X439567Y676169D01*
X439524Y676067D01*
X439484Y675964D01*
X439448Y675859D01*
X439416Y675753D01*
X439387Y675646D01*
X439362Y675538D01*
X439341Y675429D01*
X439324Y675320D01*
X439310Y675210D01*
X439301Y675099D01*
X439295Y674989D01*
X439293Y674878D01*
X439293Y669798D01*
X439295Y669687D01*
X439301Y669577D01*
X439310Y669466D01*
X439324Y669356D01*
X439341Y669247D01*
X439362Y669138D01*
X439387Y669030D01*
X439416Y668923D01*
X439448Y668817D01*
X439484Y668712D01*
X439524Y668609D01*
X439567Y668507D01*
X439614Y668406D01*
X439665Y668307D01*
X439718Y668211D01*
X439775Y668116D01*
X439836Y668023D01*
X439899Y667932D01*
X439966Y667843D01*
X440036Y667757D01*
X440109Y667674D01*
X440184Y667592D01*
X440262Y667514D01*
X440344Y667439D01*
X440427Y667366D01*
X440513Y667296D01*
X440602Y667229D01*
X440693Y667166D01*
X440786Y667105D01*
X440881Y667048D01*
X440977Y666995D01*
X441076Y666944D01*
X441177Y666897D01*
X441279Y666854D01*
X441382Y666814D01*
X441487Y666778D01*
X441593Y666746D01*
X441700Y666717D01*
X441808Y666692D01*
X441917Y666671D01*
X442026Y666654D01*
X442136Y666640D01*
X442247Y666631D01*
X442357Y666625D01*
X442468Y666623D01*
X445643Y666623D01*
D14*
X558800Y673100D03*
D15*
X596519Y670687D02*
X596521Y670587D01*
X596527Y670488D01*
X596537Y670388D01*
X596550Y670290D01*
X596568Y670191D01*
X596589Y670094D01*
X596614Y669998D01*
X596643Y669902D01*
X596676Y669808D01*
X596712Y669715D01*
X596752Y669624D01*
X596796Y669534D01*
X596843Y669446D01*
X596893Y669360D01*
X596947Y669276D01*
X597004Y669194D01*
X597064Y669115D01*
X597128Y669037D01*
X597194Y668963D01*
X597263Y668891D01*
X597335Y668822D01*
X597409Y668756D01*
X597487Y668692D01*
X597566Y668632D01*
X597648Y668575D01*
X597732Y668521D01*
X597818Y668471D01*
X597906Y668424D01*
X597996Y668380D01*
X598087Y668340D01*
X598180Y668304D01*
X598274Y668271D01*
X598370Y668242D01*
X598466Y668217D01*
X598563Y668196D01*
X598662Y668178D01*
X598760Y668165D01*
X598860Y668155D01*
X598959Y668149D01*
X599059Y668147D01*
X599200Y668149D01*
X599341Y668154D01*
X599482Y668164D01*
X599623Y668177D01*
X599763Y668193D01*
X599903Y668214D01*
X600042Y668238D01*
X600181Y668266D01*
X600318Y668297D01*
X600455Y668332D01*
X600591Y668370D01*
X600726Y668412D01*
X600859Y668458D01*
X600992Y668507D01*
X601123Y668560D01*
X601252Y668616D01*
X601381Y668675D01*
X601507Y668738D01*
X601632Y668804D01*
X601755Y668873D01*
X601876Y668946D01*
X601995Y669022D01*
X602113Y669101D01*
X602228Y669182D01*
X602340Y669267D01*
X602451Y669355D01*
X602559Y669446D01*
X602665Y669539D01*
X602768Y669636D01*
X602869Y669735D01*
X602552Y677037D02*
X602550Y677137D01*
X602544Y677236D01*
X602534Y677336D01*
X602521Y677434D01*
X602503Y677533D01*
X602482Y677630D01*
X602457Y677726D01*
X602428Y677822D01*
X602395Y677916D01*
X602359Y678009D01*
X602319Y678100D01*
X602275Y678190D01*
X602228Y678278D01*
X602178Y678364D01*
X602124Y678448D01*
X602067Y678530D01*
X602007Y678609D01*
X601943Y678687D01*
X601877Y678761D01*
X601808Y678833D01*
X601736Y678902D01*
X601662Y678968D01*
X601584Y679032D01*
X601505Y679092D01*
X601423Y679149D01*
X601339Y679203D01*
X601253Y679253D01*
X601165Y679300D01*
X601075Y679344D01*
X600984Y679384D01*
X600891Y679420D01*
X600797Y679453D01*
X600701Y679482D01*
X600605Y679507D01*
X600508Y679528D01*
X600409Y679546D01*
X600311Y679559D01*
X600211Y679569D01*
X600112Y679575D01*
X600012Y679577D01*
X600012Y679578D02*
X599879Y679576D01*
X599746Y679571D01*
X599613Y679561D01*
X599480Y679548D01*
X599348Y679531D01*
X599216Y679511D01*
X599085Y679487D01*
X598955Y679459D01*
X598825Y679428D01*
X598697Y679393D01*
X598569Y679354D01*
X598443Y679312D01*
X598318Y679266D01*
X598194Y679217D01*
X598071Y679165D01*
X597950Y679109D01*
X597831Y679049D01*
X597713Y678987D01*
X597598Y678921D01*
X597484Y678852D01*
X597372Y678779D01*
X597262Y678704D01*
X597154Y678625D01*
X601282Y674814D02*
X601366Y674866D01*
X601449Y674921D01*
X601529Y674980D01*
X601607Y675041D01*
X601682Y675105D01*
X601755Y675173D01*
X601826Y675243D01*
X601893Y675315D01*
X601958Y675390D01*
X602020Y675468D01*
X602079Y675548D01*
X602135Y675630D01*
X602187Y675714D01*
X602236Y675800D01*
X602282Y675888D01*
X602325Y675978D01*
X602364Y676069D01*
X602399Y676162D01*
X602431Y676256D01*
X602459Y676351D01*
X602484Y676447D01*
X602504Y676544D01*
X602522Y676642D01*
X602535Y676740D01*
X602544Y676839D01*
X602550Y676938D01*
X602552Y677037D01*
X597789Y672910D02*
X597705Y672858D01*
X597622Y672803D01*
X597542Y672744D01*
X597464Y672683D01*
X597389Y672619D01*
X597316Y672551D01*
X597245Y672481D01*
X597178Y672409D01*
X597113Y672334D01*
X597051Y672256D01*
X596992Y672176D01*
X596936Y672094D01*
X596884Y672010D01*
X596835Y671924D01*
X596789Y671836D01*
X596746Y671746D01*
X596707Y671655D01*
X596672Y671562D01*
X596640Y671468D01*
X596612Y671373D01*
X596587Y671277D01*
X596567Y671180D01*
X596549Y671082D01*
X596536Y670984D01*
X596527Y670885D01*
X596521Y670786D01*
X596519Y670687D01*
X597789Y672910D02*
X601282Y674815D01*
X591693Y672592D02*
X584073Y672592D01*
X587883Y668782D02*
X587883Y676402D01*
D16*
X406400Y457200D03*
X355600Y431800D03*
X355600Y482600D03*
X406400Y546100D03*
X355600Y520700D03*
X355600Y571500D03*
X533400Y622300D03*
X558800Y571500D03*
X508000Y571500D03*
D12*
X426212Y307594D03*
X361188Y307594D03*
X426212Y352806D03*
X361188Y352806D03*
D17*
X673100Y240030D03*
X673100Y214630D03*
X673100Y189230D03*
X673100Y163830D03*
X673100Y138430D03*
X673100Y113030D03*
X673100Y87630D03*
X673100Y62230D03*
X609600Y127000D03*
X609600Y152400D03*
X609600Y177800D03*
X609600Y203200D03*
X609600Y228600D03*
X609600Y254000D03*
X609600Y101600D03*
X609600Y76200D03*
X609600Y50800D03*
X609600Y330200D03*
X609600Y355600D03*
X609600Y381000D03*
X609600Y406400D03*
X609600Y304800D03*
X609600Y279400D03*
X457200Y127000D03*
X457200Y152400D03*
X457200Y177800D03*
X457200Y203200D03*
X457200Y228600D03*
X457200Y254000D03*
X457200Y101600D03*
X457200Y76200D03*
X457200Y50800D03*
X457200Y330200D03*
X457200Y355600D03*
X457200Y381000D03*
X457200Y406400D03*
X457200Y304800D03*
X457200Y279400D03*
D18*
X507746Y405384D03*
X507746Y430784D03*
X533146Y405384D03*
X533146Y430784D03*
X558546Y405384D03*
X558546Y430784D03*
D10*
X676400Y520700D03*
X645160Y520700D03*
D19*
X676400Y495300D03*
X676400Y546100D03*
X644400Y546100D03*
X644400Y495300D03*
D20*
X673100Y609600D03*
X635000Y609600D03*
D21*
X266192Y619506D02*
X266192Y666750D01*
X266192Y619506D02*
X201168Y619506D01*
X201168Y352806D02*
X266192Y352806D01*
X266192Y441706D02*
X201168Y441706D01*
X201168Y530606D02*
X266192Y530606D01*
X241300Y377698D02*
X266192Y352806D01*
X241300Y416814D02*
X266192Y441706D01*
X241300Y466598D01*
X241300Y505714D02*
X266192Y530606D01*
X241300Y555498D01*
X241300Y594614D02*
X266192Y619506D01*
X266192Y666750D02*
X336550Y666750D01*
X347959Y678159D02*
X347959Y679627D01*
X347959Y678159D02*
X336550Y666750D01*
X500536Y508000D02*
X584200Y508000D01*
X647990Y444211D01*
X647990Y139990D02*
X635000Y127000D01*
X609600Y127000D01*
X647990Y139990D02*
X647990Y444211D01*
D22*
X266192Y666750D03*
X241300Y555498D03*
X241300Y594614D03*
X241300Y466598D03*
X241300Y505714D03*
X241300Y377698D03*
X241300Y416814D03*
D21*
X347959Y660577D02*
X500536Y508000D01*
X347959Y660577D02*
X347959Y679627D01*
X533400Y622300D02*
X558800Y622300D01*
D22*
X558800Y622300D03*
X533400Y673100D03*
D21*
X558800Y673100D01*
X177800Y262000D02*
X177800Y215900D01*
X177800Y259383D02*
X177800Y262000D01*
X419100Y101600D02*
X419100Y50800D01*
X444500Y25400D01*
X558800Y25400D01*
X584200Y50800D01*
X584200Y215900D02*
X596900Y228600D01*
X609600Y228600D01*
X584200Y215900D02*
X584200Y50800D01*
D22*
X419100Y101600D03*
X177800Y215900D03*
D21*
X152400Y208583D02*
X152400Y262000D01*
X584200Y241300D02*
X596900Y254000D01*
X609600Y254000D01*
D22*
X584200Y241300D03*
X152400Y208583D03*
D21*
X609600Y177800D02*
X622300Y177800D01*
X635000Y190500D01*
X635000Y431800D01*
X609600Y457200D01*
X406400Y457200D01*
X177292Y619506D02*
X177292Y676910D01*
X177292Y619506D02*
X112268Y619506D01*
X112268Y352806D02*
X177292Y352806D01*
X177292Y441706D02*
X112268Y441706D01*
X112268Y530606D02*
X177292Y530606D01*
X152400Y594614D02*
X177292Y619506D01*
X152400Y555498D02*
X177292Y530606D01*
X152400Y505714D01*
X152400Y466598D02*
X177292Y441706D01*
X152400Y416814D01*
X152400Y377698D02*
X177292Y352806D01*
D22*
X177292Y676910D03*
X152400Y594614D03*
X152400Y555498D03*
X152400Y505714D03*
X152400Y466598D03*
X152400Y416814D03*
X152400Y377698D03*
D21*
X88392Y619506D02*
X23368Y619506D01*
X23368Y352806D02*
X88392Y352806D01*
X88392Y441706D02*
X23368Y441706D01*
X23368Y530606D02*
X88392Y530606D01*
X88392Y619506D02*
X88392Y634492D01*
X101600Y647700D01*
X101600Y676910D01*
X63500Y377698D02*
X88392Y352806D01*
X88392Y441706D02*
X63500Y466598D01*
X88392Y530606D02*
X63500Y555498D01*
X63500Y594614D02*
X88392Y619506D01*
X88392Y530606D02*
X63500Y505714D01*
X88392Y441706D02*
X63500Y416814D01*
D22*
X63500Y555498D03*
X63500Y594614D03*
X63500Y505714D03*
X63500Y466598D03*
X63500Y416814D03*
X63500Y377698D03*
X101600Y676910D03*
D21*
X88392Y574294D02*
X23368Y574294D01*
X88392Y574294D02*
X112268Y574294D01*
X177292Y574294D01*
X201168Y574294D01*
X266192Y574294D01*
X292100Y574294D01*
D22*
X292100Y574294D03*
D21*
X292100Y485394D02*
X266192Y485394D01*
X201168Y485394D01*
X177292Y485394D01*
X112268Y485394D01*
X88392Y485394D01*
X23368Y485394D01*
D22*
X292100Y485394D03*
D21*
X88392Y396494D02*
X23368Y396494D01*
X88392Y396494D02*
X112268Y396494D01*
X177292Y396494D01*
X201168Y396494D01*
X266192Y396494D01*
X292100Y396494D01*
D22*
X292100Y396494D03*
D21*
X88392Y307594D02*
X23368Y307594D01*
X88392Y307594D02*
X112268Y307594D01*
X177292Y307594D01*
X201168Y307594D01*
X266192Y307594D01*
X292100Y307594D01*
D22*
X292100Y307594D03*
D21*
X546100Y546100D02*
X546100Y558800D01*
X558800Y571500D01*
X469900Y228600D02*
X457200Y228600D01*
X469900Y228600D02*
X482600Y241300D01*
X558800Y571500D02*
X533400Y596900D01*
D22*
X482600Y241300D03*
X533400Y596900D03*
D21*
X508000Y571500D02*
X520700Y558800D01*
X520700Y546100D01*
X596900Y381000D02*
X609600Y381000D01*
X596900Y381000D02*
X584200Y393700D01*
D22*
X584200Y393700D03*
D21*
X355600Y393700D02*
X345776Y383876D01*
X355600Y393700D02*
X355600Y431800D01*
X355600Y444500D01*
X330200Y469900D01*
X330200Y495300D01*
X355600Y520700D01*
X127000Y262000D02*
X127000Y233983D01*
X482600Y215900D02*
X596900Y330200D01*
X609600Y330200D01*
D22*
X482600Y215900D03*
X345776Y383876D03*
X127000Y233983D03*
D21*
X127000Y262000D02*
X127000Y279400D01*
X128732Y281132D01*
X139189Y281175D01*
D16*
X139189Y281175D03*
D21*
X558546Y368554D02*
X596900Y330200D01*
X558546Y368554D02*
X558546Y405384D01*
X427990Y546100D02*
X406400Y546100D01*
X427990Y546100D02*
X511810Y462280D01*
X615638Y462280D01*
X641561Y436356D01*
X641561Y158961D01*
X635000Y152400D01*
X609600Y152400D01*
X673100Y62230D02*
X681990Y62230D01*
X688340Y68580D01*
X676400Y520700D02*
X645160Y520700D01*
X676400Y520700D02*
X688340Y508760D01*
X684530Y214630D02*
X673100Y214630D01*
X688340Y218440D02*
X688340Y508760D01*
X688340Y218440D02*
X684530Y214630D01*
X676400Y495300D02*
X644400Y495300D01*
X628650Y511050D01*
X628650Y575310D01*
X637540Y584200D01*
X660400Y584200D01*
X673100Y596900D01*
X673100Y609600D01*
M02*
