M48
;GenerationSoftware,Autodesk,EAGLE,9.0.1*%
;CreationDate,2018-06-09T17:57:23Z*%
FMAT,2
ICI,OFF
METRIC,TZ,0000.0000
T7C0.8000
T6C0.8128
T5C1.0000
T4C1.0160
T3C1.1176
T2C3.0000
T1C3.2000
%
G90
M71
T1
X25655Y253635
X253700Y253700
X25700Y253700
X27000Y673000
X673000Y673000
X253703Y253747
X400000Y250000
X600000Y550000
T2
X25700Y23700
X253700Y23700
T3
X673100Y609600
X635000Y609600
T4
X201168Y574294
X266192Y574294
X23368Y530606
X88392Y530606
X23368Y485394
X88392Y485394
X112268Y530606
X177292Y530606
X112268Y485394
X177292Y485394
X201168Y530606
X266192Y530606
X201168Y485394
X23368Y396494
X266192Y485394
X23368Y441706
X361188Y352806
X426212Y352806
X361188Y307594
X426212Y307594
X558800Y673100
X88392Y441706
X266192Y396494
X201168Y396494
X266192Y441706
X201168Y441706
X201168Y307594
X266192Y307594
X112268Y619506
X495300Y673100
X177292Y619506
X112268Y574294
X177292Y396494
X177292Y574294
X201168Y619506
X266192Y619506
X112268Y396494
X177292Y441706
X112268Y441706
X88392Y396494
X23368Y619506
X88392Y619506
X23368Y574294
X88392Y574294
X23368Y352806
X88392Y352806
X23368Y307594
X88392Y307594
X112268Y352806
X177292Y352806
X112268Y307594
X177292Y307594
X201168Y352806
X266192Y352806
T5
X609600Y406400
X609600Y304800
X609600Y279400
X457200Y127000
X457200Y152400
X457200Y177800
X457200Y203200
X457200Y228600
X457200Y254000
X457200Y76200
X457200Y50800
X457200Y330200
X457200Y355600
X457200Y381000
X457200Y406400
X457200Y304800
X457200Y279400
X507746Y405384
X507746Y430784
X533146Y405384
X533146Y430784
X558546Y405384
X558546Y430784
X457200Y101600
X673100Y62230
X177800Y262000
X152400Y262000
X127000Y262000
X101600Y262000
X373617Y50800
X373617Y76200
X373617Y101600
X373617Y152400
X373617Y127000
X373617Y177800
X20017Y76200
X20017Y127000
X20017Y101600
X20017Y152400
X673100Y240030
X673100Y214630
X673100Y189230
X673100Y163830
X673100Y138430
X673100Y113030
X673100Y87630
X609600Y127000
X609600Y152400
X609600Y177800
X609600Y203200
X609600Y228600
X609600Y254000
X609600Y101600
X609600Y76200
X609600Y50800
X609600Y330200
X609600Y355600
X609600Y381000
T6
X347959Y679627
X322559Y679627
X520700Y546100
X546100Y546100
X676400Y520700
X645160Y520700
X676400Y495300
X676400Y546100
X644400Y546100
X644400Y495300
T7
X177800Y215900
X584200Y241300
X152400Y208583
X177292Y676910
X152400Y594614
X152400Y555498
X152400Y505714
X152400Y466598
X152400Y416814
X152400Y377698
X63500Y555498
X63500Y594614
X63500Y416814
X63500Y377698
X558800Y571500
X508000Y571500
X482600Y241300
X292100Y307594
X63500Y466598
X292100Y485394
X139189Y281175
X127000Y233983
X345776Y383876
X482600Y215900
X266192Y666750
X292100Y396494
X241300Y555498
X241300Y594614
X292100Y574294
X241300Y466598
X63500Y505714
X584200Y393700
X241300Y505714
X406400Y457200
X355600Y431800
X355600Y482600
X406400Y546100
X355600Y520700
X355600Y571500
X533400Y596900
X241300Y377698
X241300Y416814
X558800Y622300
X533400Y673100
X419100Y101600
X101600Y676910
X533400Y622300
M30