M48
;GenerationSoftware,Autodesk,EAGLE,9.0.1*%
;CreationDate,2018-05-25T20:11:03Z*%
FMAT,2
ICI,OFF
METRIC,TZ,0000.0000
T7C0.8000
T6C0.8128
T5C1.0000
T4C1.0160
T3C2.5000
T2C3.0000
T1C3.2000
%
G90
M71
T1
X470839Y676436
X348230Y204254
X348237Y24298
X253641Y23678
X89234Y24261
X25700Y253700
X253700Y253700
X99060Y654050
X25582Y23572
X25655Y253635
X253703Y253747
T2
X25700Y23700
X253700Y23700
T3
X348300Y204300
X348300Y24300
X89300Y24300
T4
X469900Y127000
X469900Y152400
X469900Y177800
X469900Y203200
X88392Y619506
X469900Y228600
X469900Y279400
X469900Y304800
X393700Y673100
X23368Y619506
X431800Y673100
X23368Y574294
X88392Y574294
X23368Y352806
X88392Y352806
X23368Y307594
X88392Y307594
X112268Y352806
X177292Y352806
X112268Y307594
X177292Y307594
X201168Y352806
X266192Y352806
X201168Y307594
X266192Y307594
X112268Y619506
X177292Y619506
X112268Y574294
X177292Y574294
X201168Y619506
X266192Y619506
X201168Y574294
X266192Y574294
X23368Y530606
X88392Y530606
X23368Y485394
X88392Y485394
X112268Y530606
X177292Y530606
X112268Y485394
X177292Y485394
X201168Y530606
X266192Y530606
X201168Y485394
X266192Y485394
X23368Y441706
X88392Y441706
X23368Y396494
X88392Y396494
X112268Y441706
X177292Y441706
X112268Y396494
X177292Y396494
X201168Y441706
X266192Y441706
X201168Y396494
X266192Y396494
X469900Y254000
X469900Y25400
X469900Y50800
X469900Y76200
X469900Y101600
T5
X148200Y655438
X237100Y655438
X59300Y655438
X419100Y266700
X152400Y262000
X127000Y262000
X101600Y262000
X418100Y50800
X418100Y76200
X418100Y101600
X418100Y152400
X418100Y127000
X418100Y177800
X64500Y76200
X177800Y262000
X64500Y127000
X64500Y101600
X64500Y152400
T6
X342900Y596900
X342900Y571500
X304623Y614659
X304623Y640059
T7
X317500Y292100
X457200Y495300
X406400Y469900
X406400Y520700
X457200Y596900
X406400Y571500
X406400Y622300
X457200Y393700
X406400Y368300
X406400Y419100
M30