G04 EAGLE Gerber X2 export*
G04 #@! %TF.Part,Single*
G04 #@! %TF.FileFunction,Soldermask,Bot*
G04 #@! %TF.FilePolarity,Negative*
G04 #@! %TF.GenerationSoftware,Autodesk,EAGLE,9.0.1*
G04 #@! %TF.CreationDate,2018-05-25T20:11:03Z*
G75*
%MOMM*%
%FSLAX44Y44*%
%LPD*%
%AMOC8*
5,1,8,0,0,1.08239X$1,22.5*%
G01*
%ADD10C,3.403200*%
%ADD11P,1.979475X8X292.500000*%
%ADD12P,1.979475X8X112.500000*%
%ADD13C,2.082800*%
%ADD14C,2.133600*%
%ADD15C,3.203200*%
%ADD16C,2.703200*%
%ADD17C,2.032000*%
%ADD18P,2.199416X8X202.500000*%
%ADD19C,1.816000*%
%ADD20C,2.016000*%


D10*
X99060Y654050D03*
X470839Y676436D03*
X25655Y253635D03*
X253703Y253747D03*
X348230Y204254D03*
X348237Y24298D03*
X253641Y23678D03*
X89234Y24261D03*
X25582Y23572D03*
D11*
X342900Y596900D03*
X342900Y571500D03*
D12*
X304623Y614659D03*
X304623Y640059D03*
D13*
X23368Y619506D03*
X88392Y619506D03*
X23368Y574294D03*
X88392Y574294D03*
X23368Y352806D03*
X88392Y352806D03*
X23368Y307594D03*
X88392Y307594D03*
X112268Y352806D03*
X177292Y352806D03*
X112268Y307594D03*
X177292Y307594D03*
X201168Y352806D03*
X266192Y352806D03*
X201168Y307594D03*
X266192Y307594D03*
X112268Y619506D03*
X177292Y619506D03*
X112268Y574294D03*
X177292Y574294D03*
X201168Y619506D03*
X266192Y619506D03*
X201168Y574294D03*
X266192Y574294D03*
X23368Y530606D03*
X88392Y530606D03*
X23368Y485394D03*
X88392Y485394D03*
X112268Y530606D03*
X177292Y530606D03*
X112268Y485394D03*
X177292Y485394D03*
X201168Y530606D03*
X266192Y530606D03*
X201168Y485394D03*
X266192Y485394D03*
X23368Y441706D03*
X88392Y441706D03*
X23368Y396494D03*
X88392Y396494D03*
X112268Y441706D03*
X177292Y441706D03*
X112268Y396494D03*
X177292Y396494D03*
X201168Y441706D03*
X266192Y441706D03*
X201168Y396494D03*
X266192Y396494D03*
D14*
X177800Y262000D03*
X152400Y262000D03*
X127000Y262000D03*
X101600Y262000D03*
D10*
X25700Y253700D03*
D15*
X25700Y23700D03*
X253700Y23700D03*
D10*
X253700Y253700D03*
D14*
X418100Y50800D03*
X418100Y76200D03*
X418100Y101600D03*
X418100Y152400D03*
X418100Y127000D03*
X418100Y177800D03*
X64500Y76200D03*
X64500Y127000D03*
X64500Y101600D03*
X64500Y152400D03*
D16*
X348300Y204300D03*
X348300Y24300D03*
X89300Y24300D03*
D17*
X460756Y25400D02*
X479044Y25400D01*
X479044Y50800D02*
X460756Y50800D01*
X460756Y76200D02*
X479044Y76200D01*
X479044Y101600D02*
X460756Y101600D01*
X460756Y127000D02*
X479044Y127000D01*
X479044Y152400D02*
X460756Y152400D01*
X460756Y177800D02*
X479044Y177800D01*
X479044Y203200D02*
X460756Y203200D01*
X460756Y228600D02*
X479044Y228600D01*
X479044Y254000D02*
X460756Y254000D01*
X460756Y279400D02*
X479044Y279400D01*
X479044Y304800D02*
X460756Y304800D01*
D18*
X393700Y673100D03*
X431800Y673100D03*
D19*
X457200Y495300D03*
X406400Y469900D03*
X406400Y520700D03*
X457200Y596900D03*
X406400Y571500D03*
X406400Y622300D03*
X457200Y393700D03*
X406400Y368300D03*
X406400Y419100D03*
D20*
X419100Y266700D03*
X148200Y655438D03*
X237100Y655438D03*
X59300Y655438D03*
D19*
X317500Y292100D03*
M02*
