G04 EAGLE Gerber X2 export*
G04 #@! %TF.Part,Single*
G04 #@! %TF.FileFunction,Copper,L16,Bot,Mixed*
G04 #@! %TF.FilePolarity,Positive*
G04 #@! %TF.GenerationSoftware,Autodesk,EAGLE,9.0.1*
G04 #@! %TF.CreationDate,2018-05-25T20:11:03Z*
G75*
%MOMM*%
%FSLAX44Y44*%
%LPD*%
%AMOC8*
5,1,8,0,0,1.08239X$1,22.5*%
G01*
%ADD10P,1.759533X8X292.500000*%
%ADD11P,1.759533X8X112.500000*%
%ADD12C,1.879600*%
%ADD13C,1.930400*%
%ADD14C,1.828800*%
%ADD15P,1.979475X8X202.500000*%
%ADD16C,0.127000*%
%ADD17C,1.612800*%
%ADD18C,1.812800*%
%ADD19C,0.254000*%

G36*
X64604Y10169D02*
X64604Y10169D01*
X64680Y10168D01*
X64777Y10189D01*
X64875Y10201D01*
X64946Y10226D01*
X65020Y10242D01*
X65110Y10285D01*
X65203Y10318D01*
X65267Y10359D01*
X65335Y10392D01*
X65413Y10453D01*
X65496Y10507D01*
X65548Y10562D01*
X65608Y10609D01*
X65669Y10687D01*
X65738Y10758D01*
X65777Y10823D01*
X65824Y10882D01*
X65866Y10972D01*
X65917Y11057D01*
X65940Y11129D01*
X65972Y11198D01*
X65993Y11294D01*
X66023Y11389D01*
X66029Y11464D01*
X66045Y11538D01*
X66043Y11638D01*
X66051Y11736D01*
X66040Y11811D01*
X66038Y11887D01*
X66014Y11983D01*
X65999Y12081D01*
X65971Y12151D01*
X65953Y12225D01*
X65888Y12361D01*
X65871Y12405D01*
X65860Y12420D01*
X65848Y12446D01*
X64856Y14163D01*
X63073Y20817D01*
X63073Y27705D01*
X64856Y34359D01*
X68300Y40324D01*
X73171Y45195D01*
X79136Y48639D01*
X85790Y50422D01*
X92678Y50422D01*
X99332Y48639D01*
X105297Y45195D01*
X110168Y40324D01*
X113612Y34359D01*
X115395Y27705D01*
X115395Y20817D01*
X113612Y14163D01*
X112620Y12446D01*
X112590Y12376D01*
X112551Y12311D01*
X112521Y12217D01*
X112481Y12126D01*
X112468Y12051D01*
X112445Y11979D01*
X112437Y11880D01*
X112419Y11783D01*
X112423Y11707D01*
X112417Y11632D01*
X112432Y11534D01*
X112436Y11435D01*
X112457Y11362D01*
X112469Y11287D01*
X112505Y11195D01*
X112532Y11100D01*
X112569Y11034D01*
X112597Y10963D01*
X112654Y10882D01*
X112702Y10795D01*
X112753Y10739D01*
X112796Y10677D01*
X112870Y10611D01*
X112936Y10537D01*
X112999Y10494D01*
X113055Y10444D01*
X113142Y10396D01*
X113223Y10339D01*
X113294Y10312D01*
X113360Y10275D01*
X113455Y10248D01*
X113548Y10212D01*
X113622Y10201D01*
X113695Y10180D01*
X113846Y10168D01*
X113892Y10161D01*
X113911Y10163D01*
X113939Y10161D01*
X228599Y10161D01*
X228674Y10169D01*
X228750Y10168D01*
X228847Y10189D01*
X228945Y10201D01*
X229016Y10226D01*
X229090Y10242D01*
X229180Y10285D01*
X229273Y10318D01*
X229337Y10359D01*
X229405Y10392D01*
X229483Y10453D01*
X229566Y10507D01*
X229618Y10562D01*
X229678Y10609D01*
X229739Y10687D01*
X229808Y10758D01*
X229847Y10823D01*
X229894Y10882D01*
X229936Y10972D01*
X229987Y11057D01*
X230010Y11129D01*
X230042Y11198D01*
X230063Y11294D01*
X230093Y11389D01*
X230099Y11464D01*
X230115Y11538D01*
X230113Y11638D01*
X230121Y11736D01*
X230110Y11811D01*
X230108Y11887D01*
X230084Y11983D01*
X230069Y12081D01*
X230041Y12151D01*
X230023Y12225D01*
X229958Y12361D01*
X229941Y12405D01*
X229930Y12420D01*
X229918Y12446D01*
X229263Y13580D01*
X227480Y20233D01*
X227480Y27122D01*
X229263Y33775D01*
X232707Y39741D01*
X237578Y44611D01*
X243543Y48055D01*
X250197Y49838D01*
X257085Y49838D01*
X263739Y48055D01*
X269704Y44611D01*
X274575Y39741D01*
X278019Y33775D01*
X279802Y27122D01*
X279802Y20233D01*
X278019Y13580D01*
X277364Y12446D01*
X277334Y12376D01*
X277295Y12311D01*
X277265Y12217D01*
X277225Y12126D01*
X277212Y12051D01*
X277189Y11979D01*
X277181Y11880D01*
X277163Y11783D01*
X277167Y11707D01*
X277161Y11632D01*
X277175Y11534D01*
X277180Y11435D01*
X277201Y11362D01*
X277212Y11287D01*
X277249Y11195D01*
X277276Y11100D01*
X277313Y11034D01*
X277341Y10963D01*
X277398Y10882D01*
X277446Y10795D01*
X277497Y10739D01*
X277540Y10677D01*
X277614Y10611D01*
X277680Y10537D01*
X277743Y10494D01*
X277799Y10444D01*
X277886Y10396D01*
X277967Y10339D01*
X278038Y10312D01*
X278104Y10275D01*
X278199Y10248D01*
X278291Y10212D01*
X278366Y10201D01*
X278439Y10180D01*
X278590Y10168D01*
X278636Y10161D01*
X278655Y10163D01*
X278683Y10161D01*
X323553Y10161D01*
X323628Y10169D01*
X323704Y10168D01*
X323801Y10189D01*
X323899Y10201D01*
X323970Y10226D01*
X324044Y10242D01*
X324134Y10285D01*
X324227Y10318D01*
X324291Y10359D01*
X324359Y10392D01*
X324437Y10453D01*
X324520Y10507D01*
X324573Y10562D01*
X324632Y10609D01*
X324693Y10686D01*
X324762Y10758D01*
X324801Y10823D01*
X324848Y10882D01*
X324890Y10972D01*
X324941Y11057D01*
X324964Y11129D01*
X324996Y11198D01*
X325017Y11294D01*
X325047Y11389D01*
X325053Y11464D01*
X325069Y11538D01*
X325067Y11638D01*
X325075Y11736D01*
X325064Y11811D01*
X325062Y11887D01*
X325038Y11983D01*
X325023Y12081D01*
X324995Y12151D01*
X324977Y12225D01*
X324912Y12361D01*
X324895Y12405D01*
X324884Y12420D01*
X324872Y12446D01*
X323859Y14200D01*
X322076Y20854D01*
X322076Y27742D01*
X323859Y34395D01*
X327303Y40361D01*
X332174Y45231D01*
X338139Y48676D01*
X344793Y50458D01*
X351681Y50458D01*
X358335Y48676D01*
X364300Y45231D01*
X369171Y40361D01*
X372615Y34395D01*
X374398Y27742D01*
X374398Y20854D01*
X372615Y14200D01*
X371602Y12446D01*
X371572Y12376D01*
X371533Y12311D01*
X371503Y12217D01*
X371463Y12126D01*
X371450Y12051D01*
X371427Y11979D01*
X371419Y11880D01*
X371401Y11783D01*
X371405Y11707D01*
X371399Y11632D01*
X371413Y11534D01*
X371418Y11435D01*
X371439Y11362D01*
X371450Y11287D01*
X371487Y11195D01*
X371514Y11100D01*
X371551Y11034D01*
X371579Y10963D01*
X371636Y10882D01*
X371684Y10795D01*
X371735Y10739D01*
X371778Y10677D01*
X371852Y10611D01*
X371918Y10537D01*
X371981Y10494D01*
X372037Y10444D01*
X372124Y10396D01*
X372205Y10339D01*
X372276Y10312D01*
X372342Y10275D01*
X372437Y10248D01*
X372529Y10212D01*
X372604Y10201D01*
X372677Y10180D01*
X372828Y10168D01*
X372874Y10161D01*
X372893Y10163D01*
X372921Y10161D01*
X445017Y10161D01*
X445117Y10172D01*
X445217Y10174D01*
X445289Y10192D01*
X445363Y10201D01*
X445457Y10234D01*
X445555Y10259D01*
X445621Y10293D01*
X445691Y10318D01*
X445776Y10373D01*
X445865Y10419D01*
X445921Y10467D01*
X445984Y10507D01*
X446054Y10579D01*
X446130Y10644D01*
X446174Y10704D01*
X446226Y10758D01*
X446278Y10844D01*
X446337Y10925D01*
X446367Y10993D01*
X446405Y11057D01*
X446436Y11153D01*
X446475Y11245D01*
X446489Y11318D01*
X446511Y11389D01*
X446519Y11489D01*
X446537Y11588D01*
X446533Y11662D01*
X446539Y11736D01*
X446524Y11836D01*
X446519Y11936D01*
X446499Y12007D01*
X446487Y12081D01*
X446450Y12174D01*
X446423Y12271D01*
X446386Y12336D01*
X446359Y12405D01*
X446302Y12487D01*
X446252Y12575D01*
X446187Y12651D01*
X446160Y12691D01*
X446133Y12715D01*
X446094Y12761D01*
X444390Y14465D01*
X441451Y21560D01*
X441451Y29240D01*
X444390Y36335D01*
X445078Y37023D01*
X445094Y37043D01*
X445114Y37060D01*
X445202Y37179D01*
X445295Y37296D01*
X445306Y37320D01*
X445321Y37341D01*
X445380Y37477D01*
X445443Y37611D01*
X445449Y37637D01*
X445459Y37661D01*
X445486Y37807D01*
X445517Y37952D01*
X445516Y37978D01*
X445521Y38004D01*
X445513Y38152D01*
X445511Y38300D01*
X445504Y38326D01*
X445503Y38352D01*
X445462Y38494D01*
X445426Y38638D01*
X445414Y38661D01*
X445407Y38687D01*
X445334Y38816D01*
X445266Y38948D01*
X445249Y38968D01*
X445236Y38991D01*
X445078Y39177D01*
X444390Y39865D01*
X441451Y46960D01*
X441451Y54640D01*
X444390Y61735D01*
X444824Y62169D01*
X444886Y62247D01*
X444956Y62320D01*
X444994Y62384D01*
X445041Y62442D01*
X445084Y62533D01*
X445135Y62619D01*
X445158Y62690D01*
X445189Y62757D01*
X445211Y62855D01*
X445241Y62951D01*
X445247Y63025D01*
X445263Y63098D01*
X445261Y63198D01*
X445269Y63298D01*
X445258Y63372D01*
X445257Y63446D01*
X445232Y63543D01*
X445217Y63643D01*
X445190Y63712D01*
X445172Y63784D01*
X445126Y63873D01*
X445089Y63967D01*
X445046Y64028D01*
X445012Y64094D01*
X444947Y64171D01*
X444890Y64253D01*
X444835Y64303D01*
X444786Y64359D01*
X444706Y64419D01*
X444631Y64486D01*
X444566Y64522D01*
X444506Y64567D01*
X444414Y64606D01*
X444326Y64655D01*
X444254Y64675D01*
X444186Y64705D01*
X444087Y64722D01*
X443991Y64750D01*
X443891Y64758D01*
X443843Y64766D01*
X443807Y64764D01*
X443747Y64769D01*
X442226Y64769D01*
X438025Y66509D01*
X437874Y66661D01*
X437756Y66754D01*
X437641Y66851D01*
X437620Y66862D01*
X437601Y66877D01*
X437465Y66942D01*
X437331Y67010D01*
X437307Y67016D01*
X437286Y67026D01*
X437139Y67058D01*
X436993Y67094D01*
X436968Y67095D01*
X436945Y67100D01*
X436795Y67097D01*
X436644Y67099D01*
X436621Y67094D01*
X436596Y67094D01*
X436451Y67057D01*
X436304Y67025D01*
X436282Y67015D01*
X436258Y67009D01*
X436125Y66940D01*
X435989Y66875D01*
X435970Y66860D01*
X435949Y66849D01*
X435834Y66752D01*
X435717Y66658D01*
X435702Y66639D01*
X435683Y66623D01*
X435594Y66503D01*
X435501Y66384D01*
X435487Y66358D01*
X435476Y66343D01*
X435457Y66300D01*
X435389Y66167D01*
X434896Y64977D01*
X434497Y64577D01*
X434480Y64557D01*
X434460Y64540D01*
X434372Y64420D01*
X434280Y64304D01*
X434269Y64280D01*
X434253Y64259D01*
X434194Y64123D01*
X434131Y63989D01*
X434125Y63963D01*
X434115Y63939D01*
X434089Y63793D01*
X434058Y63648D01*
X434058Y63622D01*
X434053Y63596D01*
X434061Y63448D01*
X434064Y63300D01*
X434070Y63274D01*
X434071Y63248D01*
X434112Y63106D01*
X434149Y62962D01*
X434161Y62938D01*
X434168Y62913D01*
X434240Y62784D01*
X434308Y62652D01*
X434325Y62632D01*
X434338Y62609D01*
X434446Y62482D01*
X434456Y62468D01*
X434466Y62459D01*
X434497Y62423D01*
X434896Y62023D01*
X437913Y54741D01*
X437913Y46859D01*
X434896Y39577D01*
X429323Y34004D01*
X422041Y30987D01*
X414159Y30987D01*
X406877Y34004D01*
X401304Y39577D01*
X398287Y46859D01*
X398287Y54741D01*
X401304Y62023D01*
X401703Y62423D01*
X401720Y62443D01*
X401740Y62460D01*
X401787Y62524D01*
X401810Y62548D01*
X401832Y62585D01*
X401920Y62696D01*
X401931Y62720D01*
X401947Y62741D01*
X402006Y62877D01*
X402069Y63011D01*
X402075Y63037D01*
X402085Y63061D01*
X402111Y63207D01*
X402142Y63352D01*
X402142Y63378D01*
X402147Y63404D01*
X402139Y63552D01*
X402136Y63700D01*
X402130Y63726D01*
X402129Y63752D01*
X402088Y63894D01*
X402051Y64038D01*
X402039Y64061D01*
X402032Y64087D01*
X401960Y64216D01*
X401892Y64348D01*
X401875Y64368D01*
X401862Y64391D01*
X401703Y64577D01*
X401304Y64977D01*
X398287Y72259D01*
X398287Y80141D01*
X401304Y87423D01*
X401703Y87823D01*
X401720Y87843D01*
X401740Y87860D01*
X401828Y87980D01*
X401920Y88096D01*
X401931Y88120D01*
X401947Y88141D01*
X402006Y88277D01*
X402069Y88411D01*
X402075Y88437D01*
X402085Y88461D01*
X402111Y88607D01*
X402142Y88752D01*
X402142Y88778D01*
X402147Y88804D01*
X402139Y88952D01*
X402136Y89100D01*
X402130Y89126D01*
X402129Y89152D01*
X402088Y89294D01*
X402051Y89438D01*
X402039Y89461D01*
X402032Y89487D01*
X401960Y89616D01*
X401892Y89748D01*
X401875Y89768D01*
X401862Y89791D01*
X401703Y89977D01*
X401304Y90377D01*
X398287Y97659D01*
X398287Y105541D01*
X401304Y112823D01*
X401703Y113223D01*
X401720Y113243D01*
X401740Y113260D01*
X401828Y113380D01*
X401920Y113496D01*
X401931Y113520D01*
X401947Y113541D01*
X402006Y113677D01*
X402069Y113811D01*
X402075Y113837D01*
X402085Y113861D01*
X402111Y114007D01*
X402142Y114152D01*
X402142Y114178D01*
X402147Y114204D01*
X402139Y114352D01*
X402136Y114500D01*
X402130Y114526D01*
X402129Y114552D01*
X402088Y114694D01*
X402051Y114838D01*
X402039Y114861D01*
X402032Y114887D01*
X401960Y115016D01*
X401892Y115148D01*
X401875Y115168D01*
X401862Y115191D01*
X401703Y115377D01*
X401304Y115777D01*
X398287Y123059D01*
X398287Y130941D01*
X401304Y138223D01*
X401703Y138623D01*
X401720Y138643D01*
X401740Y138660D01*
X401828Y138780D01*
X401920Y138896D01*
X401931Y138920D01*
X401947Y138941D01*
X402006Y139077D01*
X402069Y139211D01*
X402075Y139237D01*
X402085Y139261D01*
X402111Y139407D01*
X402142Y139552D01*
X402142Y139578D01*
X402147Y139604D01*
X402139Y139752D01*
X402136Y139900D01*
X402130Y139926D01*
X402129Y139952D01*
X402088Y140094D01*
X402051Y140238D01*
X402039Y140262D01*
X402032Y140287D01*
X401960Y140416D01*
X401892Y140548D01*
X401875Y140568D01*
X401862Y140591D01*
X401703Y140777D01*
X401304Y141177D01*
X398287Y148459D01*
X398287Y156341D01*
X401304Y163623D01*
X406877Y169196D01*
X406942Y169223D01*
X407017Y169265D01*
X407097Y169298D01*
X407169Y169350D01*
X407247Y169393D01*
X407310Y169451D01*
X407380Y169501D01*
X407439Y169567D01*
X407505Y169627D01*
X407554Y169698D01*
X407611Y169762D01*
X407653Y169841D01*
X407703Y169913D01*
X407735Y169994D01*
X407775Y170069D01*
X407798Y170155D01*
X407831Y170238D01*
X407843Y170323D01*
X407866Y170406D01*
X407869Y170495D01*
X407882Y170582D01*
X407875Y170668D01*
X407877Y170754D01*
X407860Y170841D01*
X407853Y170930D01*
X407826Y171012D01*
X407810Y171096D01*
X407761Y171214D01*
X407746Y171261D01*
X407732Y171284D01*
X407716Y171322D01*
X406801Y173120D01*
X406207Y174945D01*
X406151Y175301D01*
X417124Y175301D01*
X417150Y175304D01*
X417176Y175302D01*
X417323Y175324D01*
X417470Y175341D01*
X417495Y175349D01*
X417521Y175353D01*
X417658Y175408D01*
X417798Y175458D01*
X417820Y175472D01*
X417845Y175482D01*
X417966Y175567D01*
X418091Y175647D01*
X418109Y175666D01*
X418131Y175681D01*
X418230Y175791D01*
X418333Y175898D01*
X418347Y175920D01*
X418364Y175940D01*
X418436Y176070D01*
X418512Y176197D01*
X418520Y176222D01*
X418533Y176245D01*
X418573Y176388D01*
X418618Y176529D01*
X418620Y176555D01*
X418627Y176580D01*
X418647Y176824D01*
X418647Y177253D01*
X419076Y177253D01*
X419102Y177256D01*
X419128Y177254D01*
X419275Y177276D01*
X419422Y177293D01*
X419447Y177302D01*
X419473Y177306D01*
X419611Y177360D01*
X419750Y177410D01*
X419772Y177425D01*
X419797Y177434D01*
X419918Y177519D01*
X420043Y177599D01*
X420061Y177618D01*
X420083Y177633D01*
X420182Y177743D01*
X420285Y177850D01*
X420299Y177873D01*
X420316Y177892D01*
X420388Y178022D01*
X420464Y178149D01*
X420472Y178174D01*
X420485Y178197D01*
X420525Y178340D01*
X420570Y178481D01*
X420572Y178507D01*
X420580Y178532D01*
X420599Y178776D01*
X420599Y189749D01*
X420955Y189693D01*
X422780Y189099D01*
X423822Y188569D01*
X423855Y188556D01*
X423886Y188538D01*
X424018Y188496D01*
X424148Y188447D01*
X424184Y188443D01*
X424218Y188432D01*
X424356Y188421D01*
X424494Y188403D01*
X424530Y188407D01*
X424566Y188404D01*
X424703Y188424D01*
X424841Y188438D01*
X424875Y188450D01*
X424910Y188455D01*
X425039Y188507D01*
X425170Y188552D01*
X425201Y188571D01*
X425234Y188584D01*
X425348Y188663D01*
X425465Y188737D01*
X425491Y188763D01*
X425520Y188783D01*
X425613Y188886D01*
X425711Y188985D01*
X425730Y189015D01*
X425754Y189042D01*
X425821Y189163D01*
X425893Y189281D01*
X425905Y189315D01*
X425922Y189347D01*
X425960Y189480D01*
X426004Y189612D01*
X426007Y189648D01*
X426017Y189682D01*
X426037Y189926D01*
X426037Y195294D01*
X426022Y195420D01*
X426016Y195546D01*
X426002Y195592D01*
X425997Y195640D01*
X425954Y195759D01*
X425919Y195881D01*
X425896Y195923D01*
X425879Y195968D01*
X425811Y196074D01*
X425749Y196185D01*
X425710Y196231D01*
X425690Y196261D01*
X425655Y196295D01*
X425590Y196371D01*
X341738Y280223D01*
X341639Y280302D01*
X341545Y280386D01*
X341503Y280410D01*
X341465Y280440D01*
X341351Y280494D01*
X341240Y280555D01*
X341194Y280568D01*
X341150Y280589D01*
X341027Y280615D01*
X340905Y280650D01*
X340844Y280655D01*
X340810Y280662D01*
X340762Y280661D01*
X340661Y280669D01*
X332474Y280669D01*
X332348Y280655D01*
X332222Y280648D01*
X332176Y280635D01*
X332128Y280629D01*
X332009Y280587D01*
X331887Y280552D01*
X331845Y280528D01*
X331800Y280512D01*
X331693Y280443D01*
X331583Y280382D01*
X331537Y280342D01*
X331507Y280323D01*
X331473Y280288D01*
X331397Y280223D01*
X327824Y276650D01*
X321125Y273875D01*
X313875Y273875D01*
X307176Y276650D01*
X302050Y281776D01*
X299275Y288475D01*
X299275Y295725D01*
X302050Y302424D01*
X307176Y307550D01*
X313875Y310325D01*
X321125Y310325D01*
X327824Y307550D01*
X331397Y303977D01*
X331496Y303898D01*
X331590Y303814D01*
X331632Y303790D01*
X331670Y303760D01*
X331784Y303706D01*
X331895Y303645D01*
X331941Y303632D01*
X331985Y303611D01*
X332108Y303585D01*
X332230Y303550D01*
X332291Y303545D01*
X332326Y303538D01*
X332374Y303539D01*
X332474Y303531D01*
X337026Y303531D01*
X337126Y303542D01*
X337226Y303544D01*
X337299Y303562D01*
X337373Y303571D01*
X337467Y303604D01*
X337564Y303629D01*
X337631Y303663D01*
X337701Y303688D01*
X337785Y303743D01*
X337874Y303789D01*
X337931Y303837D01*
X337993Y303877D01*
X338063Y303949D01*
X338140Y304014D01*
X338184Y304074D01*
X338236Y304128D01*
X338287Y304214D01*
X338347Y304295D01*
X338376Y304363D01*
X338414Y304427D01*
X338445Y304523D01*
X338485Y304615D01*
X338498Y304688D01*
X338521Y304759D01*
X338529Y304859D01*
X338547Y304958D01*
X338543Y305032D01*
X338549Y305106D01*
X338534Y305206D01*
X338529Y305306D01*
X338508Y305377D01*
X338497Y305451D01*
X338460Y305544D01*
X338432Y305641D01*
X338396Y305706D01*
X338368Y305775D01*
X338311Y305857D01*
X338262Y305945D01*
X338197Y306021D01*
X338169Y306061D01*
X338143Y306085D01*
X338103Y306131D01*
X323939Y320295D01*
X320510Y323725D01*
X318769Y327926D01*
X318769Y350234D01*
X318755Y350360D01*
X318748Y350486D01*
X318735Y350533D01*
X318729Y350581D01*
X318687Y350699D01*
X318652Y350821D01*
X318628Y350863D01*
X318612Y350909D01*
X318543Y351015D01*
X318482Y351125D01*
X318442Y351171D01*
X318423Y351201D01*
X318388Y351235D01*
X318323Y351311D01*
X313211Y356423D01*
X313112Y356502D01*
X313019Y356586D01*
X312976Y356610D01*
X312938Y356640D01*
X312824Y356694D01*
X312713Y356755D01*
X312667Y356768D01*
X312623Y356789D01*
X312500Y356815D01*
X312378Y356850D01*
X312317Y356855D01*
X312283Y356862D01*
X312235Y356861D01*
X312134Y356869D01*
X287274Y356869D01*
X287248Y356866D01*
X287222Y356868D01*
X287075Y356846D01*
X286928Y356829D01*
X286903Y356821D01*
X286877Y356817D01*
X286739Y356762D01*
X286600Y356712D01*
X286578Y356698D01*
X286553Y356688D01*
X286432Y356603D01*
X286307Y356523D01*
X286289Y356504D01*
X286267Y356489D01*
X286168Y356379D01*
X286065Y356272D01*
X286051Y356250D01*
X286034Y356230D01*
X285962Y356100D01*
X285886Y355973D01*
X285878Y355948D01*
X285865Y355925D01*
X285825Y355782D01*
X285780Y355641D01*
X285778Y355615D01*
X285770Y355590D01*
X285751Y355346D01*
X285751Y348916D01*
X282773Y341727D01*
X277271Y336225D01*
X270082Y333247D01*
X262302Y333247D01*
X255113Y336225D01*
X249611Y341727D01*
X246633Y348916D01*
X246633Y356696D01*
X248102Y360241D01*
X248123Y360315D01*
X248153Y360385D01*
X248170Y360482D01*
X248197Y360576D01*
X248201Y360653D01*
X248214Y360728D01*
X248209Y360826D01*
X248214Y360924D01*
X248200Y360999D01*
X248197Y361076D01*
X248169Y361171D01*
X248152Y361267D01*
X248121Y361337D01*
X248100Y361411D01*
X248052Y361497D01*
X248013Y361587D01*
X247967Y361648D01*
X247930Y361715D01*
X247833Y361829D01*
X247805Y361867D01*
X247790Y361879D01*
X247771Y361901D01*
X247633Y362039D01*
X238177Y371495D01*
X238157Y371512D01*
X238140Y371532D01*
X238020Y371620D01*
X237904Y371712D01*
X237880Y371723D01*
X237859Y371739D01*
X237723Y371798D01*
X237589Y371861D01*
X237563Y371866D01*
X237539Y371877D01*
X237393Y371903D01*
X237248Y371934D01*
X237222Y371934D01*
X237196Y371939D01*
X237048Y371931D01*
X236900Y371928D01*
X236874Y371922D01*
X236848Y371921D01*
X236706Y371880D01*
X236562Y371843D01*
X236538Y371831D01*
X236513Y371824D01*
X236384Y371752D01*
X236252Y371684D01*
X236232Y371667D01*
X236209Y371654D01*
X236023Y371495D01*
X221173Y356645D01*
X221094Y356546D01*
X221010Y356453D01*
X220986Y356410D01*
X220956Y356372D01*
X220902Y356258D01*
X220841Y356147D01*
X220828Y356101D01*
X220807Y356057D01*
X220781Y355934D01*
X220746Y355812D01*
X220741Y355751D01*
X220734Y355717D01*
X220735Y355669D01*
X220727Y355568D01*
X220727Y348916D01*
X217749Y341727D01*
X212247Y336225D01*
X205058Y333247D01*
X197278Y333247D01*
X189813Y336339D01*
X189691Y336374D01*
X189572Y336416D01*
X189524Y336422D01*
X189478Y336435D01*
X189352Y336441D01*
X189226Y336455D01*
X189178Y336450D01*
X189130Y336452D01*
X189005Y336429D01*
X188880Y336414D01*
X188822Y336396D01*
X188787Y336389D01*
X188743Y336370D01*
X188647Y336339D01*
X181182Y333247D01*
X173402Y333247D01*
X166213Y336225D01*
X160711Y341727D01*
X157733Y348916D01*
X157733Y355568D01*
X157719Y355694D01*
X157712Y355820D01*
X157699Y355867D01*
X157693Y355915D01*
X157651Y356033D01*
X157616Y356155D01*
X157592Y356197D01*
X157576Y356243D01*
X157507Y356349D01*
X157446Y356459D01*
X157406Y356505D01*
X157387Y356535D01*
X157352Y356569D01*
X157287Y356645D01*
X145857Y368075D01*
X145837Y368092D01*
X145820Y368112D01*
X145700Y368200D01*
X145584Y368292D01*
X145560Y368303D01*
X145539Y368319D01*
X145403Y368378D01*
X145269Y368441D01*
X145243Y368446D01*
X145219Y368457D01*
X145073Y368483D01*
X144928Y368514D01*
X144902Y368514D01*
X144876Y368519D01*
X144728Y368511D01*
X144580Y368508D01*
X144554Y368502D01*
X144528Y368501D01*
X144386Y368460D01*
X144242Y368423D01*
X144218Y368411D01*
X144193Y368404D01*
X144064Y368332D01*
X143932Y368264D01*
X143912Y368247D01*
X143889Y368234D01*
X143703Y368075D01*
X132273Y356645D01*
X132194Y356546D01*
X132110Y356453D01*
X132086Y356410D01*
X132056Y356372D01*
X132002Y356258D01*
X131941Y356147D01*
X131928Y356101D01*
X131907Y356057D01*
X131881Y355934D01*
X131846Y355812D01*
X131841Y355751D01*
X131834Y355717D01*
X131835Y355669D01*
X131827Y355568D01*
X131827Y348916D01*
X128849Y341727D01*
X123347Y336225D01*
X116158Y333247D01*
X108378Y333247D01*
X100913Y336339D01*
X100791Y336374D01*
X100672Y336416D01*
X100624Y336422D01*
X100578Y336435D01*
X100452Y336441D01*
X100326Y336455D01*
X100278Y336450D01*
X100230Y336452D01*
X100105Y336429D01*
X99980Y336414D01*
X99922Y336396D01*
X99887Y336389D01*
X99843Y336370D01*
X99747Y336339D01*
X92282Y333247D01*
X84502Y333247D01*
X77313Y336225D01*
X71811Y341727D01*
X68833Y348916D01*
X68833Y355568D01*
X68819Y355694D01*
X68812Y355820D01*
X68799Y355866D01*
X68793Y355914D01*
X68751Y356033D01*
X68716Y356155D01*
X68692Y356197D01*
X68676Y356243D01*
X68607Y356349D01*
X68546Y356459D01*
X68506Y356505D01*
X68487Y356535D01*
X68452Y356569D01*
X68387Y356645D01*
X56957Y368075D01*
X56937Y368092D01*
X56920Y368112D01*
X56800Y368200D01*
X56684Y368292D01*
X56660Y368303D01*
X56639Y368319D01*
X56503Y368378D01*
X56369Y368441D01*
X56343Y368446D01*
X56319Y368457D01*
X56173Y368483D01*
X56028Y368514D01*
X56002Y368514D01*
X55976Y368519D01*
X55828Y368511D01*
X55680Y368508D01*
X55654Y368502D01*
X55628Y368501D01*
X55486Y368460D01*
X55342Y368423D01*
X55318Y368411D01*
X55293Y368404D01*
X55164Y368332D01*
X55032Y368264D01*
X55012Y368247D01*
X54989Y368234D01*
X54803Y368075D01*
X43373Y356645D01*
X43294Y356546D01*
X43210Y356452D01*
X43186Y356410D01*
X43156Y356372D01*
X43102Y356258D01*
X43041Y356147D01*
X43028Y356101D01*
X43007Y356057D01*
X42981Y355934D01*
X42946Y355812D01*
X42941Y355751D01*
X42934Y355717D01*
X42935Y355669D01*
X42927Y355568D01*
X42927Y348916D01*
X39949Y341727D01*
X34447Y336225D01*
X27258Y333247D01*
X19478Y333247D01*
X12267Y336234D01*
X12122Y336275D01*
X11979Y336321D01*
X11955Y336323D01*
X11932Y336330D01*
X11781Y336337D01*
X11632Y336349D01*
X11608Y336345D01*
X11584Y336347D01*
X11436Y336320D01*
X11287Y336297D01*
X11265Y336288D01*
X11241Y336284D01*
X11103Y336224D01*
X10963Y336169D01*
X10943Y336155D01*
X10921Y336145D01*
X10800Y336055D01*
X10677Y335970D01*
X10661Y335952D01*
X10641Y335937D01*
X10544Y335822D01*
X10444Y335711D01*
X10432Y335690D01*
X10416Y335671D01*
X10348Y335538D01*
X10275Y335406D01*
X10269Y335383D01*
X10258Y335361D01*
X10221Y335216D01*
X10180Y335070D01*
X10178Y335041D01*
X10173Y335023D01*
X10173Y334976D01*
X10161Y334827D01*
X10161Y325573D01*
X10178Y325424D01*
X10190Y325274D01*
X10198Y325251D01*
X10201Y325227D01*
X10251Y325086D01*
X10297Y324942D01*
X10310Y324922D01*
X10318Y324899D01*
X10400Y324772D01*
X10477Y324644D01*
X10494Y324627D01*
X10507Y324606D01*
X10615Y324502D01*
X10720Y324394D01*
X10740Y324381D01*
X10758Y324364D01*
X10887Y324287D01*
X11013Y324206D01*
X11036Y324198D01*
X11057Y324185D01*
X11200Y324139D01*
X11342Y324089D01*
X11366Y324086D01*
X11389Y324079D01*
X11538Y324067D01*
X11688Y324050D01*
X11712Y324053D01*
X11736Y324051D01*
X11884Y324073D01*
X12034Y324091D01*
X12062Y324100D01*
X12081Y324103D01*
X12124Y324120D01*
X12267Y324166D01*
X19478Y327153D01*
X27258Y327153D01*
X34447Y324175D01*
X39949Y318673D01*
X42927Y311484D01*
X42927Y303704D01*
X39949Y296515D01*
X34447Y291013D01*
X27258Y288035D01*
X19478Y288035D01*
X12267Y291022D01*
X12122Y291063D01*
X11979Y291109D01*
X11955Y291111D01*
X11932Y291118D01*
X11781Y291125D01*
X11632Y291137D01*
X11608Y291133D01*
X11584Y291135D01*
X11436Y291108D01*
X11287Y291085D01*
X11265Y291076D01*
X11241Y291072D01*
X11103Y291012D01*
X10963Y290957D01*
X10943Y290943D01*
X10921Y290933D01*
X10800Y290843D01*
X10677Y290758D01*
X10661Y290740D01*
X10641Y290725D01*
X10544Y290610D01*
X10444Y290499D01*
X10432Y290478D01*
X10416Y290459D01*
X10348Y290326D01*
X10275Y290194D01*
X10269Y290171D01*
X10258Y290149D01*
X10221Y290004D01*
X10180Y289858D01*
X10178Y289829D01*
X10173Y289811D01*
X10173Y289764D01*
X10161Y289615D01*
X10161Y277575D01*
X10169Y277499D01*
X10168Y277424D01*
X10189Y277327D01*
X10201Y277228D01*
X10226Y277157D01*
X10242Y277083D01*
X10285Y276994D01*
X10318Y276900D01*
X10359Y276837D01*
X10392Y276768D01*
X10453Y276691D01*
X10507Y276607D01*
X10562Y276555D01*
X10609Y276496D01*
X10687Y276434D01*
X10758Y276365D01*
X10823Y276326D01*
X10882Y276279D01*
X10972Y276237D01*
X11057Y276186D01*
X11129Y276163D01*
X11198Y276131D01*
X11295Y276110D01*
X11389Y276080D01*
X11464Y276074D01*
X11538Y276058D01*
X11638Y276060D01*
X11736Y276052D01*
X11811Y276063D01*
X11887Y276065D01*
X11983Y276089D01*
X12081Y276104D01*
X12151Y276132D01*
X12225Y276150D01*
X12361Y276215D01*
X12405Y276233D01*
X12420Y276243D01*
X12446Y276255D01*
X15602Y278078D01*
X22256Y279861D01*
X29144Y279861D01*
X35798Y278078D01*
X41763Y274634D01*
X46634Y269763D01*
X50078Y263798D01*
X51861Y257144D01*
X51861Y250256D01*
X50078Y243602D01*
X46606Y237589D01*
X41718Y232702D01*
X35753Y229257D01*
X29099Y227475D01*
X22211Y227475D01*
X15558Y229257D01*
X12446Y231054D01*
X12376Y231084D01*
X12311Y231123D01*
X12217Y231153D01*
X12126Y231193D01*
X12051Y231206D01*
X11979Y231229D01*
X11880Y231237D01*
X11783Y231255D01*
X11707Y231251D01*
X11632Y231257D01*
X11534Y231243D01*
X11435Y231238D01*
X11362Y231217D01*
X11287Y231206D01*
X11195Y231169D01*
X11100Y231142D01*
X11034Y231105D01*
X10963Y231077D01*
X10882Y231020D01*
X10795Y230972D01*
X10739Y230921D01*
X10677Y230878D01*
X10611Y230805D01*
X10537Y230738D01*
X10494Y230675D01*
X10444Y230619D01*
X10396Y230532D01*
X10339Y230451D01*
X10312Y230380D01*
X10275Y230314D01*
X10248Y230219D01*
X10212Y230127D01*
X10201Y230052D01*
X10180Y229979D01*
X10168Y229828D01*
X10161Y229782D01*
X10163Y229763D01*
X10161Y229735D01*
X10161Y47514D01*
X10169Y47439D01*
X10168Y47363D01*
X10189Y47266D01*
X10201Y47168D01*
X10226Y47097D01*
X10242Y47023D01*
X10285Y46933D01*
X10318Y46840D01*
X10359Y46776D01*
X10392Y46708D01*
X10453Y46630D01*
X10507Y46547D01*
X10562Y46495D01*
X10609Y46435D01*
X10687Y46374D01*
X10758Y46305D01*
X10823Y46266D01*
X10882Y46219D01*
X10972Y46177D01*
X11057Y46126D01*
X11129Y46103D01*
X11198Y46071D01*
X11294Y46050D01*
X11389Y46020D01*
X11464Y46014D01*
X11538Y45998D01*
X11638Y46000D01*
X11736Y45992D01*
X11811Y46003D01*
X11887Y46005D01*
X11983Y46029D01*
X12081Y46044D01*
X12151Y46072D01*
X12225Y46090D01*
X12361Y46155D01*
X12405Y46172D01*
X12420Y46183D01*
X12446Y46195D01*
X15484Y47950D01*
X22138Y49732D01*
X29026Y49732D01*
X35680Y47950D01*
X41645Y44505D01*
X46516Y39635D01*
X49960Y33669D01*
X51743Y27016D01*
X51743Y20128D01*
X49960Y13474D01*
X49366Y12446D01*
X49336Y12376D01*
X49297Y12311D01*
X49267Y12217D01*
X49228Y12126D01*
X49214Y12051D01*
X49191Y11979D01*
X49183Y11880D01*
X49165Y11783D01*
X49169Y11707D01*
X49163Y11632D01*
X49178Y11534D01*
X49183Y11435D01*
X49203Y11362D01*
X49215Y11287D01*
X49251Y11195D01*
X49279Y11100D01*
X49315Y11034D01*
X49343Y10963D01*
X49400Y10882D01*
X49448Y10795D01*
X49499Y10739D01*
X49542Y10677D01*
X49616Y10611D01*
X49683Y10537D01*
X49745Y10494D01*
X49801Y10444D01*
X49888Y10396D01*
X49969Y10340D01*
X50040Y10312D01*
X50106Y10275D01*
X50202Y10248D01*
X50294Y10212D01*
X50369Y10201D01*
X50442Y10180D01*
X50592Y10168D01*
X50639Y10161D01*
X50657Y10163D01*
X50685Y10161D01*
X64529Y10161D01*
X64604Y10169D01*
G37*
G36*
X508842Y10164D02*
X508842Y10164D01*
X508868Y10162D01*
X509015Y10184D01*
X509162Y10201D01*
X509187Y10209D01*
X509213Y10213D01*
X509351Y10268D01*
X509490Y10318D01*
X509512Y10332D01*
X509537Y10342D01*
X509658Y10427D01*
X509783Y10507D01*
X509801Y10526D01*
X509823Y10541D01*
X509922Y10651D01*
X510025Y10758D01*
X510039Y10780D01*
X510056Y10800D01*
X510128Y10930D01*
X510204Y11057D01*
X510212Y11082D01*
X510225Y11105D01*
X510265Y11248D01*
X510310Y11389D01*
X510312Y11415D01*
X510320Y11440D01*
X510339Y11684D01*
X510339Y696216D01*
X510336Y696242D01*
X510338Y696268D01*
X510316Y696415D01*
X510299Y696562D01*
X510291Y696587D01*
X510287Y696613D01*
X510232Y696751D01*
X510182Y696890D01*
X510168Y696912D01*
X510158Y696937D01*
X510073Y697058D01*
X509993Y697183D01*
X509974Y697201D01*
X509959Y697223D01*
X509849Y697322D01*
X509742Y697425D01*
X509720Y697439D01*
X509700Y697456D01*
X509570Y697528D01*
X509443Y697604D01*
X509418Y697612D01*
X509395Y697625D01*
X509252Y697665D01*
X509111Y697710D01*
X509085Y697712D01*
X509060Y697720D01*
X508816Y697739D01*
X490210Y697739D01*
X490110Y697728D01*
X490010Y697726D01*
X489938Y697708D01*
X489864Y697699D01*
X489770Y697666D01*
X489672Y697641D01*
X489606Y697607D01*
X489536Y697582D01*
X489452Y697527D01*
X489362Y697481D01*
X489306Y697433D01*
X489243Y697393D01*
X489173Y697321D01*
X489097Y697256D01*
X489053Y697196D01*
X489001Y697142D01*
X488949Y697056D01*
X488890Y696975D01*
X488860Y696907D01*
X488822Y696843D01*
X488791Y696747D01*
X488752Y696655D01*
X488739Y696582D01*
X488716Y696511D01*
X488708Y696411D01*
X488690Y696312D01*
X488694Y696238D01*
X488688Y696164D01*
X488703Y696064D01*
X488708Y695964D01*
X488729Y695893D01*
X488740Y695819D01*
X488777Y695726D01*
X488804Y695629D01*
X488841Y695564D01*
X488868Y695495D01*
X488926Y695413D01*
X488975Y695325D01*
X489040Y695249D01*
X489067Y695209D01*
X489094Y695185D01*
X489133Y695139D01*
X491773Y692499D01*
X495217Y686533D01*
X497000Y679880D01*
X497000Y672992D01*
X495217Y666338D01*
X491773Y660373D01*
X486903Y655502D01*
X480937Y652058D01*
X474284Y650275D01*
X467395Y650275D01*
X460742Y652058D01*
X454776Y655502D01*
X449906Y660373D01*
X449605Y660893D01*
X449575Y660934D01*
X449552Y660979D01*
X449471Y661073D01*
X449398Y661173D01*
X449359Y661206D01*
X449326Y661244D01*
X449226Y661318D01*
X449132Y661398D01*
X449087Y661421D01*
X449046Y661452D01*
X448932Y661501D01*
X448822Y661557D01*
X448772Y661569D01*
X448726Y661590D01*
X448604Y661612D01*
X448484Y661641D01*
X448433Y661642D01*
X448383Y661651D01*
X448259Y661645D01*
X448135Y661647D01*
X448085Y661636D01*
X448034Y661633D01*
X447916Y661599D01*
X447795Y661573D01*
X447749Y661551D01*
X447700Y661537D01*
X447592Y661476D01*
X447480Y661423D01*
X447440Y661392D01*
X447395Y661367D01*
X447209Y661208D01*
X447207Y661206D01*
X439796Y653795D01*
X423804Y653795D01*
X412495Y665104D01*
X412495Y681373D01*
X412478Y681522D01*
X412466Y681672D01*
X412458Y681695D01*
X412455Y681719D01*
X412405Y681860D01*
X412359Y682004D01*
X412346Y682025D01*
X412338Y682047D01*
X412256Y682174D01*
X412179Y682303D01*
X412162Y682320D01*
X412149Y682340D01*
X412041Y682445D01*
X411936Y682553D01*
X411916Y682566D01*
X411898Y682582D01*
X411769Y682660D01*
X411643Y682741D01*
X411620Y682749D01*
X411599Y682761D01*
X411456Y682807D01*
X411314Y682857D01*
X411290Y682860D01*
X411267Y682867D01*
X411118Y682879D01*
X410968Y682896D01*
X410944Y682893D01*
X410920Y682895D01*
X410771Y682873D01*
X410622Y682856D01*
X410594Y682847D01*
X410575Y682844D01*
X410531Y682826D01*
X410389Y682780D01*
X406640Y681227D01*
X405775Y681227D01*
X405675Y681216D01*
X405575Y681214D01*
X405503Y681196D01*
X405429Y681187D01*
X405334Y681153D01*
X405237Y681129D01*
X405171Y681095D01*
X405101Y681070D01*
X405016Y681015D01*
X404927Y680969D01*
X404870Y680921D01*
X404808Y680881D01*
X404738Y680809D01*
X404661Y680744D01*
X404617Y680684D01*
X404566Y680630D01*
X404514Y680544D01*
X404454Y680463D01*
X404425Y680395D01*
X404387Y680331D01*
X404356Y680235D01*
X404316Y680143D01*
X404303Y680070D01*
X404280Y679999D01*
X404272Y679899D01*
X404255Y679800D01*
X404258Y679726D01*
X404253Y679652D01*
X404267Y679552D01*
X404273Y679452D01*
X404293Y679381D01*
X404304Y679307D01*
X404341Y679214D01*
X404369Y679117D01*
X404405Y679052D01*
X404433Y678983D01*
X404490Y678901D01*
X404539Y678813D01*
X404604Y678737D01*
X404632Y678697D01*
X404658Y678673D01*
X404698Y678627D01*
X405385Y677940D01*
X405385Y675639D01*
X394716Y675639D01*
X394690Y675636D01*
X394664Y675638D01*
X394517Y675616D01*
X394370Y675599D01*
X394345Y675591D01*
X394319Y675587D01*
X394182Y675532D01*
X394042Y675482D01*
X394020Y675468D01*
X393995Y675458D01*
X393874Y675373D01*
X393749Y675293D01*
X393731Y675274D01*
X393709Y675259D01*
X393695Y675243D01*
X393610Y675325D01*
X393587Y675339D01*
X393568Y675356D01*
X393438Y675428D01*
X393311Y675504D01*
X393286Y675512D01*
X393263Y675525D01*
X393120Y675565D01*
X392979Y675610D01*
X392953Y675612D01*
X392928Y675620D01*
X392684Y675639D01*
X382015Y675639D01*
X382015Y677940D01*
X382702Y678627D01*
X382765Y678706D01*
X382834Y678778D01*
X382873Y678842D01*
X382919Y678900D01*
X382962Y678991D01*
X383013Y679077D01*
X383036Y679148D01*
X383068Y679215D01*
X383089Y679313D01*
X383120Y679409D01*
X383125Y679483D01*
X383141Y679556D01*
X383139Y679656D01*
X383147Y679756D01*
X383136Y679830D01*
X383135Y679904D01*
X383111Y680001D01*
X383096Y680101D01*
X383068Y680170D01*
X383050Y680242D01*
X383004Y680331D01*
X382967Y680425D01*
X382925Y680486D01*
X382891Y680552D01*
X382825Y680628D01*
X382768Y680711D01*
X382713Y680761D01*
X382665Y680817D01*
X382584Y680877D01*
X382509Y680944D01*
X382444Y680980D01*
X382384Y681025D01*
X382292Y681064D01*
X382204Y681113D01*
X382133Y681133D01*
X382064Y681163D01*
X381966Y681180D01*
X381869Y681208D01*
X381769Y681216D01*
X381721Y681224D01*
X381686Y681222D01*
X381625Y681227D01*
X376189Y681227D01*
X371054Y683354D01*
X367124Y687284D01*
X364997Y692419D01*
X364997Y696216D01*
X364994Y696242D01*
X364996Y696268D01*
X364974Y696415D01*
X364957Y696562D01*
X364949Y696587D01*
X364945Y696613D01*
X364890Y696751D01*
X364840Y696890D01*
X364826Y696912D01*
X364816Y696937D01*
X364731Y697058D01*
X364651Y697183D01*
X364632Y697201D01*
X364617Y697223D01*
X364507Y697322D01*
X364400Y697425D01*
X364378Y697439D01*
X364358Y697456D01*
X364228Y697528D01*
X364101Y697604D01*
X364076Y697612D01*
X364053Y697625D01*
X363910Y697665D01*
X363769Y697710D01*
X363743Y697712D01*
X363718Y697720D01*
X363474Y697739D01*
X11684Y697739D01*
X11658Y697736D01*
X11632Y697738D01*
X11485Y697716D01*
X11338Y697699D01*
X11313Y697691D01*
X11287Y697687D01*
X11149Y697632D01*
X11010Y697582D01*
X10988Y697568D01*
X10963Y697558D01*
X10842Y697473D01*
X10717Y697393D01*
X10699Y697374D01*
X10677Y697359D01*
X10578Y697249D01*
X10475Y697142D01*
X10461Y697120D01*
X10444Y697100D01*
X10372Y696970D01*
X10296Y696843D01*
X10288Y696818D01*
X10275Y696795D01*
X10235Y696652D01*
X10190Y696511D01*
X10188Y696485D01*
X10180Y696460D01*
X10161Y696216D01*
X10161Y637485D01*
X10178Y637336D01*
X10190Y637186D01*
X10198Y637163D01*
X10201Y637139D01*
X10251Y636998D01*
X10297Y636854D01*
X10310Y636834D01*
X10318Y636811D01*
X10400Y636684D01*
X10477Y636556D01*
X10494Y636539D01*
X10507Y636518D01*
X10615Y636414D01*
X10720Y636306D01*
X10740Y636293D01*
X10758Y636276D01*
X10887Y636199D01*
X11013Y636118D01*
X11036Y636110D01*
X11057Y636097D01*
X11200Y636051D01*
X11342Y636001D01*
X11366Y635998D01*
X11389Y635991D01*
X11538Y635979D01*
X11688Y635962D01*
X11712Y635965D01*
X11736Y635963D01*
X11884Y635985D01*
X12034Y636003D01*
X12062Y636012D01*
X12081Y636015D01*
X12124Y636032D01*
X12267Y636078D01*
X19478Y639065D01*
X26130Y639065D01*
X26256Y639079D01*
X26382Y639086D01*
X26428Y639099D01*
X26476Y639105D01*
X26595Y639147D01*
X26717Y639182D01*
X26759Y639206D01*
X26805Y639222D01*
X26911Y639291D01*
X27021Y639352D01*
X27067Y639392D01*
X27097Y639411D01*
X27131Y639446D01*
X27207Y639511D01*
X39629Y651933D01*
X39697Y652018D01*
X39724Y652046D01*
X39730Y652057D01*
X39792Y652126D01*
X39816Y652168D01*
X39846Y652206D01*
X39900Y652320D01*
X39961Y652431D01*
X39974Y652477D01*
X39995Y652521D01*
X40021Y652644D01*
X40056Y652766D01*
X40061Y652827D01*
X40068Y652861D01*
X40067Y652909D01*
X40075Y653010D01*
X40075Y659262D01*
X43002Y666328D01*
X48410Y671736D01*
X55476Y674663D01*
X63124Y674663D01*
X70190Y671736D01*
X74412Y667514D01*
X74452Y667482D01*
X74486Y667445D01*
X74588Y667375D01*
X74685Y667298D01*
X74731Y667276D01*
X74773Y667247D01*
X74888Y667202D01*
X75000Y667149D01*
X75050Y667138D01*
X75097Y667119D01*
X75219Y667101D01*
X75340Y667075D01*
X75391Y667076D01*
X75442Y667069D01*
X75565Y667079D01*
X75689Y667081D01*
X75738Y667094D01*
X75789Y667098D01*
X75907Y667136D01*
X76027Y667166D01*
X76072Y667190D01*
X76121Y667205D01*
X76227Y667269D01*
X76337Y667326D01*
X76376Y667359D01*
X76419Y667385D01*
X76508Y667472D01*
X76602Y667552D01*
X76632Y667593D01*
X76669Y667628D01*
X76808Y667830D01*
X78126Y670113D01*
X82997Y674984D01*
X88962Y678428D01*
X95616Y680211D01*
X102504Y680211D01*
X109158Y678428D01*
X115123Y674984D01*
X119994Y670113D01*
X123438Y664148D01*
X125221Y657494D01*
X125221Y652302D01*
X125232Y652202D01*
X125234Y652101D01*
X125252Y652029D01*
X125261Y651955D01*
X125294Y651861D01*
X125319Y651763D01*
X125353Y651697D01*
X125378Y651627D01*
X125433Y651543D01*
X125479Y651454D01*
X125527Y651397D01*
X125567Y651335D01*
X125639Y651265D01*
X125704Y651188D01*
X125764Y651144D01*
X125818Y651092D01*
X125904Y651041D01*
X125985Y650981D01*
X126053Y650952D01*
X126117Y650914D01*
X126212Y650883D01*
X126305Y650843D01*
X126378Y650830D01*
X126449Y650807D01*
X126549Y650799D01*
X126648Y650781D01*
X126722Y650785D01*
X126796Y650779D01*
X126895Y650794D01*
X126996Y650799D01*
X127067Y650820D01*
X127141Y650831D01*
X127234Y650868D01*
X127331Y650896D01*
X127396Y650932D01*
X127465Y650960D01*
X127547Y651017D01*
X127635Y651066D01*
X127711Y651131D01*
X127751Y651159D01*
X127775Y651185D01*
X127821Y651225D01*
X128529Y651933D01*
X128597Y652018D01*
X128624Y652046D01*
X128630Y652057D01*
X128692Y652126D01*
X128716Y652168D01*
X128746Y652206D01*
X128800Y652320D01*
X128861Y652431D01*
X128874Y652477D01*
X128895Y652521D01*
X128921Y652644D01*
X128956Y652766D01*
X128961Y652827D01*
X128968Y652861D01*
X128967Y652910D01*
X128975Y653010D01*
X128975Y659262D01*
X131902Y666328D01*
X137310Y671736D01*
X144376Y674663D01*
X152024Y674663D01*
X159090Y671736D01*
X164498Y666328D01*
X167425Y659262D01*
X167425Y651614D01*
X166035Y648258D01*
X166014Y648185D01*
X165984Y648115D01*
X165966Y648018D01*
X165939Y647923D01*
X165935Y647847D01*
X165922Y647772D01*
X165927Y647673D01*
X165922Y647575D01*
X165936Y647500D01*
X165940Y647424D01*
X165967Y647329D01*
X165985Y647232D01*
X166015Y647162D01*
X166036Y647089D01*
X166084Y647003D01*
X166124Y646913D01*
X166169Y646851D01*
X166207Y646785D01*
X166303Y646671D01*
X166332Y646633D01*
X166346Y646621D01*
X166365Y646598D01*
X173453Y639511D01*
X173552Y639432D01*
X173646Y639348D01*
X173688Y639324D01*
X173726Y639294D01*
X173840Y639240D01*
X173951Y639179D01*
X173997Y639166D01*
X174041Y639145D01*
X174164Y639119D01*
X174286Y639084D01*
X174347Y639079D01*
X174381Y639072D01*
X174429Y639073D01*
X174530Y639065D01*
X181182Y639065D01*
X188647Y635973D01*
X188769Y635938D01*
X188888Y635896D01*
X188936Y635890D01*
X188982Y635877D01*
X189108Y635871D01*
X189234Y635857D01*
X189282Y635862D01*
X189330Y635860D01*
X189454Y635883D01*
X189580Y635898D01*
X189638Y635916D01*
X189673Y635923D01*
X189717Y635942D01*
X189813Y635973D01*
X197278Y639065D01*
X203930Y639065D01*
X204056Y639079D01*
X204182Y639086D01*
X204228Y639099D01*
X204276Y639105D01*
X204395Y639147D01*
X204517Y639182D01*
X204559Y639206D01*
X204605Y639222D01*
X204711Y639291D01*
X204821Y639352D01*
X204867Y639392D01*
X204897Y639411D01*
X204931Y639446D01*
X205007Y639511D01*
X217429Y651933D01*
X217497Y652018D01*
X217524Y652046D01*
X217530Y652057D01*
X217592Y652126D01*
X217616Y652168D01*
X217646Y652206D01*
X217700Y652320D01*
X217761Y652431D01*
X217774Y652477D01*
X217795Y652521D01*
X217821Y652644D01*
X217856Y652766D01*
X217861Y652827D01*
X217868Y652861D01*
X217867Y652909D01*
X217875Y653010D01*
X217875Y659262D01*
X220802Y666328D01*
X226210Y671736D01*
X233276Y674663D01*
X240924Y674663D01*
X247990Y671736D01*
X253398Y666328D01*
X256325Y659262D01*
X256325Y651614D01*
X254935Y648258D01*
X254914Y648185D01*
X254884Y648115D01*
X254866Y648018D01*
X254839Y647923D01*
X254835Y647847D01*
X254822Y647772D01*
X254827Y647673D01*
X254822Y647575D01*
X254836Y647500D01*
X254840Y647424D01*
X254867Y647329D01*
X254885Y647232D01*
X254915Y647162D01*
X254936Y647089D01*
X254984Y647003D01*
X255024Y646913D01*
X255069Y646851D01*
X255107Y646785D01*
X255203Y646671D01*
X255232Y646633D01*
X255246Y646621D01*
X255265Y646598D01*
X262353Y639511D01*
X262452Y639432D01*
X262546Y639348D01*
X262588Y639324D01*
X262626Y639294D01*
X262740Y639240D01*
X262851Y639179D01*
X262897Y639166D01*
X262941Y639145D01*
X263064Y639119D01*
X263186Y639084D01*
X263247Y639079D01*
X263281Y639072D01*
X263329Y639073D01*
X263430Y639065D01*
X270082Y639065D01*
X277271Y636087D01*
X282773Y630585D01*
X285751Y623396D01*
X285751Y615616D01*
X282773Y608427D01*
X277271Y602925D01*
X270082Y599947D01*
X262302Y599947D01*
X255113Y602925D01*
X251131Y606907D01*
X251053Y606969D01*
X250980Y607039D01*
X250916Y607077D01*
X250858Y607123D01*
X250767Y607166D01*
X250681Y607218D01*
X250610Y607240D01*
X250543Y607272D01*
X250445Y607293D01*
X250349Y607324D01*
X250275Y607330D01*
X250202Y607346D01*
X250102Y607344D01*
X250002Y607352D01*
X249928Y607341D01*
X249854Y607340D01*
X249757Y607315D01*
X249657Y607300D01*
X249588Y607273D01*
X249516Y607255D01*
X249426Y607209D01*
X249333Y607172D01*
X249272Y607129D01*
X249206Y607095D01*
X249129Y607030D01*
X249047Y606973D01*
X248997Y606917D01*
X248941Y606869D01*
X248881Y606788D01*
X248814Y606714D01*
X248778Y606649D01*
X248733Y606589D01*
X248694Y606497D01*
X248645Y606409D01*
X248625Y606337D01*
X248595Y606269D01*
X248578Y606170D01*
X248550Y606073D01*
X248542Y605973D01*
X248534Y605926D01*
X248536Y605890D01*
X248531Y605830D01*
X248531Y587970D01*
X248542Y587871D01*
X248544Y587770D01*
X248562Y587698D01*
X248571Y587624D01*
X248604Y587530D01*
X248629Y587432D01*
X248663Y587366D01*
X248688Y587296D01*
X248743Y587212D01*
X248789Y587122D01*
X248837Y587066D01*
X248877Y587003D01*
X248949Y586933D01*
X249014Y586857D01*
X249074Y586813D01*
X249128Y586761D01*
X249214Y586710D01*
X249295Y586650D01*
X249363Y586620D01*
X249427Y586582D01*
X249523Y586552D01*
X249615Y586512D01*
X249688Y586499D01*
X249759Y586476D01*
X249859Y586468D01*
X249958Y586450D01*
X250032Y586454D01*
X250106Y586448D01*
X250206Y586463D01*
X250306Y586468D01*
X250377Y586489D01*
X250451Y586500D01*
X250544Y586537D01*
X250641Y586565D01*
X250706Y586601D01*
X250775Y586628D01*
X250857Y586686D01*
X250945Y586735D01*
X251021Y586800D01*
X251061Y586827D01*
X251085Y586854D01*
X251131Y586893D01*
X255113Y590875D01*
X262302Y593853D01*
X270082Y593853D01*
X277271Y590875D01*
X282773Y585373D01*
X285751Y578184D01*
X285751Y570404D01*
X282773Y563215D01*
X277271Y557713D01*
X270082Y554735D01*
X262260Y554735D01*
X262207Y554746D01*
X262088Y554781D01*
X262038Y554783D01*
X261988Y554794D01*
X261864Y554792D01*
X261740Y554798D01*
X261690Y554789D01*
X261640Y554788D01*
X261519Y554757D01*
X261397Y554735D01*
X261351Y554715D01*
X261302Y554703D01*
X261191Y554646D01*
X261077Y554596D01*
X261037Y554566D01*
X260992Y554543D01*
X260897Y554462D01*
X260798Y554388D01*
X260765Y554350D01*
X260727Y554317D01*
X260653Y554217D01*
X260572Y554122D01*
X260549Y554077D01*
X260519Y554037D01*
X260470Y553923D01*
X260414Y553812D01*
X260401Y553763D01*
X260381Y553717D01*
X260359Y553594D01*
X260329Y553474D01*
X260329Y553424D01*
X260320Y553374D01*
X260326Y553250D01*
X260324Y553125D01*
X260335Y553076D01*
X260338Y553026D01*
X260372Y552907D01*
X260399Y552785D01*
X260420Y552739D01*
X260434Y552691D01*
X260495Y552582D01*
X260548Y552470D01*
X260580Y552431D01*
X260604Y552387D01*
X260763Y552201D01*
X262353Y550611D01*
X262452Y550532D01*
X262546Y550448D01*
X262588Y550424D01*
X262626Y550394D01*
X262740Y550340D01*
X262851Y550279D01*
X262897Y550266D01*
X262941Y550245D01*
X263064Y550219D01*
X263186Y550184D01*
X263246Y550179D01*
X263281Y550172D01*
X263330Y550173D01*
X263430Y550165D01*
X270082Y550165D01*
X277271Y547187D01*
X282773Y541685D01*
X285751Y534496D01*
X285751Y526716D01*
X282773Y519527D01*
X277271Y514025D01*
X270082Y511047D01*
X262302Y511047D01*
X255113Y514025D01*
X251131Y518007D01*
X251053Y518069D01*
X250980Y518139D01*
X250916Y518177D01*
X250858Y518223D01*
X250767Y518266D01*
X250681Y518318D01*
X250610Y518340D01*
X250543Y518372D01*
X250445Y518393D01*
X250349Y518424D01*
X250275Y518430D01*
X250202Y518446D01*
X250102Y518444D01*
X250002Y518452D01*
X249928Y518441D01*
X249854Y518440D01*
X249757Y518415D01*
X249657Y518400D01*
X249588Y518373D01*
X249516Y518355D01*
X249426Y518309D01*
X249333Y518272D01*
X249272Y518229D01*
X249206Y518195D01*
X249129Y518130D01*
X249047Y518073D01*
X248997Y518017D01*
X248941Y517969D01*
X248881Y517888D01*
X248814Y517814D01*
X248778Y517749D01*
X248733Y517689D01*
X248694Y517597D01*
X248645Y517509D01*
X248625Y517437D01*
X248595Y517369D01*
X248578Y517270D01*
X248550Y517173D01*
X248542Y517073D01*
X248534Y517026D01*
X248536Y516990D01*
X248531Y516930D01*
X248531Y499070D01*
X248542Y498971D01*
X248544Y498870D01*
X248562Y498798D01*
X248571Y498724D01*
X248604Y498630D01*
X248629Y498532D01*
X248663Y498466D01*
X248688Y498396D01*
X248743Y498312D01*
X248789Y498222D01*
X248837Y498166D01*
X248877Y498103D01*
X248949Y498033D01*
X249014Y497957D01*
X249074Y497913D01*
X249128Y497861D01*
X249214Y497810D01*
X249295Y497750D01*
X249363Y497720D01*
X249427Y497682D01*
X249523Y497652D01*
X249615Y497612D01*
X249688Y497599D01*
X249759Y497576D01*
X249859Y497568D01*
X249958Y497550D01*
X250032Y497554D01*
X250106Y497548D01*
X250206Y497563D01*
X250306Y497568D01*
X250377Y497589D01*
X250451Y497600D01*
X250544Y497637D01*
X250641Y497665D01*
X250706Y497701D01*
X250775Y497728D01*
X250857Y497786D01*
X250945Y497835D01*
X251021Y497900D01*
X251061Y497927D01*
X251085Y497954D01*
X251131Y497993D01*
X255113Y501975D01*
X262302Y504953D01*
X270082Y504953D01*
X277271Y501975D01*
X282773Y496473D01*
X285751Y489284D01*
X285751Y481504D01*
X282773Y474315D01*
X277271Y468813D01*
X270082Y465835D01*
X262260Y465835D01*
X262208Y465846D01*
X262088Y465881D01*
X262037Y465883D01*
X261988Y465894D01*
X261864Y465892D01*
X261740Y465898D01*
X261690Y465889D01*
X261640Y465888D01*
X261519Y465857D01*
X261397Y465835D01*
X261351Y465815D01*
X261302Y465803D01*
X261191Y465746D01*
X261077Y465696D01*
X261037Y465666D01*
X260992Y465643D01*
X260897Y465562D01*
X260798Y465488D01*
X260765Y465450D01*
X260727Y465417D01*
X260653Y465317D01*
X260572Y465222D01*
X260549Y465178D01*
X260519Y465137D01*
X260470Y465023D01*
X260414Y464912D01*
X260401Y464863D01*
X260381Y464817D01*
X260359Y464694D01*
X260329Y464574D01*
X260329Y464524D01*
X260320Y464474D01*
X260326Y464350D01*
X260324Y464226D01*
X260335Y464176D01*
X260338Y464126D01*
X260372Y464006D01*
X260399Y463885D01*
X260420Y463840D01*
X260434Y463791D01*
X260495Y463683D01*
X260548Y463570D01*
X260580Y463531D01*
X260604Y463487D01*
X260763Y463301D01*
X262353Y461711D01*
X262452Y461632D01*
X262545Y461548D01*
X262588Y461524D01*
X262626Y461494D01*
X262740Y461440D01*
X262851Y461379D01*
X262897Y461366D01*
X262941Y461345D01*
X263064Y461319D01*
X263186Y461284D01*
X263247Y461279D01*
X263281Y461272D01*
X263329Y461273D01*
X263430Y461265D01*
X270082Y461265D01*
X277271Y458287D01*
X282773Y452785D01*
X285751Y445596D01*
X285751Y437816D01*
X282773Y430627D01*
X277271Y425125D01*
X270082Y422147D01*
X262302Y422147D01*
X255113Y425125D01*
X251131Y429107D01*
X251053Y429169D01*
X250980Y429239D01*
X250916Y429277D01*
X250858Y429323D01*
X250767Y429366D01*
X250681Y429418D01*
X250610Y429440D01*
X250543Y429472D01*
X250445Y429493D01*
X250349Y429524D01*
X250275Y429530D01*
X250202Y429546D01*
X250102Y429544D01*
X250002Y429552D01*
X249928Y429541D01*
X249854Y429540D01*
X249757Y429515D01*
X249657Y429500D01*
X249588Y429473D01*
X249516Y429455D01*
X249426Y429409D01*
X249333Y429372D01*
X249272Y429329D01*
X249206Y429295D01*
X249129Y429230D01*
X249047Y429173D01*
X248997Y429117D01*
X248941Y429069D01*
X248881Y428988D01*
X248814Y428914D01*
X248778Y428849D01*
X248733Y428789D01*
X248694Y428697D01*
X248645Y428609D01*
X248625Y428537D01*
X248595Y428469D01*
X248578Y428370D01*
X248550Y428273D01*
X248542Y428173D01*
X248534Y428126D01*
X248536Y428090D01*
X248531Y428030D01*
X248531Y410170D01*
X248542Y410071D01*
X248544Y409970D01*
X248562Y409898D01*
X248571Y409824D01*
X248604Y409730D01*
X248629Y409632D01*
X248663Y409566D01*
X248688Y409496D01*
X248743Y409412D01*
X248789Y409322D01*
X248837Y409266D01*
X248877Y409203D01*
X248949Y409133D01*
X249014Y409057D01*
X249074Y409013D01*
X249128Y408961D01*
X249214Y408910D01*
X249295Y408850D01*
X249363Y408820D01*
X249427Y408782D01*
X249523Y408752D01*
X249615Y408712D01*
X249688Y408699D01*
X249759Y408676D01*
X249859Y408668D01*
X249958Y408650D01*
X250032Y408654D01*
X250106Y408648D01*
X250206Y408663D01*
X250306Y408668D01*
X250377Y408689D01*
X250451Y408700D01*
X250544Y408737D01*
X250641Y408765D01*
X250706Y408801D01*
X250775Y408828D01*
X250857Y408886D01*
X250945Y408935D01*
X251021Y409000D01*
X251061Y409027D01*
X251085Y409054D01*
X251131Y409093D01*
X255113Y413075D01*
X262302Y416053D01*
X270082Y416053D01*
X277271Y413075D01*
X282773Y407573D01*
X285751Y400384D01*
X285751Y392604D01*
X282773Y385415D01*
X279689Y382331D01*
X279627Y382253D01*
X279557Y382180D01*
X279519Y382116D01*
X279473Y382058D01*
X279430Y381967D01*
X279378Y381881D01*
X279356Y381810D01*
X279324Y381743D01*
X279303Y381645D01*
X279272Y381549D01*
X279266Y381475D01*
X279250Y381402D01*
X279252Y381302D01*
X279244Y381202D01*
X279255Y381128D01*
X279256Y381054D01*
X279281Y380957D01*
X279296Y380857D01*
X279323Y380788D01*
X279341Y380716D01*
X279387Y380627D01*
X279424Y380533D01*
X279467Y380472D01*
X279501Y380406D01*
X279566Y380330D01*
X279623Y380247D01*
X279679Y380197D01*
X279727Y380141D01*
X279808Y380081D01*
X279882Y380014D01*
X279947Y379978D01*
X280007Y379933D01*
X280099Y379894D01*
X280187Y379845D01*
X280259Y379825D01*
X280327Y379795D01*
X280426Y379778D01*
X280523Y379750D01*
X280623Y379742D01*
X280670Y379734D01*
X280706Y379736D01*
X280766Y379731D01*
X319774Y379731D01*
X323975Y377990D01*
X327405Y374561D01*
X336461Y365505D01*
X339890Y362075D01*
X341631Y357874D01*
X341631Y335566D01*
X341645Y335440D01*
X341652Y335314D01*
X341665Y335268D01*
X341671Y335220D01*
X341713Y335101D01*
X341748Y334979D01*
X341772Y334937D01*
X341788Y334891D01*
X341857Y334785D01*
X341918Y334675D01*
X341958Y334629D01*
X341977Y334599D01*
X342012Y334565D01*
X342077Y334489D01*
X440623Y235943D01*
X440740Y235849D01*
X440855Y235752D01*
X440877Y235741D01*
X440896Y235726D01*
X441031Y235662D01*
X441165Y235594D01*
X441189Y235588D01*
X441211Y235577D01*
X441357Y235546D01*
X441504Y235509D01*
X441528Y235509D01*
X441551Y235504D01*
X441701Y235507D01*
X441852Y235504D01*
X441876Y235510D01*
X441900Y235510D01*
X442045Y235547D01*
X442193Y235579D01*
X442214Y235589D01*
X442238Y235595D01*
X442372Y235664D01*
X442507Y235728D01*
X442526Y235743D01*
X442548Y235755D01*
X442662Y235852D01*
X442780Y235946D01*
X442795Y235965D01*
X442813Y235980D01*
X442903Y236101D01*
X442996Y236219D01*
X443009Y236245D01*
X443020Y236261D01*
X443039Y236304D01*
X443107Y236437D01*
X444390Y239535D01*
X445078Y240223D01*
X445094Y240243D01*
X445114Y240260D01*
X445202Y240379D01*
X445295Y240496D01*
X445306Y240520D01*
X445321Y240541D01*
X445380Y240677D01*
X445443Y240811D01*
X445449Y240837D01*
X445459Y240861D01*
X445486Y241007D01*
X445517Y241152D01*
X445516Y241178D01*
X445521Y241204D01*
X445513Y241352D01*
X445511Y241500D01*
X445504Y241526D01*
X445503Y241552D01*
X445462Y241694D01*
X445426Y241838D01*
X445414Y241861D01*
X445407Y241887D01*
X445334Y242016D01*
X445266Y242148D01*
X445249Y242168D01*
X445236Y242191D01*
X445078Y242377D01*
X444390Y243065D01*
X441451Y250160D01*
X441451Y257840D01*
X444390Y264935D01*
X445078Y265623D01*
X445094Y265643D01*
X445114Y265660D01*
X445202Y265779D01*
X445295Y265896D01*
X445306Y265920D01*
X445321Y265941D01*
X445380Y266077D01*
X445443Y266211D01*
X445449Y266237D01*
X445459Y266261D01*
X445486Y266407D01*
X445517Y266552D01*
X445516Y266578D01*
X445521Y266604D01*
X445513Y266752D01*
X445511Y266900D01*
X445504Y266926D01*
X445503Y266952D01*
X445462Y267094D01*
X445426Y267238D01*
X445414Y267261D01*
X445407Y267287D01*
X445334Y267416D01*
X445266Y267548D01*
X445249Y267568D01*
X445236Y267591D01*
X445078Y267777D01*
X444390Y268465D01*
X441451Y275560D01*
X441451Y283240D01*
X444390Y290335D01*
X449821Y295766D01*
X450385Y295999D01*
X450412Y296014D01*
X450441Y296024D01*
X450564Y296099D01*
X450689Y296169D01*
X450712Y296190D01*
X450739Y296206D01*
X450841Y296306D01*
X450947Y296403D01*
X450965Y296428D01*
X450987Y296450D01*
X451064Y296571D01*
X451146Y296689D01*
X451157Y296718D01*
X451174Y296745D01*
X451221Y296880D01*
X451273Y297014D01*
X451278Y297044D01*
X451288Y297074D01*
X451303Y297217D01*
X451324Y297358D01*
X451322Y297390D01*
X451325Y297420D01*
X451307Y297563D01*
X451295Y297706D01*
X451286Y297735D01*
X451282Y297766D01*
X451232Y297901D01*
X451188Y298037D01*
X451172Y298064D01*
X451161Y298093D01*
X451034Y298302D01*
X450762Y298676D01*
X449927Y300315D01*
X449359Y302064D01*
X449328Y302261D01*
X468884Y302261D01*
X468910Y302264D01*
X468936Y302262D01*
X469083Y302284D01*
X469230Y302301D01*
X469255Y302309D01*
X469281Y302313D01*
X469418Y302368D01*
X469558Y302418D01*
X469580Y302432D01*
X469605Y302442D01*
X469726Y302527D01*
X469851Y302607D01*
X469869Y302626D01*
X469891Y302641D01*
X469990Y302751D01*
X470093Y302858D01*
X470107Y302880D01*
X470124Y302900D01*
X470196Y303030D01*
X470272Y303157D01*
X470280Y303182D01*
X470293Y303205D01*
X470333Y303348D01*
X470378Y303489D01*
X470380Y303515D01*
X470387Y303540D01*
X470407Y303784D01*
X470407Y304293D01*
X470916Y304293D01*
X470942Y304296D01*
X470968Y304294D01*
X471115Y304316D01*
X471262Y304333D01*
X471287Y304342D01*
X471313Y304346D01*
X471451Y304400D01*
X471590Y304450D01*
X471612Y304465D01*
X471637Y304474D01*
X471758Y304559D01*
X471883Y304639D01*
X471901Y304658D01*
X471923Y304673D01*
X472022Y304783D01*
X472125Y304890D01*
X472139Y304913D01*
X472156Y304932D01*
X472228Y305062D01*
X472304Y305189D01*
X472312Y305214D01*
X472325Y305237D01*
X472365Y305380D01*
X472410Y305521D01*
X472412Y305547D01*
X472420Y305572D01*
X472439Y305816D01*
X472439Y316485D01*
X476472Y316485D01*
X476572Y316496D01*
X476672Y316498D01*
X476745Y316516D01*
X476819Y316525D01*
X476913Y316558D01*
X477010Y316583D01*
X477077Y316617D01*
X477147Y316642D01*
X477231Y316697D01*
X477320Y316743D01*
X477377Y316791D01*
X477439Y316831D01*
X477509Y316903D01*
X477586Y316968D01*
X477630Y317028D01*
X477682Y317082D01*
X477733Y317168D01*
X477793Y317249D01*
X477822Y317317D01*
X477860Y317381D01*
X477891Y317477D01*
X477931Y317569D01*
X477944Y317642D01*
X477967Y317713D01*
X477975Y317813D01*
X477993Y317912D01*
X477989Y317986D01*
X477995Y318060D01*
X477980Y318160D01*
X477975Y318260D01*
X477954Y318331D01*
X477943Y318405D01*
X477906Y318498D01*
X477878Y318595D01*
X477842Y318660D01*
X477814Y318729D01*
X477757Y318811D01*
X477708Y318899D01*
X477643Y318975D01*
X477615Y319015D01*
X477589Y319039D01*
X477549Y319085D01*
X427511Y369123D01*
X427412Y369202D01*
X427318Y369286D01*
X427276Y369310D01*
X427238Y369340D01*
X427124Y369394D01*
X427013Y369455D01*
X426967Y369468D01*
X426923Y369489D01*
X426800Y369515D01*
X426678Y369550D01*
X426617Y369555D01*
X426583Y369562D01*
X426535Y369561D01*
X426434Y369569D01*
X426148Y369569D01*
X426122Y369566D01*
X426096Y369568D01*
X425949Y369546D01*
X425802Y369529D01*
X425777Y369521D01*
X425751Y369517D01*
X425613Y369462D01*
X425474Y369412D01*
X425452Y369398D01*
X425427Y369388D01*
X425306Y369303D01*
X425181Y369223D01*
X425163Y369204D01*
X425141Y369189D01*
X425042Y369079D01*
X424939Y368972D01*
X424925Y368950D01*
X424908Y368930D01*
X424836Y368800D01*
X424760Y368673D01*
X424752Y368648D01*
X424739Y368625D01*
X424699Y368482D01*
X424654Y368341D01*
X424652Y368315D01*
X424644Y368290D01*
X424625Y368046D01*
X424625Y364675D01*
X421850Y357976D01*
X416724Y352850D01*
X410025Y350075D01*
X402775Y350075D01*
X396076Y352850D01*
X390950Y357976D01*
X388175Y364675D01*
X388175Y371925D01*
X390950Y378624D01*
X396076Y383750D01*
X402775Y386525D01*
X407828Y386525D01*
X407954Y386539D01*
X408080Y386546D01*
X408126Y386559D01*
X408174Y386565D01*
X408293Y386607D01*
X408415Y386642D01*
X408457Y386666D01*
X408503Y386682D01*
X408609Y386751D01*
X408719Y386812D01*
X408765Y386852D01*
X408795Y386871D01*
X408829Y386906D01*
X408905Y386971D01*
X412625Y390690D01*
X416826Y392431D01*
X418846Y392431D01*
X418872Y392434D01*
X418898Y392432D01*
X419045Y392454D01*
X419192Y392471D01*
X419217Y392479D01*
X419243Y392483D01*
X419381Y392538D01*
X419520Y392588D01*
X419542Y392602D01*
X419567Y392612D01*
X419688Y392697D01*
X419813Y392777D01*
X419831Y392796D01*
X419853Y392811D01*
X419952Y392921D01*
X420055Y393028D01*
X420069Y393050D01*
X420086Y393070D01*
X420158Y393200D01*
X420234Y393327D01*
X420242Y393352D01*
X420255Y393375D01*
X420295Y393518D01*
X420340Y393659D01*
X420342Y393685D01*
X420350Y393710D01*
X420369Y393954D01*
X420369Y403618D01*
X420358Y403718D01*
X420356Y403818D01*
X420338Y403891D01*
X420329Y403964D01*
X420296Y404059D01*
X420271Y404156D01*
X420237Y404222D01*
X420212Y404292D01*
X420157Y404377D01*
X420111Y404466D01*
X420063Y404523D01*
X420023Y404585D01*
X419951Y404655D01*
X419886Y404732D01*
X419826Y404776D01*
X419772Y404827D01*
X419686Y404879D01*
X419605Y404939D01*
X419537Y404968D01*
X419473Y405006D01*
X419377Y405037D01*
X419285Y405077D01*
X419212Y405090D01*
X419141Y405113D01*
X419041Y405121D01*
X418942Y405138D01*
X418868Y405135D01*
X418794Y405141D01*
X418694Y405126D01*
X418594Y405120D01*
X418523Y405100D01*
X418449Y405089D01*
X418356Y405052D01*
X418259Y405024D01*
X418194Y404988D01*
X418125Y404960D01*
X418043Y404903D01*
X417955Y404854D01*
X417879Y404789D01*
X417839Y404761D01*
X417815Y404735D01*
X417769Y404695D01*
X416723Y403650D01*
X410025Y400875D01*
X402775Y400875D01*
X396076Y403650D01*
X390950Y408776D01*
X388175Y415475D01*
X388175Y420528D01*
X388161Y420654D01*
X388154Y420780D01*
X388141Y420826D01*
X388135Y420874D01*
X388093Y420993D01*
X388058Y421115D01*
X388034Y421157D01*
X388018Y421203D01*
X387949Y421309D01*
X387888Y421419D01*
X387848Y421465D01*
X387829Y421495D01*
X387794Y421529D01*
X387729Y421605D01*
X333210Y476125D01*
X331469Y480326D01*
X331469Y556436D01*
X331455Y556561D01*
X331448Y556687D01*
X331435Y556734D01*
X331429Y556782D01*
X331387Y556901D01*
X331352Y557022D01*
X331328Y557064D01*
X331312Y557110D01*
X331243Y557216D01*
X331182Y557326D01*
X331142Y557373D01*
X331123Y557403D01*
X331088Y557436D01*
X331023Y557513D01*
X324611Y563925D01*
X324611Y579075D01*
X328659Y583123D01*
X328675Y583143D01*
X328695Y583160D01*
X328783Y583280D01*
X328875Y583396D01*
X328887Y583420D01*
X328902Y583441D01*
X328961Y583577D01*
X329024Y583711D01*
X329030Y583737D01*
X329040Y583761D01*
X329066Y583907D01*
X329098Y584052D01*
X329097Y584078D01*
X329102Y584104D01*
X329094Y584252D01*
X329092Y584400D01*
X329085Y584426D01*
X329084Y584452D01*
X329043Y584594D01*
X329007Y584738D01*
X328995Y584761D01*
X328987Y584787D01*
X328915Y584916D01*
X328847Y585048D01*
X328830Y585068D01*
X328817Y585091D01*
X328659Y585277D01*
X324611Y589325D01*
X324611Y604475D01*
X335325Y615189D01*
X350475Y615189D01*
X356887Y608777D01*
X356986Y608698D01*
X357080Y608614D01*
X357122Y608590D01*
X357160Y608560D01*
X357274Y608506D01*
X357385Y608445D01*
X357432Y608432D01*
X357475Y608411D01*
X357599Y608385D01*
X357721Y608350D01*
X357781Y608345D01*
X357816Y608338D01*
X357864Y608339D01*
X357964Y608331D01*
X434074Y608331D01*
X438275Y606590D01*
X438935Y605931D01*
X439053Y605837D01*
X439167Y605740D01*
X439189Y605729D01*
X439208Y605714D01*
X439344Y605650D01*
X439477Y605581D01*
X439501Y605576D01*
X439523Y605565D01*
X439670Y605534D01*
X439816Y605497D01*
X439840Y605497D01*
X439863Y605492D01*
X440013Y605494D01*
X440164Y605492D01*
X440188Y605497D01*
X440212Y605498D01*
X440357Y605534D01*
X440505Y605567D01*
X440526Y605577D01*
X440550Y605583D01*
X440684Y605652D01*
X440819Y605716D01*
X440838Y605731D01*
X440860Y605742D01*
X440975Y605840D01*
X441092Y605934D01*
X441107Y605953D01*
X441125Y605968D01*
X441215Y606089D01*
X441308Y606207D01*
X441321Y606233D01*
X441332Y606249D01*
X441351Y606292D01*
X441419Y606425D01*
X441750Y607224D01*
X446876Y612350D01*
X453575Y615125D01*
X460825Y615125D01*
X467524Y612350D01*
X472650Y607224D01*
X475425Y600525D01*
X475425Y593275D01*
X472650Y586576D01*
X467524Y581450D01*
X460825Y578675D01*
X453575Y578675D01*
X446877Y581450D01*
X445831Y582495D01*
X445752Y582558D01*
X445680Y582627D01*
X445616Y582666D01*
X445558Y582712D01*
X445467Y582755D01*
X445381Y582806D01*
X445310Y582829D01*
X445243Y582861D01*
X445145Y582882D01*
X445049Y582913D01*
X444975Y582919D01*
X444902Y582934D01*
X444802Y582932D01*
X444702Y582941D01*
X444628Y582929D01*
X444554Y582928D01*
X444457Y582904D01*
X444357Y582889D01*
X444288Y582861D01*
X444216Y582843D01*
X444127Y582797D01*
X444033Y582760D01*
X443972Y582718D01*
X443906Y582684D01*
X443830Y582618D01*
X443747Y582561D01*
X443697Y582506D01*
X443641Y582458D01*
X443581Y582377D01*
X443514Y582302D01*
X443478Y582237D01*
X443433Y582177D01*
X443394Y582085D01*
X443345Y581997D01*
X443325Y581926D01*
X443295Y581857D01*
X443278Y581759D01*
X443250Y581662D01*
X443242Y581562D01*
X443234Y581514D01*
X443236Y581479D01*
X443231Y581418D01*
X443231Y510782D01*
X443242Y510682D01*
X443244Y510582D01*
X443262Y510509D01*
X443271Y510436D01*
X443304Y510341D01*
X443329Y510244D01*
X443363Y510178D01*
X443388Y510108D01*
X443443Y510023D01*
X443489Y509934D01*
X443537Y509877D01*
X443577Y509815D01*
X443649Y509745D01*
X443714Y509668D01*
X443774Y509624D01*
X443828Y509573D01*
X443914Y509521D01*
X443995Y509461D01*
X444063Y509432D01*
X444127Y509394D01*
X444223Y509363D01*
X444315Y509323D01*
X444388Y509310D01*
X444459Y509287D01*
X444559Y509279D01*
X444658Y509262D01*
X444732Y509265D01*
X444806Y509259D01*
X444906Y509274D01*
X445006Y509280D01*
X445077Y509300D01*
X445151Y509311D01*
X445244Y509348D01*
X445341Y509376D01*
X445406Y509412D01*
X445475Y509440D01*
X445557Y509497D01*
X445645Y509546D01*
X445721Y509611D01*
X445761Y509639D01*
X445785Y509665D01*
X445831Y509705D01*
X446877Y510750D01*
X453575Y513525D01*
X460825Y513525D01*
X467524Y510750D01*
X472650Y505624D01*
X475425Y498925D01*
X475425Y491675D01*
X472650Y484976D01*
X467524Y479850D01*
X460825Y477075D01*
X453575Y477075D01*
X446877Y479850D01*
X445831Y480895D01*
X445752Y480958D01*
X445680Y481027D01*
X445616Y481066D01*
X445558Y481112D01*
X445467Y481155D01*
X445381Y481206D01*
X445310Y481229D01*
X445243Y481261D01*
X445145Y481282D01*
X445049Y481313D01*
X444975Y481319D01*
X444902Y481334D01*
X444802Y481332D01*
X444702Y481341D01*
X444628Y481329D01*
X444554Y481328D01*
X444457Y481304D01*
X444357Y481289D01*
X444288Y481261D01*
X444216Y481243D01*
X444127Y481197D01*
X444033Y481160D01*
X443972Y481118D01*
X443906Y481084D01*
X443830Y481018D01*
X443747Y480961D01*
X443697Y480906D01*
X443641Y480858D01*
X443581Y480777D01*
X443514Y480702D01*
X443478Y480637D01*
X443433Y480577D01*
X443394Y480485D01*
X443345Y480397D01*
X443325Y480326D01*
X443295Y480257D01*
X443278Y480159D01*
X443250Y480062D01*
X443242Y479962D01*
X443234Y479914D01*
X443236Y479879D01*
X443231Y479818D01*
X443231Y409182D01*
X443242Y409082D01*
X443244Y408982D01*
X443262Y408909D01*
X443271Y408836D01*
X443304Y408741D01*
X443329Y408644D01*
X443363Y408578D01*
X443388Y408508D01*
X443443Y408423D01*
X443489Y408334D01*
X443537Y408277D01*
X443577Y408215D01*
X443649Y408145D01*
X443714Y408068D01*
X443774Y408024D01*
X443828Y407973D01*
X443914Y407921D01*
X443995Y407861D01*
X444063Y407832D01*
X444127Y407794D01*
X444223Y407763D01*
X444315Y407723D01*
X444388Y407710D01*
X444459Y407687D01*
X444559Y407679D01*
X444658Y407662D01*
X444732Y407665D01*
X444806Y407659D01*
X444906Y407674D01*
X445006Y407680D01*
X445077Y407700D01*
X445151Y407711D01*
X445244Y407748D01*
X445341Y407776D01*
X445406Y407812D01*
X445475Y407840D01*
X445557Y407897D01*
X445645Y407946D01*
X445721Y408011D01*
X445761Y408039D01*
X445785Y408065D01*
X445831Y408105D01*
X446877Y409150D01*
X453575Y411925D01*
X460825Y411925D01*
X467524Y409150D01*
X472650Y404024D01*
X475425Y397325D01*
X475425Y390075D01*
X472650Y383376D01*
X467524Y378250D01*
X460825Y375475D01*
X457168Y375475D01*
X457068Y375464D01*
X456968Y375462D01*
X456895Y375444D01*
X456821Y375435D01*
X456727Y375402D01*
X456630Y375377D01*
X456563Y375343D01*
X456493Y375318D01*
X456409Y375263D01*
X456320Y375217D01*
X456263Y375169D01*
X456201Y375129D01*
X456131Y375057D01*
X456054Y374992D01*
X456010Y374932D01*
X455958Y374878D01*
X455907Y374792D01*
X455847Y374711D01*
X455818Y374643D01*
X455780Y374579D01*
X455749Y374483D01*
X455709Y374391D01*
X455696Y374318D01*
X455673Y374247D01*
X455665Y374147D01*
X455647Y374048D01*
X455651Y373974D01*
X455645Y373900D01*
X455660Y373800D01*
X455665Y373700D01*
X455686Y373629D01*
X455697Y373555D01*
X455734Y373462D01*
X455762Y373365D01*
X455798Y373300D01*
X455826Y373231D01*
X455883Y373149D01*
X455932Y373061D01*
X455997Y372985D01*
X456025Y372945D01*
X456051Y372921D01*
X456091Y372875D01*
X501561Y327405D01*
X504990Y323975D01*
X506731Y319774D01*
X506731Y251726D01*
X504990Y247525D01*
X501775Y244310D01*
X497574Y242569D01*
X496053Y242569D01*
X495953Y242558D01*
X495853Y242556D01*
X495781Y242538D01*
X495707Y242529D01*
X495612Y242496D01*
X495515Y242471D01*
X495449Y242437D01*
X495379Y242412D01*
X495294Y242357D01*
X495205Y242311D01*
X495149Y242263D01*
X495086Y242223D01*
X495016Y242151D01*
X494940Y242086D01*
X494896Y242026D01*
X494844Y241972D01*
X494792Y241886D01*
X494733Y241805D01*
X494703Y241737D01*
X494665Y241673D01*
X494634Y241578D01*
X494595Y241485D01*
X494581Y241412D01*
X494559Y241341D01*
X494551Y241241D01*
X494533Y241142D01*
X494537Y241068D01*
X494531Y240994D01*
X494546Y240895D01*
X494551Y240794D01*
X494571Y240723D01*
X494583Y240649D01*
X494620Y240556D01*
X494647Y240459D01*
X494684Y240394D01*
X494711Y240325D01*
X494769Y240243D01*
X494818Y240155D01*
X494883Y240079D01*
X494910Y240039D01*
X494937Y240015D01*
X494976Y239969D01*
X495410Y239535D01*
X498349Y232440D01*
X498349Y224760D01*
X495410Y217665D01*
X494722Y216977D01*
X494706Y216957D01*
X494686Y216940D01*
X494598Y216820D01*
X494505Y216704D01*
X494494Y216680D01*
X494479Y216659D01*
X494420Y216523D01*
X494357Y216389D01*
X494351Y216363D01*
X494341Y216339D01*
X494314Y216193D01*
X494283Y216048D01*
X494284Y216022D01*
X494279Y215996D01*
X494287Y215848D01*
X494289Y215700D01*
X494296Y215674D01*
X494297Y215648D01*
X494338Y215506D01*
X494374Y215362D01*
X494386Y215338D01*
X494393Y215313D01*
X494466Y215184D01*
X494534Y215052D01*
X494551Y215032D01*
X494564Y215009D01*
X494722Y214823D01*
X495410Y214135D01*
X498349Y207040D01*
X498349Y199360D01*
X495410Y192265D01*
X494722Y191577D01*
X494706Y191557D01*
X494686Y191540D01*
X494598Y191421D01*
X494505Y191304D01*
X494494Y191280D01*
X494479Y191259D01*
X494420Y191123D01*
X494357Y190989D01*
X494351Y190963D01*
X494341Y190939D01*
X494314Y190793D01*
X494283Y190648D01*
X494284Y190622D01*
X494279Y190596D01*
X494287Y190448D01*
X494289Y190300D01*
X494296Y190274D01*
X494297Y190248D01*
X494338Y190106D01*
X494374Y189962D01*
X494386Y189939D01*
X494393Y189913D01*
X494466Y189784D01*
X494534Y189652D01*
X494551Y189632D01*
X494564Y189609D01*
X494722Y189423D01*
X495410Y188735D01*
X498349Y181640D01*
X498349Y173960D01*
X495410Y166865D01*
X494722Y166177D01*
X494706Y166157D01*
X494686Y166140D01*
X494598Y166020D01*
X494505Y165904D01*
X494494Y165880D01*
X494479Y165859D01*
X494420Y165723D01*
X494357Y165589D01*
X494351Y165563D01*
X494341Y165539D01*
X494314Y165393D01*
X494283Y165248D01*
X494284Y165222D01*
X494279Y165196D01*
X494287Y165048D01*
X494289Y164900D01*
X494296Y164874D01*
X494297Y164848D01*
X494338Y164706D01*
X494374Y164562D01*
X494386Y164538D01*
X494393Y164513D01*
X494466Y164384D01*
X494534Y164252D01*
X494551Y164232D01*
X494564Y164209D01*
X494722Y164023D01*
X495410Y163335D01*
X498349Y156240D01*
X498349Y148560D01*
X495410Y141465D01*
X494722Y140777D01*
X494706Y140757D01*
X494686Y140740D01*
X494598Y140620D01*
X494505Y140504D01*
X494494Y140480D01*
X494479Y140459D01*
X494420Y140323D01*
X494357Y140189D01*
X494351Y140163D01*
X494341Y140139D01*
X494314Y139993D01*
X494283Y139848D01*
X494284Y139822D01*
X494279Y139796D01*
X494287Y139648D01*
X494289Y139500D01*
X494296Y139474D01*
X494297Y139448D01*
X494338Y139306D01*
X494374Y139162D01*
X494386Y139138D01*
X494393Y139113D01*
X494466Y138984D01*
X494534Y138852D01*
X494551Y138832D01*
X494564Y138809D01*
X494722Y138623D01*
X495410Y137935D01*
X498349Y130840D01*
X498349Y123160D01*
X495410Y116065D01*
X494722Y115377D01*
X494706Y115357D01*
X494686Y115340D01*
X494598Y115220D01*
X494505Y115104D01*
X494494Y115080D01*
X494479Y115059D01*
X494420Y114923D01*
X494357Y114789D01*
X494351Y114763D01*
X494341Y114739D01*
X494314Y114593D01*
X494283Y114448D01*
X494284Y114422D01*
X494279Y114396D01*
X494287Y114248D01*
X494289Y114100D01*
X494296Y114074D01*
X494297Y114048D01*
X494338Y113906D01*
X494374Y113762D01*
X494386Y113738D01*
X494393Y113713D01*
X494466Y113584D01*
X494534Y113452D01*
X494551Y113432D01*
X494564Y113409D01*
X494722Y113223D01*
X495410Y112535D01*
X498349Y105440D01*
X498349Y97760D01*
X495410Y90665D01*
X494722Y89977D01*
X494706Y89957D01*
X494686Y89940D01*
X494598Y89820D01*
X494505Y89704D01*
X494494Y89680D01*
X494479Y89659D01*
X494420Y89523D01*
X494357Y89389D01*
X494351Y89363D01*
X494341Y89339D01*
X494314Y89193D01*
X494283Y89048D01*
X494284Y89022D01*
X494279Y88996D01*
X494287Y88848D01*
X494289Y88700D01*
X494296Y88674D01*
X494297Y88648D01*
X494338Y88506D01*
X494374Y88362D01*
X494386Y88338D01*
X494393Y88313D01*
X494466Y88184D01*
X494534Y88052D01*
X494551Y88032D01*
X494564Y88009D01*
X494722Y87823D01*
X495410Y87135D01*
X498349Y80040D01*
X498349Y72360D01*
X495410Y65265D01*
X494722Y64577D01*
X494706Y64557D01*
X494686Y64540D01*
X494598Y64420D01*
X494505Y64304D01*
X494494Y64280D01*
X494479Y64259D01*
X494420Y64123D01*
X494357Y63989D01*
X494351Y63963D01*
X494341Y63939D01*
X494314Y63793D01*
X494283Y63648D01*
X494284Y63622D01*
X494279Y63596D01*
X494287Y63448D01*
X494289Y63300D01*
X494296Y63274D01*
X494297Y63248D01*
X494338Y63106D01*
X494374Y62962D01*
X494386Y62938D01*
X494393Y62913D01*
X494466Y62784D01*
X494534Y62652D01*
X494551Y62632D01*
X494564Y62609D01*
X494671Y62482D01*
X494682Y62468D01*
X494692Y62459D01*
X494722Y62423D01*
X495410Y61735D01*
X498349Y54640D01*
X498349Y46960D01*
X495410Y39865D01*
X494722Y39177D01*
X494706Y39157D01*
X494686Y39140D01*
X494598Y39020D01*
X494505Y38904D01*
X494494Y38880D01*
X494479Y38859D01*
X494420Y38723D01*
X494357Y38589D01*
X494351Y38563D01*
X494341Y38539D01*
X494314Y38393D01*
X494283Y38248D01*
X494284Y38222D01*
X494279Y38196D01*
X494287Y38048D01*
X494289Y37900D01*
X494296Y37874D01*
X494297Y37848D01*
X494338Y37706D01*
X494374Y37562D01*
X494386Y37538D01*
X494393Y37513D01*
X494466Y37384D01*
X494534Y37252D01*
X494551Y37232D01*
X494564Y37209D01*
X494722Y37023D01*
X495410Y36335D01*
X498349Y29240D01*
X498349Y21560D01*
X495410Y14465D01*
X493706Y12761D01*
X493644Y12683D01*
X493574Y12610D01*
X493536Y12546D01*
X493489Y12488D01*
X493447Y12397D01*
X493395Y12311D01*
X493372Y12240D01*
X493341Y12173D01*
X493319Y12075D01*
X493289Y11979D01*
X493283Y11905D01*
X493267Y11832D01*
X493269Y11732D01*
X493261Y11632D01*
X493272Y11558D01*
X493273Y11484D01*
X493298Y11387D01*
X493313Y11287D01*
X493340Y11218D01*
X493358Y11146D01*
X493404Y11057D01*
X493441Y10963D01*
X493484Y10902D01*
X493518Y10836D01*
X493583Y10760D01*
X493640Y10677D01*
X493695Y10627D01*
X493744Y10571D01*
X493824Y10511D01*
X493899Y10444D01*
X493964Y10408D01*
X494024Y10363D01*
X494116Y10324D01*
X494204Y10275D01*
X494276Y10255D01*
X494344Y10225D01*
X494443Y10208D01*
X494539Y10180D01*
X494639Y10172D01*
X494687Y10164D01*
X494723Y10166D01*
X494783Y10161D01*
X508816Y10161D01*
X508842Y10164D01*
G37*
%LPC*%
G36*
X60559Y56387D02*
X60559Y56387D01*
X53277Y59404D01*
X47704Y64977D01*
X44687Y72259D01*
X44687Y80141D01*
X47704Y87423D01*
X48103Y87823D01*
X48120Y87843D01*
X48140Y87860D01*
X48228Y87980D01*
X48320Y88096D01*
X48331Y88120D01*
X48347Y88141D01*
X48406Y88277D01*
X48469Y88411D01*
X48475Y88437D01*
X48485Y88461D01*
X48511Y88607D01*
X48542Y88752D01*
X48542Y88778D01*
X48547Y88804D01*
X48539Y88952D01*
X48536Y89100D01*
X48530Y89126D01*
X48529Y89152D01*
X48488Y89294D01*
X48451Y89438D01*
X48439Y89461D01*
X48432Y89487D01*
X48360Y89616D01*
X48292Y89748D01*
X48275Y89768D01*
X48262Y89791D01*
X48103Y89977D01*
X47704Y90377D01*
X44687Y97659D01*
X44687Y105541D01*
X47704Y112823D01*
X48103Y113223D01*
X48120Y113243D01*
X48140Y113260D01*
X48228Y113380D01*
X48320Y113496D01*
X48331Y113520D01*
X48347Y113541D01*
X48406Y113677D01*
X48469Y113811D01*
X48475Y113837D01*
X48485Y113861D01*
X48511Y114007D01*
X48542Y114152D01*
X48542Y114178D01*
X48547Y114204D01*
X48539Y114352D01*
X48536Y114500D01*
X48530Y114526D01*
X48529Y114552D01*
X48488Y114694D01*
X48451Y114838D01*
X48439Y114862D01*
X48432Y114887D01*
X48360Y115016D01*
X48292Y115148D01*
X48275Y115168D01*
X48262Y115191D01*
X48103Y115377D01*
X47704Y115777D01*
X44687Y123059D01*
X44687Y130941D01*
X47704Y138223D01*
X53277Y143796D01*
X53342Y143823D01*
X53417Y143865D01*
X53497Y143898D01*
X53569Y143950D01*
X53647Y143993D01*
X53710Y144051D01*
X53780Y144101D01*
X53839Y144167D01*
X53905Y144227D01*
X53954Y144298D01*
X54011Y144362D01*
X54053Y144441D01*
X54103Y144513D01*
X54135Y144594D01*
X54175Y144669D01*
X54198Y144755D01*
X54231Y144838D01*
X54243Y144923D01*
X54266Y145006D01*
X54269Y145095D01*
X54282Y145182D01*
X54275Y145268D01*
X54277Y145354D01*
X54260Y145441D01*
X54253Y145530D01*
X54226Y145612D01*
X54210Y145696D01*
X54161Y145814D01*
X54146Y145861D01*
X54132Y145884D01*
X54116Y145922D01*
X53201Y147720D01*
X52607Y149545D01*
X52551Y149901D01*
X63524Y149901D01*
X63550Y149904D01*
X63576Y149902D01*
X63723Y149924D01*
X63870Y149941D01*
X63895Y149949D01*
X63921Y149953D01*
X64058Y150008D01*
X64198Y150058D01*
X64220Y150072D01*
X64245Y150082D01*
X64366Y150167D01*
X64491Y150247D01*
X64503Y150260D01*
X64550Y150215D01*
X64573Y150201D01*
X64592Y150184D01*
X64722Y150112D01*
X64849Y150036D01*
X64874Y150028D01*
X64897Y150015D01*
X65040Y149975D01*
X65181Y149930D01*
X65207Y149927D01*
X65232Y149920D01*
X65476Y149901D01*
X76449Y149901D01*
X76393Y149545D01*
X75799Y147720D01*
X74884Y145922D01*
X74854Y145842D01*
X74814Y145765D01*
X74793Y145679D01*
X74762Y145596D01*
X74751Y145510D01*
X74730Y145427D01*
X74729Y145338D01*
X74718Y145250D01*
X74726Y145164D01*
X74725Y145078D01*
X74744Y144992D01*
X74753Y144903D01*
X74781Y144822D01*
X74800Y144738D01*
X74838Y144658D01*
X74867Y144574D01*
X74912Y144501D01*
X74949Y144423D01*
X75005Y144354D01*
X75052Y144279D01*
X75113Y144218D01*
X75167Y144151D01*
X75236Y144096D01*
X75299Y144033D01*
X75373Y143988D01*
X75440Y143935D01*
X75554Y143877D01*
X75596Y143851D01*
X75621Y143842D01*
X75658Y143823D01*
X75723Y143796D01*
X81296Y138223D01*
X81496Y137740D01*
X81569Y137609D01*
X81638Y137475D01*
X81654Y137457D01*
X81666Y137436D01*
X81767Y137324D01*
X81864Y137210D01*
X81883Y137196D01*
X81900Y137178D01*
X82023Y137092D01*
X82144Y137003D01*
X82167Y136993D01*
X82186Y136979D01*
X82326Y136924D01*
X82464Y136865D01*
X82488Y136860D01*
X82511Y136852D01*
X82659Y136830D01*
X82807Y136803D01*
X82832Y136804D01*
X82855Y136801D01*
X83006Y136813D01*
X83155Y136821D01*
X83179Y136828D01*
X83203Y136830D01*
X83346Y136876D01*
X83490Y136918D01*
X83511Y136929D01*
X83534Y136937D01*
X83663Y137014D01*
X83794Y137088D01*
X83817Y137107D01*
X83833Y137116D01*
X83867Y137149D01*
X83981Y137246D01*
X165923Y219189D01*
X166002Y219288D01*
X166086Y219382D01*
X166110Y219424D01*
X166140Y219462D01*
X166194Y219576D01*
X166255Y219687D01*
X166268Y219733D01*
X166289Y219777D01*
X166315Y219900D01*
X166350Y220022D01*
X166355Y220083D01*
X166362Y220117D01*
X166361Y220165D01*
X166369Y220266D01*
X166369Y244272D01*
X166358Y244372D01*
X166356Y244473D01*
X166338Y244545D01*
X166329Y244619D01*
X166296Y244713D01*
X166271Y244811D01*
X166237Y244877D01*
X166212Y244947D01*
X166157Y245031D01*
X166111Y245120D01*
X166063Y245177D01*
X166023Y245240D01*
X165951Y245309D01*
X165886Y245386D01*
X165826Y245430D01*
X165772Y245482D01*
X165686Y245533D01*
X165605Y245593D01*
X165537Y245622D01*
X165473Y245661D01*
X165378Y245691D01*
X165285Y245731D01*
X165212Y245744D01*
X165141Y245767D01*
X165041Y245775D01*
X164942Y245793D01*
X164868Y245789D01*
X164794Y245795D01*
X164695Y245780D01*
X164594Y245775D01*
X164523Y245754D01*
X164449Y245743D01*
X164356Y245706D01*
X164259Y245678D01*
X164194Y245642D01*
X164125Y245614D01*
X164043Y245557D01*
X163955Y245508D01*
X163879Y245443D01*
X163839Y245415D01*
X163815Y245389D01*
X163769Y245349D01*
X163623Y245204D01*
X156341Y242187D01*
X148459Y242187D01*
X141177Y245204D01*
X140777Y245603D01*
X140757Y245620D01*
X140740Y245640D01*
X140620Y245728D01*
X140504Y245820D01*
X140480Y245831D01*
X140459Y245847D01*
X140323Y245906D01*
X140189Y245969D01*
X140163Y245975D01*
X140139Y245985D01*
X139993Y246011D01*
X139848Y246042D01*
X139822Y246042D01*
X139796Y246047D01*
X139648Y246039D01*
X139500Y246036D01*
X139474Y246030D01*
X139448Y246029D01*
X139306Y245988D01*
X139162Y245951D01*
X139139Y245939D01*
X139113Y245932D01*
X138984Y245860D01*
X138852Y245792D01*
X138832Y245775D01*
X138809Y245762D01*
X138623Y245603D01*
X138223Y245204D01*
X130941Y242187D01*
X123059Y242187D01*
X115777Y245204D01*
X110204Y250777D01*
X110177Y250842D01*
X110135Y250917D01*
X110102Y250997D01*
X110050Y251069D01*
X110007Y251147D01*
X109949Y251210D01*
X109899Y251280D01*
X109833Y251339D01*
X109773Y251405D01*
X109702Y251454D01*
X109638Y251511D01*
X109559Y251553D01*
X109487Y251603D01*
X109406Y251635D01*
X109331Y251675D01*
X109245Y251698D01*
X109162Y251731D01*
X109077Y251743D01*
X108994Y251766D01*
X108905Y251769D01*
X108818Y251782D01*
X108732Y251775D01*
X108646Y251777D01*
X108559Y251760D01*
X108470Y251753D01*
X108388Y251726D01*
X108304Y251710D01*
X108186Y251661D01*
X108139Y251646D01*
X108116Y251632D01*
X108078Y251616D01*
X106280Y250701D01*
X104455Y250107D01*
X104099Y250051D01*
X104099Y261024D01*
X104096Y261050D01*
X104098Y261076D01*
X104076Y261223D01*
X104059Y261370D01*
X104051Y261395D01*
X104047Y261421D01*
X103992Y261558D01*
X103942Y261698D01*
X103928Y261720D01*
X103918Y261745D01*
X103833Y261866D01*
X103753Y261991D01*
X103740Y262003D01*
X103785Y262050D01*
X103799Y262073D01*
X103816Y262092D01*
X103888Y262222D01*
X103964Y262349D01*
X103972Y262374D01*
X103985Y262397D01*
X104025Y262540D01*
X104070Y262681D01*
X104072Y262707D01*
X104080Y262732D01*
X104099Y262976D01*
X104099Y273949D01*
X104455Y273893D01*
X106280Y273299D01*
X108078Y272384D01*
X108158Y272354D01*
X108235Y272314D01*
X108321Y272293D01*
X108404Y272262D01*
X108490Y272251D01*
X108573Y272230D01*
X108662Y272229D01*
X108750Y272218D01*
X108836Y272226D01*
X108922Y272225D01*
X109008Y272244D01*
X109097Y272253D01*
X109178Y272281D01*
X109262Y272300D01*
X109342Y272338D01*
X109426Y272367D01*
X109499Y272412D01*
X109577Y272449D01*
X109646Y272505D01*
X109721Y272552D01*
X109782Y272613D01*
X109849Y272667D01*
X109904Y272736D01*
X109967Y272799D01*
X110012Y272873D01*
X110065Y272940D01*
X110123Y273054D01*
X110149Y273096D01*
X110158Y273121D01*
X110177Y273158D01*
X110204Y273223D01*
X115777Y278796D01*
X123059Y281813D01*
X130941Y281813D01*
X138223Y278796D01*
X138623Y278397D01*
X138643Y278380D01*
X138660Y278360D01*
X138780Y278272D01*
X138896Y278180D01*
X138920Y278169D01*
X138941Y278153D01*
X139077Y278094D01*
X139211Y278031D01*
X139237Y278025D01*
X139261Y278015D01*
X139407Y277989D01*
X139552Y277958D01*
X139578Y277958D01*
X139604Y277953D01*
X139752Y277961D01*
X139900Y277964D01*
X139926Y277970D01*
X139952Y277971D01*
X140094Y278012D01*
X140238Y278049D01*
X140262Y278061D01*
X140287Y278068D01*
X140416Y278140D01*
X140548Y278208D01*
X140568Y278225D01*
X140591Y278238D01*
X140777Y278397D01*
X141177Y278796D01*
X148459Y281813D01*
X156341Y281813D01*
X163623Y278796D01*
X164023Y278397D01*
X164043Y278380D01*
X164060Y278360D01*
X164180Y278272D01*
X164296Y278180D01*
X164320Y278169D01*
X164341Y278153D01*
X164477Y278094D01*
X164611Y278031D01*
X164637Y278025D01*
X164661Y278015D01*
X164807Y277989D01*
X164952Y277958D01*
X164978Y277958D01*
X165004Y277953D01*
X165152Y277961D01*
X165300Y277964D01*
X165326Y277970D01*
X165352Y277971D01*
X165494Y278012D01*
X165638Y278049D01*
X165662Y278061D01*
X165687Y278068D01*
X165816Y278140D01*
X165948Y278208D01*
X165968Y278225D01*
X165991Y278238D01*
X166177Y278397D01*
X166577Y278796D01*
X173859Y281813D01*
X181741Y281813D01*
X189023Y278796D01*
X194596Y273223D01*
X197613Y265941D01*
X197613Y258059D01*
X194596Y250777D01*
X189677Y245857D01*
X189598Y245758D01*
X189514Y245665D01*
X189490Y245622D01*
X189460Y245584D01*
X189406Y245470D01*
X189345Y245360D01*
X189332Y245313D01*
X189311Y245269D01*
X189285Y245146D01*
X189250Y245024D01*
X189245Y244963D01*
X189238Y244929D01*
X189239Y244881D01*
X189231Y244780D01*
X189231Y212626D01*
X187490Y208425D01*
X84759Y105693D01*
X84680Y105594D01*
X84596Y105501D01*
X84572Y105458D01*
X84542Y105420D01*
X84488Y105306D01*
X84427Y105195D01*
X84414Y105149D01*
X84393Y105105D01*
X84367Y104982D01*
X84353Y104932D01*
X84342Y104897D01*
X84341Y104891D01*
X84332Y104860D01*
X84327Y104799D01*
X84320Y104765D01*
X84321Y104717D01*
X84313Y104616D01*
X84313Y97659D01*
X81296Y90377D01*
X80897Y89977D01*
X80880Y89957D01*
X80860Y89940D01*
X80772Y89820D01*
X80680Y89704D01*
X80669Y89680D01*
X80653Y89659D01*
X80594Y89523D01*
X80531Y89389D01*
X80525Y89363D01*
X80515Y89339D01*
X80489Y89193D01*
X80458Y89048D01*
X80458Y89022D01*
X80453Y88996D01*
X80461Y88848D01*
X80464Y88700D01*
X80470Y88674D01*
X80471Y88648D01*
X80512Y88506D01*
X80549Y88362D01*
X80561Y88338D01*
X80568Y88313D01*
X80640Y88184D01*
X80708Y88052D01*
X80725Y88032D01*
X80738Y88009D01*
X80897Y87823D01*
X81296Y87423D01*
X84313Y80141D01*
X84313Y72259D01*
X81296Y64977D01*
X75723Y59404D01*
X68441Y56387D01*
X60559Y56387D01*
G37*
%LPD*%
G36*
X418972Y433071D02*
X418972Y433071D01*
X419046Y433072D01*
X419143Y433096D01*
X419243Y433111D01*
X419312Y433139D01*
X419384Y433157D01*
X419473Y433203D01*
X419567Y433240D01*
X419628Y433282D01*
X419694Y433316D01*
X419770Y433382D01*
X419853Y433439D01*
X419903Y433494D01*
X419959Y433542D01*
X420019Y433623D01*
X420086Y433698D01*
X420122Y433763D01*
X420167Y433823D01*
X420206Y433915D01*
X420255Y434003D01*
X420275Y434074D01*
X420305Y434143D01*
X420322Y434241D01*
X420350Y434338D01*
X420358Y434438D01*
X420366Y434486D01*
X420364Y434521D01*
X420369Y434582D01*
X420369Y454418D01*
X420358Y454518D01*
X420356Y454618D01*
X420338Y454691D01*
X420329Y454764D01*
X420296Y454859D01*
X420271Y454956D01*
X420237Y455022D01*
X420212Y455092D01*
X420157Y455177D01*
X420111Y455266D01*
X420063Y455323D01*
X420023Y455385D01*
X419951Y455455D01*
X419886Y455532D01*
X419826Y455576D01*
X419772Y455627D01*
X419686Y455679D01*
X419605Y455739D01*
X419537Y455768D01*
X419473Y455806D01*
X419377Y455837D01*
X419285Y455877D01*
X419212Y455890D01*
X419141Y455913D01*
X419041Y455921D01*
X418942Y455938D01*
X418868Y455935D01*
X418794Y455941D01*
X418694Y455926D01*
X418594Y455920D01*
X418523Y455900D01*
X418449Y455889D01*
X418356Y455852D01*
X418259Y455824D01*
X418194Y455788D01*
X418125Y455760D01*
X418043Y455703D01*
X417955Y455654D01*
X417879Y455589D01*
X417839Y455561D01*
X417815Y455535D01*
X417769Y455495D01*
X416723Y454450D01*
X410025Y451675D01*
X402775Y451675D01*
X396076Y454450D01*
X390950Y459576D01*
X388175Y466275D01*
X388175Y473525D01*
X390950Y480224D01*
X396076Y485350D01*
X402775Y488125D01*
X410025Y488125D01*
X416723Y485350D01*
X417769Y484305D01*
X417848Y484242D01*
X417920Y484173D01*
X417984Y484134D01*
X418042Y484088D01*
X418133Y484045D01*
X418219Y483994D01*
X418290Y483971D01*
X418357Y483939D01*
X418455Y483918D01*
X418551Y483887D01*
X418625Y483881D01*
X418698Y483866D01*
X418798Y483868D01*
X418898Y483859D01*
X418972Y483871D01*
X419046Y483872D01*
X419143Y483896D01*
X419243Y483911D01*
X419312Y483939D01*
X419384Y483957D01*
X419473Y484003D01*
X419567Y484040D01*
X419628Y484082D01*
X419694Y484116D01*
X419770Y484182D01*
X419853Y484239D01*
X419903Y484294D01*
X419959Y484342D01*
X420019Y484423D01*
X420086Y484498D01*
X420122Y484563D01*
X420167Y484623D01*
X420206Y484715D01*
X420255Y484803D01*
X420275Y484874D01*
X420305Y484943D01*
X420322Y485041D01*
X420350Y485138D01*
X420358Y485238D01*
X420366Y485286D01*
X420364Y485321D01*
X420369Y485382D01*
X420369Y556018D01*
X420358Y556118D01*
X420356Y556218D01*
X420338Y556291D01*
X420329Y556364D01*
X420296Y556459D01*
X420271Y556556D01*
X420237Y556622D01*
X420212Y556692D01*
X420157Y556777D01*
X420111Y556866D01*
X420063Y556923D01*
X420023Y556985D01*
X419951Y557055D01*
X419886Y557132D01*
X419826Y557176D01*
X419772Y557227D01*
X419686Y557279D01*
X419605Y557339D01*
X419537Y557368D01*
X419473Y557406D01*
X419377Y557437D01*
X419285Y557477D01*
X419212Y557490D01*
X419141Y557513D01*
X419041Y557521D01*
X418942Y557538D01*
X418868Y557535D01*
X418794Y557541D01*
X418694Y557526D01*
X418594Y557520D01*
X418523Y557500D01*
X418449Y557489D01*
X418356Y557452D01*
X418259Y557424D01*
X418194Y557388D01*
X418125Y557360D01*
X418043Y557303D01*
X417955Y557254D01*
X417879Y557189D01*
X417839Y557161D01*
X417815Y557135D01*
X417769Y557095D01*
X416723Y556050D01*
X410025Y553275D01*
X402775Y553275D01*
X396076Y556050D01*
X390950Y561176D01*
X388175Y567875D01*
X388175Y575125D01*
X390950Y581823D01*
X391995Y582869D01*
X392058Y582948D01*
X392127Y583020D01*
X392166Y583084D01*
X392212Y583142D01*
X392255Y583233D01*
X392306Y583319D01*
X392329Y583390D01*
X392361Y583457D01*
X392382Y583555D01*
X392413Y583651D01*
X392419Y583725D01*
X392434Y583798D01*
X392432Y583898D01*
X392441Y583998D01*
X392429Y584072D01*
X392428Y584146D01*
X392404Y584243D01*
X392389Y584343D01*
X392361Y584412D01*
X392343Y584484D01*
X392297Y584573D01*
X392260Y584667D01*
X392218Y584728D01*
X392184Y584794D01*
X392118Y584870D01*
X392061Y584953D01*
X392006Y585003D01*
X391958Y585059D01*
X391877Y585119D01*
X391802Y585186D01*
X391737Y585222D01*
X391677Y585267D01*
X391585Y585306D01*
X391497Y585355D01*
X391426Y585375D01*
X391357Y585405D01*
X391259Y585422D01*
X391162Y585450D01*
X391062Y585458D01*
X391014Y585466D01*
X390979Y585464D01*
X390918Y585469D01*
X358472Y585469D01*
X358372Y585458D01*
X358272Y585456D01*
X358200Y585438D01*
X358126Y585429D01*
X358032Y585396D01*
X357934Y585371D01*
X357868Y585337D01*
X357798Y585312D01*
X357714Y585257D01*
X357624Y585211D01*
X357568Y585163D01*
X357505Y585123D01*
X357435Y585051D01*
X357359Y584986D01*
X357315Y584926D01*
X357263Y584872D01*
X357211Y584786D01*
X357152Y584705D01*
X357122Y584637D01*
X357084Y584573D01*
X357054Y584477D01*
X357014Y584385D01*
X357001Y584312D01*
X356978Y584241D01*
X356970Y584141D01*
X356952Y584042D01*
X356956Y583968D01*
X356950Y583894D01*
X356965Y583794D01*
X356970Y583694D01*
X356991Y583623D01*
X357002Y583549D01*
X357039Y583456D01*
X357067Y583359D01*
X357103Y583294D01*
X357130Y583225D01*
X357188Y583143D01*
X357237Y583055D01*
X357302Y582979D01*
X357329Y582939D01*
X357356Y582915D01*
X357395Y582869D01*
X361189Y579075D01*
X361189Y563925D01*
X354777Y557513D01*
X354698Y557414D01*
X354614Y557320D01*
X354590Y557278D01*
X354560Y557240D01*
X354506Y557126D01*
X354445Y557015D01*
X354432Y556968D01*
X354411Y556925D01*
X354385Y556801D01*
X354350Y556679D01*
X354345Y556619D01*
X354338Y556584D01*
X354339Y556536D01*
X354331Y556436D01*
X354331Y487966D01*
X354345Y487840D01*
X354352Y487714D01*
X354365Y487668D01*
X354371Y487620D01*
X354413Y487501D01*
X354448Y487379D01*
X354472Y487337D01*
X354488Y487291D01*
X354557Y487185D01*
X354618Y487075D01*
X354658Y487029D01*
X354677Y486999D01*
X354712Y486965D01*
X354777Y486889D01*
X403895Y437771D01*
X403994Y437692D01*
X404088Y437608D01*
X404130Y437584D01*
X404168Y437554D01*
X404282Y437500D01*
X404393Y437439D01*
X404439Y437426D01*
X404483Y437405D01*
X404606Y437379D01*
X404728Y437344D01*
X404789Y437339D01*
X404823Y437332D01*
X404871Y437333D01*
X404972Y437325D01*
X410025Y437325D01*
X416723Y434550D01*
X417769Y433505D01*
X417848Y433442D01*
X417920Y433373D01*
X417984Y433334D01*
X418042Y433288D01*
X418133Y433245D01*
X418219Y433194D01*
X418290Y433171D01*
X418357Y433139D01*
X418455Y433118D01*
X418551Y433087D01*
X418625Y433081D01*
X418698Y433066D01*
X418798Y433068D01*
X418898Y433059D01*
X418972Y433071D01*
G37*
%LPC*%
G36*
X250256Y227539D02*
X250256Y227539D01*
X243602Y229322D01*
X237637Y232766D01*
X232766Y237637D01*
X229322Y243602D01*
X227539Y250256D01*
X227539Y257179D01*
X229325Y263845D01*
X232770Y269810D01*
X237640Y274681D01*
X243606Y278125D01*
X250259Y279908D01*
X257147Y279908D01*
X263801Y278125D01*
X269766Y274681D01*
X274637Y269810D01*
X278081Y263845D01*
X279864Y257191D01*
X279864Y250268D01*
X278078Y243602D01*
X274634Y237637D01*
X269763Y232766D01*
X263798Y229322D01*
X257144Y227539D01*
X250256Y227539D01*
G37*
%LPD*%
%LPC*%
G36*
X344786Y178093D02*
X344786Y178093D01*
X338132Y179876D01*
X332167Y183320D01*
X327296Y188190D01*
X323852Y194156D01*
X322069Y200809D01*
X322069Y207698D01*
X323852Y214351D01*
X327296Y220317D01*
X332167Y225187D01*
X338132Y228631D01*
X344786Y230414D01*
X351674Y230414D01*
X358328Y228631D01*
X364293Y225187D01*
X369164Y220317D01*
X372608Y214351D01*
X374391Y207698D01*
X374391Y200809D01*
X372608Y194156D01*
X369164Y188190D01*
X364293Y183320D01*
X358328Y179876D01*
X351674Y178093D01*
X344786Y178093D01*
G37*
%LPD*%
%LPC*%
G36*
X173402Y288035D02*
X173402Y288035D01*
X166213Y291013D01*
X160711Y296515D01*
X157733Y303704D01*
X157733Y311484D01*
X160711Y318673D01*
X166213Y324175D01*
X173402Y327153D01*
X181182Y327153D01*
X188647Y324061D01*
X188769Y324026D01*
X188888Y323984D01*
X188936Y323978D01*
X188982Y323965D01*
X189108Y323959D01*
X189109Y323959D01*
X189234Y323945D01*
X189282Y323951D01*
X189330Y323948D01*
X189454Y323971D01*
X189580Y323986D01*
X189638Y324004D01*
X189673Y324011D01*
X189717Y324030D01*
X189813Y324061D01*
X197278Y327153D01*
X205058Y327153D01*
X212247Y324175D01*
X217749Y318673D01*
X220727Y311484D01*
X220727Y303704D01*
X217749Y296515D01*
X212247Y291013D01*
X205058Y288035D01*
X197278Y288035D01*
X189813Y291127D01*
X189691Y291162D01*
X189572Y291204D01*
X189524Y291210D01*
X189478Y291223D01*
X189352Y291229D01*
X189226Y291243D01*
X189178Y291237D01*
X189130Y291240D01*
X189006Y291217D01*
X188880Y291202D01*
X188822Y291184D01*
X188787Y291177D01*
X188743Y291158D01*
X188647Y291127D01*
X181182Y288035D01*
X173402Y288035D01*
G37*
%LPD*%
%LPC*%
G36*
X84502Y288035D02*
X84502Y288035D01*
X77313Y291013D01*
X71811Y296515D01*
X68833Y303704D01*
X68833Y311484D01*
X71811Y318673D01*
X77313Y324175D01*
X84502Y327153D01*
X92282Y327153D01*
X99747Y324061D01*
X99869Y324026D01*
X99988Y323984D01*
X100036Y323978D01*
X100082Y323965D01*
X100208Y323959D01*
X100334Y323945D01*
X100382Y323950D01*
X100430Y323948D01*
X100554Y323971D01*
X100680Y323986D01*
X100738Y324004D01*
X100773Y324011D01*
X100817Y324030D01*
X100913Y324061D01*
X108378Y327153D01*
X116158Y327153D01*
X123347Y324175D01*
X128849Y318673D01*
X131827Y311484D01*
X131827Y303704D01*
X128849Y296515D01*
X123347Y291013D01*
X116158Y288035D01*
X108378Y288035D01*
X100913Y291127D01*
X100791Y291162D01*
X100672Y291204D01*
X100624Y291210D01*
X100578Y291223D01*
X100452Y291229D01*
X100326Y291243D01*
X100278Y291238D01*
X100230Y291240D01*
X100105Y291217D01*
X99980Y291202D01*
X99922Y291184D01*
X99887Y291177D01*
X99843Y291158D01*
X99747Y291127D01*
X92282Y288035D01*
X84502Y288035D01*
G37*
%LPD*%
%LPC*%
G36*
X262302Y288035D02*
X262302Y288035D01*
X255113Y291013D01*
X249611Y296515D01*
X246633Y303704D01*
X246633Y311484D01*
X249611Y318673D01*
X255113Y324175D01*
X262302Y327153D01*
X270082Y327153D01*
X277271Y324175D01*
X282773Y318673D01*
X285751Y311484D01*
X285751Y303704D01*
X282773Y296515D01*
X277271Y291013D01*
X270082Y288035D01*
X262302Y288035D01*
G37*
%LPD*%
%LPC*%
G36*
X304551Y616616D02*
X304551Y616616D01*
X304410Y616661D01*
X304384Y616663D01*
X304358Y616671D01*
X304115Y616690D01*
X293954Y616690D01*
X293954Y619078D01*
X295770Y620894D01*
X295786Y620914D01*
X295806Y620931D01*
X295894Y621051D01*
X295986Y621167D01*
X295998Y621190D01*
X296013Y621211D01*
X296072Y621348D01*
X296135Y621482D01*
X296141Y621507D01*
X296151Y621531D01*
X296177Y621678D01*
X296209Y621822D01*
X296208Y621849D01*
X296213Y621874D01*
X296205Y622023D01*
X296203Y622171D01*
X296196Y622196D01*
X296195Y622223D01*
X296154Y622365D01*
X296118Y622509D01*
X296106Y622532D01*
X296098Y622557D01*
X296026Y622687D01*
X295958Y622819D01*
X295941Y622839D01*
X295928Y622862D01*
X295770Y623048D01*
X286334Y632483D01*
X286334Y647634D01*
X297047Y658348D01*
X312198Y658348D01*
X322912Y647634D01*
X322912Y632483D01*
X313476Y623048D01*
X313460Y623027D01*
X313440Y623010D01*
X313352Y622891D01*
X313259Y622775D01*
X313248Y622751D01*
X313232Y622730D01*
X313174Y622594D01*
X313110Y622460D01*
X313105Y622434D01*
X313094Y622410D01*
X313068Y622264D01*
X313037Y622119D01*
X313037Y622093D01*
X313033Y622067D01*
X313040Y621918D01*
X313043Y621771D01*
X313049Y621745D01*
X313051Y621719D01*
X313092Y621576D01*
X313128Y621433D01*
X313140Y621409D01*
X313147Y621384D01*
X313220Y621255D01*
X313288Y621123D01*
X313305Y621103D01*
X313317Y621080D01*
X313476Y620894D01*
X315292Y619078D01*
X315292Y616690D01*
X305131Y616690D01*
X305105Y616687D01*
X305079Y616689D01*
X304932Y616667D01*
X304785Y616650D01*
X304760Y616641D01*
X304734Y616638D01*
X304626Y616595D01*
X304551Y616616D01*
G37*
%LPD*%
%LPC*%
G36*
X449328Y307339D02*
X449328Y307339D01*
X449359Y307536D01*
X449927Y309285D01*
X450762Y310924D01*
X451843Y312412D01*
X453144Y313713D01*
X454632Y314794D01*
X456271Y315629D01*
X458020Y316197D01*
X459836Y316485D01*
X467361Y316485D01*
X467361Y307339D01*
X449328Y307339D01*
G37*
%LPD*%
%LPC*%
G36*
X66999Y154899D02*
X66999Y154899D01*
X66999Y164349D01*
X67355Y164293D01*
X69180Y163699D01*
X70890Y162828D01*
X72443Y161700D01*
X73800Y160343D01*
X74928Y158790D01*
X75799Y157080D01*
X76393Y155255D01*
X76449Y154899D01*
X66999Y154899D01*
G37*
%LPD*%
%LPC*%
G36*
X89651Y264499D02*
X89651Y264499D01*
X89707Y264855D01*
X90301Y266680D01*
X91172Y268390D01*
X92300Y269943D01*
X93657Y271300D01*
X95210Y272428D01*
X96920Y273299D01*
X98745Y273893D01*
X99101Y273949D01*
X99101Y264499D01*
X89651Y264499D01*
G37*
%LPD*%
%LPC*%
G36*
X406151Y180299D02*
X406151Y180299D01*
X406207Y180655D01*
X406801Y182480D01*
X407672Y184190D01*
X408800Y185743D01*
X410157Y187100D01*
X411710Y188228D01*
X413420Y189099D01*
X415245Y189693D01*
X415601Y189749D01*
X415601Y180299D01*
X406151Y180299D01*
G37*
%LPD*%
%LPC*%
G36*
X52551Y154899D02*
X52551Y154899D01*
X52607Y155255D01*
X53201Y157080D01*
X54072Y158790D01*
X55200Y160343D01*
X56557Y161700D01*
X58110Y162828D01*
X59820Y163699D01*
X61645Y164293D01*
X62001Y164349D01*
X62001Y154899D01*
X52551Y154899D01*
G37*
%LPD*%
%LPC*%
G36*
X98745Y250107D02*
X98745Y250107D01*
X96920Y250701D01*
X95210Y251572D01*
X93657Y252700D01*
X92300Y254057D01*
X91172Y255610D01*
X90301Y257320D01*
X89707Y259145D01*
X89651Y259501D01*
X99101Y259501D01*
X99101Y250051D01*
X98745Y250107D01*
G37*
%LPD*%
%LPC*%
G36*
X396239Y661415D02*
X396239Y661415D01*
X396239Y670561D01*
X405385Y670561D01*
X405385Y668260D01*
X398540Y661415D01*
X396239Y661415D01*
G37*
%LPD*%
%LPC*%
G36*
X388860Y661415D02*
X388860Y661415D01*
X382015Y668260D01*
X382015Y670561D01*
X391161Y670561D01*
X391161Y661415D01*
X388860Y661415D01*
G37*
%LPD*%
%LPC*%
G36*
X306654Y603990D02*
X306654Y603990D01*
X306654Y612628D01*
X315292Y612628D01*
X315292Y610240D01*
X309042Y603990D01*
X306654Y603990D01*
G37*
%LPD*%
%LPC*%
G36*
X300204Y603990D02*
X300204Y603990D01*
X293954Y610240D01*
X293954Y612628D01*
X302592Y612628D01*
X302592Y603990D01*
X300204Y603990D01*
G37*
%LPD*%
%LPC*%
G36*
X408399Y624299D02*
X408399Y624299D01*
X408399Y632720D01*
X408883Y632644D01*
X410471Y632128D01*
X411958Y631370D01*
X413309Y630389D01*
X414489Y629209D01*
X415470Y627858D01*
X416228Y626371D01*
X416744Y624783D01*
X416820Y624299D01*
X408399Y624299D01*
G37*
%LPD*%
%LPC*%
G36*
X408399Y522699D02*
X408399Y522699D01*
X408399Y531120D01*
X408883Y531044D01*
X410471Y530528D01*
X411958Y529770D01*
X413309Y528789D01*
X414489Y527609D01*
X415470Y526258D01*
X416228Y524771D01*
X416744Y523183D01*
X416820Y522699D01*
X408399Y522699D01*
G37*
%LPD*%
%LPC*%
G36*
X395980Y624299D02*
X395980Y624299D01*
X396056Y624783D01*
X396572Y626371D01*
X397330Y627858D01*
X398311Y629209D01*
X399491Y630389D01*
X400842Y631370D01*
X402329Y632128D01*
X403917Y632644D01*
X404401Y632720D01*
X404401Y624299D01*
X395980Y624299D01*
G37*
%LPD*%
%LPC*%
G36*
X408399Y620301D02*
X408399Y620301D01*
X416820Y620301D01*
X416744Y619817D01*
X416228Y618229D01*
X415470Y616742D01*
X414489Y615391D01*
X413309Y614211D01*
X411958Y613230D01*
X410471Y612472D01*
X408883Y611956D01*
X408399Y611880D01*
X408399Y620301D01*
G37*
%LPD*%
%LPC*%
G36*
X395980Y522699D02*
X395980Y522699D01*
X396056Y523183D01*
X396572Y524771D01*
X397330Y526258D01*
X398311Y527609D01*
X399491Y528789D01*
X400842Y529770D01*
X402329Y530528D01*
X403917Y531044D01*
X404401Y531120D01*
X404401Y522699D01*
X395980Y522699D01*
G37*
%LPD*%
%LPC*%
G36*
X408399Y518701D02*
X408399Y518701D01*
X416820Y518701D01*
X416744Y518217D01*
X416228Y516629D01*
X415470Y515142D01*
X414489Y513791D01*
X413309Y512611D01*
X411958Y511630D01*
X410471Y510872D01*
X408883Y510356D01*
X408399Y510280D01*
X408399Y518701D01*
G37*
%LPD*%
%LPC*%
G36*
X403917Y611956D02*
X403917Y611956D01*
X402329Y612472D01*
X400842Y613230D01*
X399491Y614211D01*
X398311Y615391D01*
X397330Y616742D01*
X396572Y618229D01*
X396056Y619817D01*
X395980Y620301D01*
X404401Y620301D01*
X404401Y611880D01*
X403917Y611956D01*
G37*
%LPD*%
%LPC*%
G36*
X403917Y510356D02*
X403917Y510356D01*
X402329Y510872D01*
X400842Y511630D01*
X399491Y512611D01*
X398311Y513791D01*
X397330Y515142D01*
X396572Y516629D01*
X396056Y518217D01*
X395980Y518701D01*
X404401Y518701D01*
X404401Y510280D01*
X403917Y510356D01*
G37*
%LPD*%
D10*
X342900Y596900D03*
X342900Y571500D03*
D11*
X304623Y614659D03*
X304623Y640059D03*
D12*
X23368Y619506D03*
X88392Y619506D03*
X23368Y574294D03*
X88392Y574294D03*
X23368Y352806D03*
X88392Y352806D03*
X23368Y307594D03*
X88392Y307594D03*
X112268Y352806D03*
X177292Y352806D03*
X112268Y307594D03*
X177292Y307594D03*
X201168Y352806D03*
X266192Y352806D03*
X201168Y307594D03*
X266192Y307594D03*
X112268Y619506D03*
X177292Y619506D03*
X112268Y574294D03*
X177292Y574294D03*
X201168Y619506D03*
X266192Y619506D03*
X201168Y574294D03*
X266192Y574294D03*
X23368Y530606D03*
X88392Y530606D03*
X23368Y485394D03*
X88392Y485394D03*
X112268Y530606D03*
X177292Y530606D03*
X112268Y485394D03*
X177292Y485394D03*
X201168Y530606D03*
X266192Y530606D03*
X201168Y485394D03*
X266192Y485394D03*
X23368Y441706D03*
X88392Y441706D03*
X23368Y396494D03*
X88392Y396494D03*
X112268Y441706D03*
X177292Y441706D03*
X112268Y396494D03*
X177292Y396494D03*
X201168Y441706D03*
X266192Y441706D03*
X201168Y396494D03*
X266192Y396494D03*
D13*
X177800Y262000D03*
X152400Y262000D03*
X127000Y262000D03*
X101600Y262000D03*
X418100Y50800D03*
X418100Y76200D03*
X418100Y101600D03*
X418100Y152400D03*
X418100Y127000D03*
X418100Y177800D03*
X64500Y76200D03*
X64500Y127000D03*
X64500Y101600D03*
X64500Y152400D03*
D14*
X460756Y25400D02*
X479044Y25400D01*
X479044Y50800D02*
X460756Y50800D01*
X460756Y76200D02*
X479044Y76200D01*
X479044Y101600D02*
X460756Y101600D01*
X460756Y127000D02*
X479044Y127000D01*
X479044Y152400D02*
X460756Y152400D01*
X460756Y177800D02*
X479044Y177800D01*
X479044Y203200D02*
X460756Y203200D01*
X460756Y228600D02*
X479044Y228600D01*
X479044Y254000D02*
X460756Y254000D01*
X460756Y279400D02*
X479044Y279400D01*
X479044Y304800D02*
X460756Y304800D01*
D15*
X393700Y673100D03*
D16*
X400177Y698373D02*
X402082Y698373D01*
X400177Y698373D02*
X400177Y692023D01*
X403987Y692023D01*
X404087Y692025D01*
X404186Y692031D01*
X404286Y692041D01*
X404384Y692054D01*
X404483Y692072D01*
X404580Y692093D01*
X404676Y692118D01*
X404772Y692147D01*
X404866Y692180D01*
X404959Y692216D01*
X405050Y692256D01*
X405140Y692300D01*
X405228Y692347D01*
X405314Y692397D01*
X405398Y692451D01*
X405480Y692508D01*
X405559Y692568D01*
X405637Y692632D01*
X405711Y692698D01*
X405783Y692767D01*
X405852Y692839D01*
X405918Y692913D01*
X405982Y692991D01*
X406042Y693070D01*
X406099Y693152D01*
X406153Y693236D01*
X406203Y693322D01*
X406250Y693410D01*
X406294Y693500D01*
X406334Y693591D01*
X406370Y693684D01*
X406403Y693778D01*
X406432Y693874D01*
X406457Y693970D01*
X406478Y694067D01*
X406496Y694166D01*
X406509Y694264D01*
X406519Y694364D01*
X406525Y694463D01*
X406527Y694563D01*
X406527Y700913D01*
X406525Y701013D01*
X406519Y701112D01*
X406509Y701212D01*
X406496Y701310D01*
X406478Y701409D01*
X406457Y701506D01*
X406432Y701602D01*
X406403Y701698D01*
X406370Y701792D01*
X406334Y701885D01*
X406294Y701976D01*
X406250Y702066D01*
X406203Y702154D01*
X406153Y702240D01*
X406099Y702324D01*
X406042Y702406D01*
X405982Y702485D01*
X405918Y702563D01*
X405852Y702637D01*
X405783Y702709D01*
X405711Y702778D01*
X405637Y702844D01*
X405559Y702908D01*
X405480Y702968D01*
X405398Y703025D01*
X405314Y703079D01*
X405228Y703129D01*
X405140Y703176D01*
X405050Y703220D01*
X404959Y703260D01*
X404866Y703296D01*
X404772Y703329D01*
X404676Y703358D01*
X404580Y703383D01*
X404483Y703404D01*
X404384Y703422D01*
X404286Y703435D01*
X404186Y703445D01*
X404087Y703451D01*
X403987Y703453D01*
X400177Y703453D01*
X394335Y703453D02*
X394335Y692023D01*
X387985Y692023D02*
X394335Y703453D01*
X387985Y703453D02*
X387985Y692023D01*
X382143Y692023D02*
X382143Y703453D01*
X378968Y703453D01*
X378857Y703451D01*
X378747Y703445D01*
X378636Y703436D01*
X378526Y703422D01*
X378417Y703405D01*
X378308Y703384D01*
X378200Y703359D01*
X378093Y703330D01*
X377987Y703298D01*
X377882Y703262D01*
X377779Y703222D01*
X377677Y703179D01*
X377576Y703132D01*
X377477Y703081D01*
X377381Y703028D01*
X377286Y702971D01*
X377193Y702910D01*
X377102Y702847D01*
X377013Y702780D01*
X376927Y702710D01*
X376844Y702637D01*
X376762Y702562D01*
X376684Y702484D01*
X376609Y702402D01*
X376536Y702319D01*
X376466Y702233D01*
X376399Y702144D01*
X376336Y702053D01*
X376275Y701960D01*
X376218Y701866D01*
X376165Y701769D01*
X376114Y701670D01*
X376067Y701569D01*
X376024Y701467D01*
X375984Y701364D01*
X375948Y701259D01*
X375916Y701153D01*
X375887Y701046D01*
X375862Y700938D01*
X375841Y700829D01*
X375824Y700720D01*
X375810Y700610D01*
X375801Y700499D01*
X375795Y700389D01*
X375793Y700278D01*
X375793Y695198D01*
X375795Y695087D01*
X375801Y694977D01*
X375810Y694866D01*
X375824Y694756D01*
X375841Y694647D01*
X375862Y694538D01*
X375887Y694430D01*
X375916Y694323D01*
X375948Y694217D01*
X375984Y694112D01*
X376024Y694009D01*
X376067Y693907D01*
X376114Y693806D01*
X376165Y693707D01*
X376218Y693611D01*
X376275Y693516D01*
X376336Y693423D01*
X376399Y693332D01*
X376466Y693243D01*
X376536Y693157D01*
X376609Y693074D01*
X376684Y692992D01*
X376762Y692914D01*
X376844Y692839D01*
X376927Y692766D01*
X377013Y692696D01*
X377102Y692629D01*
X377193Y692566D01*
X377286Y692505D01*
X377381Y692448D01*
X377477Y692395D01*
X377576Y692344D01*
X377677Y692297D01*
X377779Y692254D01*
X377882Y692214D01*
X377987Y692178D01*
X378093Y692146D01*
X378200Y692117D01*
X378308Y692092D01*
X378417Y692071D01*
X378526Y692054D01*
X378636Y692040D01*
X378747Y692031D01*
X378857Y692025D01*
X378968Y692023D01*
X382143Y692023D01*
D15*
X431800Y673100D03*
D16*
X440817Y692023D02*
X440717Y692025D01*
X440618Y692031D01*
X440518Y692041D01*
X440420Y692054D01*
X440321Y692072D01*
X440224Y692093D01*
X440128Y692118D01*
X440032Y692147D01*
X439938Y692180D01*
X439845Y692216D01*
X439754Y692256D01*
X439664Y692300D01*
X439576Y692347D01*
X439490Y692397D01*
X439406Y692451D01*
X439324Y692508D01*
X439245Y692568D01*
X439167Y692632D01*
X439093Y692698D01*
X439021Y692767D01*
X438952Y692839D01*
X438886Y692913D01*
X438822Y692991D01*
X438762Y693070D01*
X438705Y693152D01*
X438651Y693236D01*
X438601Y693322D01*
X438554Y693410D01*
X438510Y693500D01*
X438470Y693591D01*
X438434Y693684D01*
X438401Y693778D01*
X438372Y693874D01*
X438347Y693970D01*
X438326Y694067D01*
X438308Y694166D01*
X438295Y694264D01*
X438285Y694364D01*
X438279Y694463D01*
X438277Y694563D01*
X440817Y692023D02*
X440958Y692025D01*
X441099Y692030D01*
X441240Y692040D01*
X441381Y692053D01*
X441521Y692069D01*
X441661Y692090D01*
X441800Y692114D01*
X441939Y692142D01*
X442076Y692173D01*
X442213Y692208D01*
X442349Y692246D01*
X442484Y692288D01*
X442617Y692334D01*
X442750Y692383D01*
X442881Y692436D01*
X443010Y692492D01*
X443139Y692551D01*
X443265Y692614D01*
X443390Y692680D01*
X443513Y692749D01*
X443634Y692822D01*
X443753Y692898D01*
X443871Y692977D01*
X443986Y693058D01*
X444098Y693143D01*
X444209Y693231D01*
X444317Y693322D01*
X444423Y693415D01*
X444526Y693512D01*
X444627Y693611D01*
X444310Y700913D02*
X444308Y701013D01*
X444302Y701112D01*
X444292Y701212D01*
X444279Y701310D01*
X444261Y701409D01*
X444240Y701506D01*
X444215Y701602D01*
X444186Y701698D01*
X444153Y701792D01*
X444117Y701885D01*
X444077Y701976D01*
X444033Y702066D01*
X443986Y702154D01*
X443936Y702240D01*
X443882Y702324D01*
X443825Y702406D01*
X443765Y702485D01*
X443701Y702563D01*
X443635Y702637D01*
X443566Y702709D01*
X443494Y702778D01*
X443420Y702844D01*
X443342Y702908D01*
X443263Y702968D01*
X443181Y703025D01*
X443097Y703079D01*
X443011Y703129D01*
X442923Y703176D01*
X442833Y703220D01*
X442742Y703260D01*
X442649Y703296D01*
X442555Y703329D01*
X442459Y703358D01*
X442363Y703383D01*
X442266Y703404D01*
X442167Y703422D01*
X442069Y703435D01*
X441969Y703445D01*
X441870Y703451D01*
X441770Y703453D01*
X441770Y703454D02*
X441637Y703452D01*
X441504Y703447D01*
X441371Y703437D01*
X441238Y703424D01*
X441106Y703407D01*
X440974Y703387D01*
X440843Y703363D01*
X440713Y703335D01*
X440583Y703304D01*
X440455Y703269D01*
X440327Y703230D01*
X440201Y703188D01*
X440076Y703142D01*
X439952Y703093D01*
X439829Y703041D01*
X439708Y702985D01*
X439589Y702925D01*
X439471Y702863D01*
X439356Y702797D01*
X439242Y702728D01*
X439130Y702655D01*
X439020Y702580D01*
X438912Y702501D01*
X443040Y698690D02*
X443124Y698742D01*
X443207Y698797D01*
X443287Y698856D01*
X443365Y698917D01*
X443440Y698981D01*
X443513Y699049D01*
X443584Y699119D01*
X443651Y699191D01*
X443716Y699266D01*
X443778Y699344D01*
X443837Y699424D01*
X443893Y699506D01*
X443945Y699590D01*
X443994Y699676D01*
X444040Y699764D01*
X444083Y699854D01*
X444122Y699945D01*
X444157Y700038D01*
X444189Y700132D01*
X444217Y700227D01*
X444242Y700323D01*
X444262Y700420D01*
X444280Y700518D01*
X444293Y700616D01*
X444302Y700715D01*
X444308Y700814D01*
X444310Y700913D01*
X439547Y696786D02*
X439463Y696734D01*
X439380Y696679D01*
X439300Y696620D01*
X439222Y696559D01*
X439147Y696495D01*
X439074Y696427D01*
X439003Y696357D01*
X438936Y696285D01*
X438871Y696210D01*
X438809Y696132D01*
X438750Y696052D01*
X438694Y695970D01*
X438642Y695886D01*
X438593Y695800D01*
X438547Y695712D01*
X438504Y695622D01*
X438465Y695531D01*
X438430Y695438D01*
X438398Y695344D01*
X438370Y695249D01*
X438345Y695153D01*
X438325Y695056D01*
X438307Y694958D01*
X438294Y694860D01*
X438285Y694761D01*
X438279Y694662D01*
X438277Y694563D01*
X439547Y696786D02*
X443040Y698691D01*
X433451Y696468D02*
X425831Y696468D01*
X429641Y692658D02*
X429641Y700278D01*
D17*
X457200Y495300D03*
X406400Y469900D03*
X406400Y520700D03*
X457200Y596900D03*
X406400Y571500D03*
X406400Y622300D03*
X457200Y393700D03*
X406400Y368300D03*
X406400Y419100D03*
D18*
X419100Y266700D03*
D19*
X431800Y279400D01*
X431800Y304800D01*
X469900Y304800D01*
X177800Y262000D02*
X177800Y214900D01*
X64500Y101600D01*
X148200Y566538D02*
X148200Y655438D01*
D18*
X148200Y655438D03*
D19*
X148200Y559698D02*
X148200Y477638D01*
X148200Y469900D01*
X148200Y388738D01*
X112268Y352806D01*
X148200Y381898D02*
X177292Y352806D01*
X148200Y381898D02*
X148200Y388738D01*
X177292Y441706D02*
X149098Y469900D01*
X148200Y469900D01*
X148200Y477638D02*
X112268Y441706D01*
X112268Y530606D02*
X148200Y566538D01*
X148200Y559698D02*
X177292Y530606D01*
X148200Y559698D02*
X148200Y566538D01*
X112268Y619506D02*
X148200Y655438D01*
X148200Y648598D02*
X177292Y619506D01*
X148200Y648598D02*
X148200Y655438D01*
X237100Y655438D02*
X237100Y566538D01*
D18*
X237100Y655438D03*
D19*
X237100Y559698D02*
X237100Y477638D01*
X237100Y470798D02*
X237100Y388738D01*
X257538Y368300D01*
X266700Y368300D01*
X317500Y368300D01*
X201168Y619506D02*
X237100Y655438D01*
X237100Y648598D02*
X266192Y619506D01*
X237100Y648598D02*
X237100Y655438D01*
X237100Y566538D02*
X201168Y530606D01*
X237100Y559698D02*
X266192Y530606D01*
X237100Y559698D02*
X237100Y566538D01*
X237100Y477638D02*
X201168Y441706D01*
X237100Y470798D02*
X266192Y441706D01*
X237100Y470798D02*
X237100Y477638D01*
X266192Y367792D02*
X266192Y352806D01*
X266192Y367792D02*
X266700Y368300D01*
X237100Y388738D02*
X201168Y352806D01*
X444500Y177800D02*
X469900Y177800D01*
X330200Y355600D02*
X317500Y368300D01*
X444500Y215900D02*
X444500Y177800D01*
X444500Y215900D02*
X330200Y330200D01*
X330200Y355600D01*
X59300Y566538D02*
X59300Y655438D01*
D18*
X59300Y655438D03*
D19*
X59300Y559698D02*
X59300Y477638D01*
X59300Y470798D01*
X59300Y388738D01*
X23368Y530606D02*
X59300Y566538D01*
X59300Y559698D02*
X88392Y530606D01*
X59300Y559698D02*
X59300Y566538D01*
X59300Y470798D02*
X88392Y441706D01*
X59300Y477638D02*
X23368Y441706D01*
X59300Y388738D02*
X23368Y352806D01*
X59300Y381898D02*
X88392Y352806D01*
X59300Y381898D02*
X59300Y388738D01*
X88392Y619506D02*
X59300Y648598D01*
X59300Y655438D01*
X23368Y619506D01*
X431800Y596900D02*
X431800Y381000D01*
X495300Y317500D01*
X495300Y254000D01*
X469900Y254000D01*
X431800Y596900D02*
X342900Y596900D01*
X419100Y381000D02*
X406400Y368300D01*
X419100Y381000D02*
X431800Y381000D01*
X346027Y292100D02*
X437467Y200660D01*
X346027Y292100D02*
X317500Y292100D01*
D17*
X317500Y292100D03*
D19*
X437467Y83233D02*
X444500Y76200D01*
X469900Y76200D01*
X437467Y83233D02*
X437467Y200660D01*
X406400Y419100D02*
X342900Y482600D01*
X342900Y571500D01*
M02*
